<svg width="16" height="16" viewBox="0 0 16 16" fill="none" xmlns="http://www.w3.org/2000/svg">
<path fill-rule="nonzero" clip-rule="nonzero" d="M7.46664 0.133215C7.81355 0.0222044 8.18645 0.022205 8.53336 0.133215L13.7834 1.81321C14.5082 2.04516 15 2.71894 15 3.47996V7C15 8.56605 14.6808 10.1824 13.6968 11.6822C12.7137 13.1807 11.1116 14.4948 8.66492 15.5369C8.24091 15.7175 7.75909 15.7175 7.33508 15.5369C4.88836 14.4948 3.28631 13.1807 2.3032 11.6822C1.31923 10.1824 1 8.56605 1 7V3.47996C1 2.71894 1.49183 2.04516 2.21664 1.81321L7.46664 0.133215ZM8.07619 1.56185C8.02664 1.54599 7.97336 1.54599 7.92381 1.56185L2.67381 3.24185C2.57026 3.27499 2.5 3.37124 2.5 3.47996V7C2.5 8.35833 2.77465 9.66633 3.55737 10.8594C4.34094 12.0537 5.67838 13.2009 7.92287 14.1568C7.97134 14.1775 8.02866 14.1775 8.07713 14.1568C10.3216 13.2009 11.6591 12.0537 12.4426 10.8594C13.2253 9.66633 13.5 8.35833 13.5 7V3.47996C13.5 3.37124 13.4297 3.27499 13.3262 3.24185L8.07619 1.56185ZM8 3.25C8.30668 3.25 8.58246 3.43672 8.69636 3.72146L11.1964 9.97146C11.3502 10.356 11.1631 10.7925 10.7785 10.9464C10.394 11.1002 9.95748 10.9131 9.80364 10.5285L9.49222 9.75H6.50778L6.19636 10.5285C6.04252 10.9131 5.60604 11.1002 5.22146 10.9464C4.83687 10.7925 4.64981 10.356 4.80364 9.97146L7.30364 3.72146C7.41754 3.43672 7.69332 3.25 8 3.25ZM7.10778 8.25H8.89222L8 6.01944L7.10778 8.25Z" fill="black"/>
</svg>
