<svg width="16" height="16" viewBox="0 0 16 16" fill="none" xmlns="http://www.w3.org/2000/svg">
<path fill-rule="evenodd" clip-rule="evenodd" d="M9.03062 2.13815L6.53896 7.5048C7.40092 7.29473 8.25474 6.98928 9.05347 6.61543C10.2972 6.03329 11.3763 5.29991 12.1323 4.53863C12.9069 3.75865 13.25 3.04613 13.25 2.50001C13.25 2.28329 13.1763 2.17247 13.0086 2.07043C12.791 1.93802 12.4203 1.83996 11.8967 1.8114C10.9876 1.76181 9.88149 1.93313 9.03062 2.13815ZM4.57432 8.17432L7.09779 2.73917C6.75072 2.8729 6.38652 3.02729 6.02472 3.20106C4.99744 3.69448 4.0895 4.29734 3.6 4.95C3.35147 5.28137 2.88137 5.34853 2.55 5.1C2.21863 4.85147 2.15147 4.38137 2.4 4.05C3.11051 3.10267 4.2859 2.37219 5.37528 1.84895C6.48008 1.3183 7.59944 0.952693 8.31033 0.77435C9.26556 0.514515 10.7233 0.245165 11.9784 0.313624C12.6006 0.347563 13.2611 0.468256 13.7883 0.788963C14.3653 1.14005 14.75 1.71673 14.75 2.50001C14.75 3.62827 14.0838 4.70226 13.1966 5.59561C12.7345 6.06097 12.1866 6.50413 11.5793 6.91154C11.8525 7.06295 12.1133 7.27313 12.3214 7.56242C12.6034 7.95459 12.75 8.43901 12.75 9C12.75 9.4199 12.5719 9.81038 12.3657 10.1319C12.1518 10.4653 11.8584 10.8004 11.5209 11.1262C10.8446 11.7792 9.9214 12.4612 8.89158 13.0917C6.84476 14.3447 4.24034 15.4758 2.09303 15.7442C1.81857 15.7785 1.5475 15.659 1.38775 15.4332C1.22799 15.2074 1.20548 14.912 1.32918 14.6646L4.57432 8.17432ZM9.57021 8.02912C8.37393 8.57649 7.05897 8.99057 5.74344 9.19018L3.36357 13.9499C4.91552 13.5115 6.63744 12.7128 8.10842 11.8123C9.07861 11.2184 9.90545 10.6008 10.4791 10.047C10.7666 9.76947 10.9732 9.52444 11.1031 9.32197C11.1673 9.22184 11.2063 9.14217 11.2281 9.083C11.2492 9.02602 11.25 9.00009 11.25 8.99987L11.25 9C11.25 8.70835 11.1775 8.541 11.1036 8.4382C11.0259 8.33021 10.9059 8.23746 10.7288 8.16456C10.3872 8.02393 9.93776 8.00053 9.57021 8.02912Z" fill="black"/>
</svg>
