<svg width="16" height="16" fill="none" xmlns="http://www.w3.org/2000/svg">
  <path d="M1.393.199A.763.763 0 001 .865v14.27c0 .271.145.521.38.659a.78.78 0 00.766.01L8 12.605l5.854 3.2a.78.78 0 00.766-.01.763.763 0 00.38-.659V.866A.762.762 0 0014.607.2a.78.78 0 00-.78.011L8 3.7 2.173.21a.78.78 0 00-.78-.01zm8.204 11.53l3.858-2.109v4.22l-3.858-2.11zm3.088-3.435L8 10.856 3.315 8.294 8 5.488l4.685 2.806zm.77-1.326L9.492 4.594l3.963-2.373v4.747zM6.508 4.594L2.545 6.968V2.221l3.963 2.373zM2.545 9.62l3.858 2.11-3.858 2.11V9.62z" fill="#000"/>
</svg>
