<svg width="16" height="16" viewBox="0 0 16 16" fill="none" xmlns="http://www.w3.org/2000/svg">
<path fill-rule="evenodd" clip-rule="evenodd" d="M7.03849 1.68249C7.49348 0.772506 8.79207 0.772503 9.24706 1.68249L14.8681 12.9245C15.2785 13.7454 14.6816 14.7113 13.7638 14.7113H2.21655C1.55177 14.7113 0.944121 14.1597 1.0041 13.4172C1.13469 11.8005 1.84212 10.3114 3.10149 9.20571C4.35841 8.10221 6.12162 7.41735 8.31178 7.31649C9.06815 7.28165 9.63653 7.9287 9.5772 8.64065L9.42703 10.4427C9.35905 11.2584 8.59624 11.6676 8.00731 11.6599C7.68649 11.6556 7.29579 11.7125 6.9437 11.8277C6.57603 11.9479 6.34373 12.1007 6.24323 12.2216C5.98174 12.5363 5.51469 12.5794 5.20004 12.3179C4.8854 12.0564 4.84231 11.5893 5.1038 11.2747C5.45998 10.8461 5.99531 10.5791 6.48317 10.4195C6.96455 10.2621 7.49101 10.1794 7.96239 10.1781L8.07598 8.81496C6.3103 8.94891 4.98726 9.52162 4.07896 10.3191C3.20067 11.0902 2.67374 12.1021 2.51478 13.2297H13.3642L8.14277 2.78677L6.33609 6.40015C6.15312 6.76607 5.70816 6.9144 5.34223 6.73143C4.9763 6.54847 4.82798 6.1035 5.01094 5.73757L7.03849 1.68249Z" fill="black"/>
</svg>
