<svg width="16" height="16" viewBox="0 0 16 16" fill="none" xmlns="http://www.w3.org/2000/svg">
<path fill-rule="nonzero" clip-rule="nonzero" d="M7.00017 5.5C5.61936 5.5 4.5 6.61936 4.5 8.00017C4.5 9.38097 5.61936 10.5003 7.00017 10.5003C7.71226 10.5003 8.3538 10.2036 8.81009 9.725C9.09591 9.4252 9.57065 9.41386 9.87045 9.69968C10.1703 9.9855 10.1816 10.4602 9.89577 10.76C9.16817 11.5232 8.13926 12.0003 7.00017 12.0003C4.79094 12.0003 3 10.2094 3 8.00017C3 5.79094 4.79094 4 7.00017 4C8.13445 4 9.15952 4.47309 9.88658 5.23069C10.1734 5.52954 10.1636 6.00432 9.86477 6.29112C9.56591 6.57793 9.09114 6.56817 8.80433 6.26931C8.3484 5.79424 7.70928 5.5 7.00017 5.5Z" fill="black"/>
<path fill-rule="nonzero" clip-rule="nonzero" d="M14 6C14.2761 6 14.5 6.22386 14.5 6.5V7.5H15.5C15.7761 7.5 16 7.72386 16 8C16 8.27614 15.7761 8.5 15.5 8.5H14.5V9.5C14.5 9.77614 14.2761 10 14 10C13.7239 10 13.5 9.77614 13.5 9.5V8.5H12.5C12.2239 8.5 12 8.27614 12 8C12 7.72386 12.2239 7.5 12.5 7.5H13.5V6.5C13.5 6.22386 13.7239 6 14 6Z" fill="black"/>
<path fill-rule="nonzero" clip-rule="nonzero" d="M11.5 6C11.7761 6 12 6.22386 12 6.5V7.5H13C13.2761 7.5 13.5 7.72386 13.5 8C13.5 8.27614 13.2761 8.5 13 8.5H12V9.5C12 9.77614 11.7761 10 11.5 10C11.2239 10 11 9.77614 11 9.5V8.5H10C9.72386 8.5 9.5 8.27614 9.5 8C9.5 7.72386 9.72386 7.5 10 7.5H11V6.5C11 6.22386 11.2239 6 11.5 6Z" fill="black"/>
<path fill-rule="nonzero" clip-rule="nonzero" d="M6.58638 0.102166C6.8199 -0.0340553 7.10867 -0.0340553 7.34219 0.102166L12.0565 2.85217C12.4143 3.06088 12.5351 3.52011 12.3264 3.8779C12.1177 4.23569 11.6585 4.35654 11.3007 4.14783L6.96429 1.61828L1.5 4.80578V11.1942L6.96429 14.3817L11.3007 11.8522C11.6585 11.6435 12.1177 11.7643 12.3264 12.1221C12.5351 12.4799 12.4143 12.9391 12.0565 13.1478L7.34219 15.8978C7.10867 16.0341 6.8199 16.0341 6.58638 15.8978L0.372097 12.2728C0.141683 12.1384 0 11.8918 0 11.625V4.375C0 4.10825 0.141683 3.86157 0.372097 3.72717L6.58638 0.102166Z" fill="black"/>
</svg>
