<svg width="16" height="16" viewBox="0 0 16 16" fill="none" xmlns="http://www.w3.org/2000/svg">
<path fill-rule="evenodd" clip-rule="evenodd" d="M3.36066 4.98361H4.93443V7.86885H8.60656V9.44262H4.93443V13.1148H8.60656V14.6885H4.14754C3.71296 14.6885 3.36066 14.3362 3.36066 13.9016V4.98361Z" fill="black"/>
<path fill-rule="evenodd" clip-rule="evenodd" d="M1 1.83607C1 0.822034 1.82203 0 2.83607 0H10.7049C11.7189 0 12.541 0.822034 12.541 1.83607V3.67213C12.541 4.68616 11.7189 5.5082 10.7049 5.5082H2.83607C1.82203 5.5082 1 4.68616 1 3.67213V1.83607ZM2.83607 1.57377C2.6912 1.57377 2.57377 1.6912 2.57377 1.83607V3.67213C2.57377 3.81699 2.6912 3.93443 2.83607 3.93443H10.7049C10.8498 3.93443 10.9672 3.81699 10.9672 3.67213V1.83607C10.9672 1.6912 10.8498 1.57377 10.7049 1.57377H2.83607Z" fill="black"/>
<path fill-rule="evenodd" clip-rule="evenodd" d="M7.81967 8.39344C7.81967 7.37941 8.64171 6.55738 9.65574 6.55738H12.2787C13.2927 6.55738 14.1148 7.37941 14.1148 8.39344V8.91803C14.1148 9.93206 13.2927 10.7541 12.2787 10.7541H9.65574C8.64171 10.7541 7.81967 9.93206 7.81967 8.91803V8.39344ZM9.65574 8.13115C9.51088 8.13115 9.39344 8.24858 9.39344 8.39344V8.91803C9.39344 9.06289 9.51088 9.18033 9.65574 9.18033H12.2787C12.4235 9.18033 12.541 9.06289 12.541 8.91803V8.39344C12.541 8.24858 12.4235 8.13115 12.2787 8.13115H9.65574Z" fill="black"/>
<path fill-rule="evenodd" clip-rule="evenodd" d="M7.81967 13.6393C7.81967 12.6253 8.64171 11.8033 9.65574 11.8033H12.2787C13.2927 11.8033 14.1148 12.6253 14.1148 13.6393V14.1639C14.1148 15.178 13.2927 16 12.2787 16H9.65574C8.64171 16 7.81967 15.178 7.81967 14.1639V13.6393ZM9.65574 13.377C9.51088 13.377 9.39344 13.4945 9.39344 13.6393V14.1639C9.39344 14.3088 9.51088 14.4262 9.65574 14.4262H12.2787C12.4235 14.4262 12.541 14.3088 12.541 14.1639V13.6393C12.541 13.4945 12.4235 13.377 12.2787 13.377H9.65574Z" fill="black"/>
</svg>
