<svg width="16" height="16" viewBox="0 0 16 16" fill="none" xmlns="http://www.w3.org/2000/svg">
<path fill-rule="evenodd" clip-rule="evenodd" d="M0 5.8C0 5.35817 0.358172 5 0.8 5H15.2C15.6418 5 16 5.35817 16 5.8C16 6.24183 15.6418 6.6 15.2 6.6H0.8C0.358172 6.6 0 6.24183 0 5.8ZM0.8 10.6C1.24183 10.6 1.6 10.9582 1.6 11.4V12.7333H4.8V11.4C4.8 10.9582 5.15817 10.6 5.6 10.6C6.04183 10.6 6.4 10.9582 6.4 11.4V12.7333H9.6V11.4C9.6 10.9582 9.95817 10.6 10.4 10.6C10.8418 10.6 11.2 10.9582 11.2 11.4V12.7333H14.4V11.4C14.4 10.9582 14.7582 10.6 15.2 10.6C15.6418 10.6 16 10.9582 16 11.4V14.3333H0V11.4C0 10.9582 0.358172 10.6 0.8 10.6Z" fill="black"/>
</svg>
