<svg width="16" height="16" viewBox="0 0 16 16" fill="none" xmlns="http://www.w3.org/2000/svg">
<path fill-rule="evenodd" clip-rule="evenodd" d="M0 1.75C0 0.783501 0.783502 0 1.75 0H14.25C15.2165 0 16 0.783502 16 1.75V3.75C16 4.16421 15.6642 4.5 15.25 4.5C14.8358 4.5 14.5 4.16421 14.5 3.75V1.75C14.5 1.61193 14.3881 1.5 14.25 1.5H1.75C1.61193 1.5 1.5 1.61193 1.5 1.75V14.25C1.5 14.3881 1.61193 14.5 1.75 14.5H15.25C15.6642 14.5 16 14.8358 16 15.25C16 15.6642 15.6642 16 15.25 16H1.75C0.783501 16 0 15.2165 0 14.25V1.75ZM4.44968 6.39044C4.87457 5.93156 5.40992 5.75 5.83333 5.75C6.91874 5.75 7.75 6.68204 7.75 8C7.75 8.41421 7.41421 8.75 7 8.75C6.58579 8.75 6.25 8.41421 6.25 8C6.25 7.64746 6.1488 7.45866 6.07046 7.36924C5.99137 7.27896 5.90405 7.25 5.83333 7.25C5.8335 7.25 5.83074 7.25 5.82518 7.2506C5.81969 7.25119 5.81217 7.25228 5.80285 7.25425C5.78404 7.2582 5.76012 7.26521 5.73294 7.27686C5.67952 7.29975 5.61474 7.33998 5.55032 7.40956C5.43006 7.53944 5.25 7.84115 5.25 8.5V10.5C5.25 11.1589 5.43006 11.4606 5.55032 11.5904C5.61474 11.66 5.67952 11.7002 5.73294 11.7231C5.76012 11.7348 5.78404 11.7418 5.80285 11.7458C5.81217 11.7477 5.81969 11.7488 5.82518 11.7494C5.83074 11.75 5.8335 11.75 5.83333 11.75C5.90405 11.75 5.99137 11.721 6.07046 11.6308C6.1488 11.5413 6.25 11.3525 6.25 11C6.25 10.5858 6.58579 10.25 7 10.25C7.41421 10.25 7.75 10.5858 7.75 11C7.75 12.318 6.91874 13.25 5.83333 13.25C5.40992 13.25 4.87457 13.0684 4.44968 12.6096C4.01439 12.1394 3.75 11.4411 3.75 10.5V8.5C3.75 7.55885 4.01439 6.86056 4.44968 6.39044ZM8.66299 6.33236C8.98672 5.94388 9.46505 5.75 10.0204 5.75C10.5758 5.75 11.0541 5.94388 11.3778 6.33236C11.6815 6.69678 11.7704 7.13857 11.7704 7.5C11.7704 7.91421 11.4346 8.25 11.0204 8.25C10.6062 8.25 10.2704 7.91421 10.2704 7.5C10.2704 7.36143 10.2343 7.30322 10.2255 7.29264L10.2253 7.29242C10.2233 7.28995 10.2185 7.28414 10.2002 7.27637C10.1787 7.26726 10.1247 7.25 10.0204 7.25C9.91615 7.25 9.86214 7.26726 9.84066 7.27637C9.82237 7.28414 9.81755 7.28995 9.8155 7.29242L9.81532 7.29264C9.80651 7.30322 9.77041 7.36143 9.77041 7.5C9.77041 7.58076 9.76577 7.67426 9.76185 7.75336L9.76119 7.76653C9.75676 7.8562 9.75246 7.94496 9.75075 8.03732C9.74725 8.2264 9.75586 8.39432 9.78501 8.53035C9.81465 8.66864 9.85264 8.71325 9.86022 8.72064L9.8604 8.72082C9.86219 8.72257 9.86614 8.72646 9.88023 8.7317C9.89693 8.73792 9.93927 8.75 10.0204 8.75V8.75009C10.4867 8.75429 10.8969 8.90289 11.207 9.20502C11.5041 9.4945 11.638 9.85614 11.7021 10.1554C11.7667 10.4568 11.7737 10.7577 11.7694 10.9904C11.7672 11.1089 11.7618 11.2192 11.7574 11.3072L11.7574 11.3075C11.7526 11.4035 11.75 11.4603 11.75 11.5C11.75 11.8614 11.6611 12.3032 11.3574 12.6676C11.0337 13.0561 10.5554 13.25 10 13.25C9.44465 13.25 8.96632 13.0561 8.64259 12.6676C8.33891 12.3032 8.25001 11.8614 8.25001 11.5C8.25001 11.0858 8.58579 10.75 9.00001 10.75C9.41422 10.75 9.75001 11.0858 9.75001 11.5C9.75001 11.6386 9.78611 11.6968 9.79492 11.7074L9.7951 11.7076C9.79715 11.7101 9.80197 11.7159 9.82026 11.7236C9.84174 11.7327 9.89575 11.75 10 11.75C10.1043 11.75 10.1583 11.7327 10.1798 11.7236C10.198 11.7159 10.2029 11.7101 10.2049 11.7076L10.2051 11.7074C10.2139 11.6968 10.25 11.6386 10.25 11.5C10.25 11.4192 10.2546 11.3257 10.2586 11.2466L10.2592 11.2335C10.2637 11.1438 10.268 11.055 10.2697 10.9627C10.2732 10.7736 10.2646 10.6057 10.2354 10.4696C10.2058 10.3314 10.1678 10.2867 10.1602 10.2794C10.1585 10.2777 10.1548 10.2737 10.1402 10.2683C10.1235 10.2621 10.0811 10.25 10 10.25V10.2499C9.53376 10.2457 9.1235 10.0971 8.81342 9.79498C8.51631 9.5055 8.38243 9.14386 8.31831 8.84465C8.25371 8.54318 8.2467 8.24235 8.25101 8.00955C8.2532 7.89111 8.25866 7.78077 8.26301 7.69275L8.26302 7.69245C8.26777 7.59646 8.27041 7.53971 8.27041 7.5C8.27041 7.13857 8.35931 6.69678 8.66299 6.33236ZM12.663 6.33236C12.9867 5.94388 13.465 5.75 14.0204 5.75C14.5758 5.75 15.0541 5.94388 15.3778 6.33236C15.6815 6.69678 15.7704 7.13857 15.7704 7.5C15.7704 7.91421 15.4346 8.25 15.0204 8.25C14.6062 8.25 14.2704 7.91421 14.2704 7.5C14.2704 7.36143 14.2343 7.30322 14.2255 7.29264C14.2235 7.2903 14.219 7.28437 14.2002 7.27637C14.1787 7.26726 14.1247 7.25 14.0204 7.25C13.9162 7.25 13.8621 7.26726 13.8407 7.27637C13.8218 7.28437 13.8173 7.2903 13.8153 7.29264C13.8065 7.30322 13.7704 7.36143 13.7704 7.5C13.7704 7.58076 13.7658 7.67426 13.7618 7.75336L13.7612 7.76653C13.7568 7.8562 13.7525 7.94496 13.7507 8.03732C13.7472 8.2264 13.7559 8.39432 13.785 8.53035C13.8146 8.66864 13.8526 8.71325 13.8602 8.72064C13.8619 8.72229 13.8656 8.72626 13.8802 8.7317C13.8969 8.73792 13.9393 8.75 14.0204 8.75V8.75009C14.4867 8.75429 14.8969 8.90289 15.207 9.20502C15.5041 9.4945 15.638 9.85614 15.7021 10.1554C15.7667 10.4568 15.7737 10.7577 15.7694 10.9904C15.7672 11.1089 15.7618 11.2192 15.7574 11.3072L15.7574 11.3075C15.7526 11.4035 15.75 11.4603 15.75 11.5C15.75 11.8614 15.6611 12.3032 15.3574 12.6676C15.0337 13.0561 14.5554 13.25 14 13.25C13.4446 13.25 12.9663 13.0561 12.6426 12.6676C12.3389 12.3032 12.25 11.8614 12.25 11.5C12.25 11.0858 12.5858 10.75 13 10.75C13.4142 10.75 13.75 11.0858 13.75 11.5C13.75 11.6386 13.7861 11.6968 13.7949 11.7074C13.7969 11.7097 13.8014 11.7156 13.8203 11.7236C13.8417 11.7327 13.8958 11.75 14 11.75C14.1043 11.75 14.1583 11.7327 14.1798 11.7236C14.1986 11.7156 14.2031 11.7097 14.2051 11.7074C14.2139 11.6968 14.25 11.6386 14.25 11.5C14.25 11.4192 14.2546 11.3257 14.2586 11.2466L14.2592 11.2335C14.2637 11.1438 14.268 11.055 14.2697 10.9627C14.2732 10.7736 14.2646 10.6057 14.2354 10.4696C14.2058 10.3314 14.1678 10.2867 14.1602 10.2794C14.1585 10.2777 14.1548 10.2737 14.1402 10.2683C14.1235 10.2621 14.0811 10.25 14 10.25V10.2499C13.5338 10.2457 13.1235 10.0971 12.8134 9.79498C12.5163 9.5055 12.3824 9.14386 12.3183 8.84465C12.2537 8.54318 12.2467 8.24235 12.251 8.00955C12.2532 7.89114 12.2587 7.78083 12.263 7.69282L12.263 7.69245C12.2678 7.59646 12.2704 7.53971 12.2704 7.5C12.2704 7.13857 12.3593 6.69678 12.663 6.33236Z" fill="black"/>
</svg>
