<svg width="16" height="16" viewBox="0 0 16 16" fill="none" xmlns="http://www.w3.org/2000/svg">
<path fill-rule="nonzero" clip-rule="nonzero" d="M8.20726 0.129583C8.46706 0.205238 8.66501 0.416426 8.72371 0.680576L9.92292 6.07703L15.3194 7.27624C15.5836 7.33494 15.7948 7.53288 15.8704 7.79269C15.9461 8.05249 15.8742 8.33287 15.6828 8.52421L8.52427 15.6828C8.34503 15.862 8.08665 15.9373 7.8392 15.8823L1.98214 14.5807C1.70114 14.5183 1.48168 14.2988 1.41923 14.0178L0.117674 8.1608C0.0626867 7.91336 0.137929 7.65497 0.317168 7.47573L7.47574 0.317164C7.66708 0.125826 7.94746 0.0539287 8.20726 0.129583ZM8.48951 6.46196L7.56922 2.32064L1.65343 8.23644L2.57372 12.3777L8.48951 6.46196ZM3.62221 13.4262L7.76357 14.3465L13.6794 8.43073L9.538 7.51044L3.62221 13.4262Z" fill="black"/>
</svg>
