<svg width="16" height="16" viewBox="0 0 16 16" fill="none" xmlns="http://www.w3.org/2000/svg">
<path fill-rule="nonzero" clip-rule="nonzero" d="M5.46619 2.00322C5.46619 1.44916 5.91535 1 6.46941 1H9.47907C10.0331 1 10.4823 1.44915 10.4823 2.00322V5.01288C10.4823 5.09948 10.4713 5.18352 10.4507 5.26368C10.4713 5.34385 10.4823 5.42789 10.4823 5.51449V8.02254H11.7363V6.0161C11.7363 5.60055 12.0732 5.26368 12.4887 5.26368C12.9043 5.26368 13.2411 5.60055 13.2411 6.0161V8.02254H15.2476C15.6631 8.02254 16 8.35941 16 8.77495C16 9.1905 15.6631 9.52737 15.2476 9.52737H13.2113C13.0634 11.3518 12.3727 12.8078 11.2779 13.8375C10.045 14.9972 8.37374 15.5467 6.59481 15.5467C4.97058 15.5467 3.43674 15.0891 2.24224 14.1255C1.03896 13.1549 0.236443 11.7155 0.0125343 9.86728C-0.115917 8.80699 0.763545 8.02254 1.70412 8.02254H1.95492V5.51449C1.95492 4.96043 2.40408 4.51127 2.95814 4.51127H5.46619V2.00322ZM5.46619 6.0161H3.45975V8.02254H5.46619V6.0161ZM1.70412 9.52737C1.63196 9.52737 1.57447 9.55683 1.54064 9.59191C1.51066 9.62299 1.50235 9.65252 1.50644 9.68629C1.68777 11.1831 2.31696 12.2524 3.18705 12.9543C4.06593 13.6632 5.24713 14.0419 6.59481 14.0419C8.071 14.0419 9.34667 13.5882 10.2469 12.7414C11.0115 12.0222 11.5598 10.9686 11.7007 9.52737H1.70412ZM6.97102 8.02254H8.97746V6.0161H6.97102V8.02254ZM6.97102 4.51127H8.97746V2.50483H6.97102V4.51127Z" fill="black"/>
</svg>
