<svg width="16" height="16" viewBox="0 0 16 16" fill="none" xmlns="http://www.w3.org/2000/svg">
<path fill-rule="evenodd" clip-rule="evenodd" d="M8.17742 0C8.60499 0 8.95161 0.346618 8.95161 0.774194C8.95161 1.10989 9.14228 1.59502 9.59357 2.29259C9.91923 2.79597 10.3215 3.32549 10.7653 3.90964C10.9218 4.11569 11.0835 4.32854 11.2489 4.54944C12.4559 6.16224 13.8548 8.18889 13.8548 10.4086C13.8548 12.2293 13.1517 13.6492 12.0576 14.6046C10.9788 15.5468 9.56452 16 8.17742 16C6.79032 16 5.37602 15.5468 4.29721 14.6046C3.20313 13.6492 2.5 12.2293 2.5 10.4086C2.5 8.18889 3.89892 6.16224 5.10598 4.54944C5.27131 4.32854 5.43301 4.11569 5.58955 3.90964C6.03333 3.32549 6.43561 2.79597 6.76127 2.29259C7.21256 1.59502 7.40323 1.10989 7.40323 0.774194C7.40323 0.346618 7.74984 0 8.17742 0ZM8.17742 2.95048C8.13918 3.01215 8.10041 3.07322 8.06131 3.13365C7.70104 3.69053 7.24664 4.28853 6.79165 4.88731C6.64193 5.08434 6.49215 5.28146 6.34563 5.47722C5.10108 7.14012 4.04839 8.77455 4.04839 10.4086C4.04839 11.7994 4.57106 12.7881 5.3157 13.4384C6.07559 14.102 7.11291 14.4516 8.17742 14.4516C9.24193 14.4516 10.2792 14.102 11.0391 13.4384C11.7838 12.7881 12.3065 11.7994 12.3065 10.4086C12.3065 8.77455 11.2538 7.14012 10.0092 5.47722C9.86269 5.28146 9.71291 5.08434 9.56319 4.88731C9.10819 4.28853 8.6538 3.69053 8.29352 3.13365C8.25443 3.07322 8.21566 3.01215 8.17742 2.95048ZM6.1129 9.80645C6.54048 9.80645 6.8871 10.1531 6.8871 10.5806C6.8871 10.845 7.02706 11.1741 7.3055 11.4526C7.58394 11.731 7.91308 11.871 8.17742 11.871C8.60499 11.871 8.95161 12.2176 8.95161 12.6452C8.95161 13.0727 8.60499 13.4194 8.17742 13.4194C7.4095 13.4194 6.70638 13.0432 6.21063 12.5474C5.71488 12.0517 5.33871 11.3486 5.33871 10.5806C5.33871 10.1531 5.68533 9.80645 6.1129 9.80645Z" fill="black"/>
</svg>
