<svg width="16" height="16" viewBox="0 0 16 16" fill="none" xmlns="http://www.w3.org/2000/svg">
<path fill-rule="nonzero" clip-rule="nonzero" d="M2.62865 1.58126L4.72709 3.67969H9.79166L7.69322 1.58126H2.62865ZM9.78803 1.58126L14.4187 6.21198V1.82813C14.4187 1.69179 14.3082 1.58126 14.1719 1.58126H9.78803ZM14.112 8.00001L11.5797 5.46772L9.0474 8.00001L11.5797 10.5323L14.112 8.00001ZM12.6271 11.5797L14.4187 13.3714V9.78803L12.6271 11.5797ZM13.3713 14.4188L8 9.04741L2.62865 14.4188H13.3713ZM1.58125 13.3714L6.9526 8.00001L1.58125 2.62866V13.3714ZM8 6.9526L9.79166 5.16094H6.20834L8 6.9526ZM0.0999985 1.82813C0.0999985 0.873713 0.873707 0.100006 1.82812 0.100006H14.1719C15.1263 0.100006 15.9 0.873714 15.9 1.82813V14.1719C15.9 15.1263 15.1263 15.9 14.1719 15.9H1.82812C0.873706 15.9 0.0999985 15.1263 0.0999985 14.1719V1.82813Z" fill="black"/>
</svg>
