<svg width="16" height="16" viewBox="0 0 16 16" fill="none" xmlns="http://www.w3.org/2000/svg"><path d="M4.671 1.065 C 4.278 1.162,3.903 1.400,3.624 1.728 C 3.446 1.938,0.499 7.105,0.414 7.357 C 0.273 7.775,0.273 8.225,0.414 8.643 C 0.499 8.895,3.446 14.062,3.624 14.272 C 3.815 14.497,4.020 14.657,4.280 14.785 C 4.736 15.008,4.527 14.995,7.773 15.006 C 9.646 15.013,10.761 15.007,10.961 14.988 C 11.566 14.934,11.996 14.717,12.369 14.279 C 12.552 14.065,15.498 8.904,15.586 8.643 C 15.726 8.231,15.726 7.770,15.587 7.359 C 15.498 7.096,12.553 1.936,12.369 1.721 C 12.113 1.421,11.835 1.231,11.440 1.089 L 11.267 1.027 8.067 1.022 C 5.059 1.017,4.855 1.020,4.671 1.065 M11.061 2.557 C 11.115 2.585,11.181 2.630,11.206 2.658 C 11.231 2.686,11.912 3.866,12.719 5.280 C 14.174 7.827,14.187 7.851,14.187 7.998 C 14.187 8.145,14.174 8.169,12.708 10.735 C 11.894 12.158,11.207 13.342,11.181 13.365 C 11.027 13.500,11.188 13.493,8.000 13.493 C 5.146 13.493,5.034 13.491,4.939 13.443 C 4.885 13.415,4.819 13.370,4.794 13.342 C 4.769 13.314,4.088 12.134,3.281 10.720 C 1.816 8.155,1.813 8.150,1.813 7.999 C 1.813 7.848,1.816 7.842,3.282 5.277 C 4.089 3.864,4.770 2.685,4.795 2.657 C 4.820 2.630,4.882 2.586,4.933 2.558 C 5.023 2.511,5.158 2.509,7.994 2.508 C 10.855 2.507,10.966 2.508,11.061 2.557 M7.730 4.323 C 7.633 4.335,7.459 4.379,7.343 4.420 C 7.129 4.496,5.645 5.324,5.347 5.534 C 4.940 5.820,4.648 6.263,4.546 6.749 C 4.489 7.022,4.489 8.978,4.546 9.251 C 4.648 9.737,4.940 10.180,5.347 10.466 C 5.641 10.673,7.129 11.504,7.339 11.578 C 7.761 11.728,8.238 11.728,8.658 11.579 C 8.854 11.510,10.307 10.703,10.640 10.478 C 10.928 10.285,11.201 9.946,11.344 9.605 C 11.481 9.280,11.493 9.152,11.493 8.000 C 11.493 6.848,11.481 6.720,11.344 6.395 C 11.201 6.054,10.928 5.715,10.640 5.522 C 10.310 5.299,8.854 4.490,8.661 4.422 C 8.547 4.381,8.356 4.336,8.235 4.321 C 7.991 4.290,7.981 4.290,7.730 4.323 M8.940 6.263 C 9.374 6.511,9.765 6.739,9.809 6.770 C 9.853 6.801,9.914 6.879,9.944 6.942 C 9.998 7.052,10.000 7.098,10.000 8.000 C 10.000 8.902,9.998 8.948,9.944 9.058 C 9.914 9.121,9.853 9.199,9.809 9.230 C 9.765 9.261,9.374 9.489,8.940 9.737 C 8.174 10.174,8.147 10.187,7.999 10.187 C 7.852 10.187,7.826 10.174,7.077 9.745 C 6.110 9.191,6.125 9.201,6.057 9.060 C 6.002 8.948,6.000 8.907,6.000 8.000 C 6.000 7.093,6.002 7.052,6.057 6.940 C 6.125 6.799,6.110 6.809,7.077 6.255 C 7.826 5.826,7.852 5.813,7.999 5.813 C 8.147 5.813,8.174 5.826,8.940 6.263 " stroke="none" fill="black" fill-rule="evenodd"></path></svg>