<svg width="16" height="16" viewBox="0 0 16 16" fill="none" xmlns="http://www.w3.org/2000/svg">
<path fill-rule="evenodd" clip-rule="evenodd" d="M15.1011 3.05618L10.427 0.239701H10.367C10.1273 0.0799004 9.84769 0 9.52809 0C9.20849 0 8.90886 0.0799004 8.62921 0.239701L0.898876 4.79401C0.619226 4.95381 0.399501 5.17353 0.2397 5.45318C0.0799001 5.73284 0 6.01249 0 6.29214V11.3258C0 11.6454 0.0799001 11.9451 0.2397 12.2247C0.399501 12.5044 0.619226 12.7041 0.898876 12.824L5.57303 15.5805C5.85268 15.7403 6.15231 15.8202 6.47191 15.8202C6.79151 15.8202 7.09114 15.7403 7.37079 15.5805L15.1011 11.0861C15.3808 10.9263 15.6005 10.7066 15.7603 10.427C15.9201 10.1473 16 9.84769 16 9.52809V4.55431C16 4.23471 15.9201 3.95506 15.7603 3.71536C15.6005 3.43571 15.3808 3.21598 15.1011 3.05618ZM2.21723 5.75281L9.40824 1.55805C9.48814 1.5181 9.56804 1.5181 9.64794 1.55805L13.7228 3.95506L6.59176 8.08989C6.51186 8.16979 6.43196 8.16979 6.35206 8.08989L2.21723 5.75281ZM5.69288 13.9625L1.61798 11.5655C1.53808 11.5256 1.49813 11.4457 1.49813 11.3258V7.01124L5.69288 9.46817V13.9625ZM7.25094 9.46817L7.37079 9.40824L14.5019 5.27341V9.58802C14.5019 9.66792 14.4419 9.72784 14.3221 9.76779L7.25094 13.9625V9.46817Z" fill="black"/>
</svg>
