<svg width="16" height="16" viewBox="0 0 16 16" fill="none" xmlns="http://www.w3.org/2000/svg">
<path fill-rule="nonzero" clip-rule="nonzero" d="M1.75 2.5C1.6837 2.5 1.62011 2.52634 1.57322 2.57322C1.52634 2.62011 1.5 2.6837 1.5 2.75V13.25C1.5 13.3876 1.61243 13.5 1.75 13.5H14.25C14.3163 13.5 14.3799 13.4737 14.4268 13.4268C14.4737 13.3799 14.5 13.3163 14.5 13.25V4.75C14.5 4.6837 14.4737 4.62011 14.4268 4.57322C14.3799 4.52634 14.3163 4.5 14.25 4.5H7.75C7.47832 4.5 7.21037 4.43675 6.96738 4.31525C6.72438 4.19375 6.51301 4.01734 6.35 3.8L5.45 2.6C5.40328 2.53771 5.32786 2.5 5.25 2.5H1.75ZM0.512563 1.51256C0.840752 1.18437 1.28587 1 1.75 1H5.25C5.8 1 6.32 1.26 6.65 1.7L7.55 2.9C7.57329 2.93105 7.60348 2.95625 7.6382 2.97361C7.67291 2.99096 7.71119 3 7.75 3H14.25C14.7141 3 15.1592 3.18437 15.4874 3.51256C15.8156 3.84075 16 4.28587 16 4.75V13.25C16 13.7141 15.8156 14.1592 15.4874 14.4874C15.1592 14.8156 14.7141 15 14.25 15H1.75C0.784 15 0 14.216 0 13.25V2.75C0 2.28587 0.184374 1.84075 0.512563 1.51256Z" fill="black"/>
</svg>
