<svg width="16" height="16" viewBox="0 0 16 16" fill="none" xmlns="http://www.w3.org/2000/svg">
<path fill-rule="nonzero" clip-rule="nonzero" d="M4.12903 5.54839C2.70378 5.54839 1.54839 6.70378 1.54839 8.12903C1.54839 9.55428 2.70378 10.7097 4.12903 10.7097C5.28455 10.7097 6.26269 9.95022 6.59153 8.90323H4.64516C4.21759 8.90323 3.87097 8.55661 3.87097 8.12903C3.87097 7.70146 4.21759 7.35484 4.64516 7.35484H7.8144C8.17678 5.44449 9.85518 4 11.871 4C14.1514 4 16 5.84863 16 8.12903C16 10.4094 14.1514 12.2581 11.871 12.2581C10.0971 12.2581 8.58443 11.1394 8 9.56909C7.41558 11.1394 5.90294 12.2581 4.12903 12.2581C1.84863 12.2581 0 10.4094 0 8.12903C0 5.84863 1.84863 4 4.12903 4C4.94646 4 5.71059 4.23833 6.35292 4.64957C6.71302 4.88011 6.81804 5.35892 6.5875 5.71902C6.35695 6.07912 5.87814 6.18414 5.51805 5.9536C5.11749 5.69715 4.64182 5.54839 4.12903 5.54839ZM11.871 5.54839C10.4457 5.54839 9.29032 6.70378 9.29032 8.12903C9.29032 9.55428 10.4457 10.7097 11.871 10.7097C13.2962 10.7097 14.4516 9.55428 14.4516 8.12903C14.4516 6.70378 13.2962 5.54839 11.871 5.54839Z" fill="black"/>
</svg>
