<svg width="16" height="16" viewBox="0 0 16 16" fill="none" xmlns="http://www.w3.org/2000/svg">
<path fill-rule="evenodd" clip-rule="evenodd" d="M11.6825 4.52381C10.1396 4.52381 8.88889 5.77457 8.88889 7.31746C8.88889 8.86035 10.1396 10.1111 11.6825 10.1111C13.2254 10.1111 14.4762 8.86035 14.4762 7.31746C14.4762 5.77457 13.2254 4.52381 11.6825 4.52381ZM7.36508 7.31746C7.36508 4.93299 9.29807 3 11.6825 3C14.067 3 16 4.93299 16 7.31746C16 9.70193 14.067 11.6349 11.6825 11.6349C9.29807 11.6349 7.36508 9.70193 7.36508 7.31746Z" fill="black"/>
<path fill-rule="evenodd" clip-rule="evenodd" d="M8.12698 8.07937H3.55556V6.55556H8.12698V8.07937Z" fill="black"/>
<path d="M4.06349 7.31746C4.06349 8.15904 3.38126 8.84127 2.53968 8.84127C1.69811 8.84127 1.01587 8.15904 1.01587 7.31746C1.01587 6.47588 1.69811 5.79365 2.53968 5.79365C3.38126 5.79365 4.06349 6.47588 4.06349 7.31746Z" fill="black"/>
<path fill-rule="evenodd" clip-rule="evenodd" d="M2.53968 6.80952C2.25916 6.80952 2.03175 7.03693 2.03175 7.31746C2.03175 7.59799 2.25916 7.8254 2.53968 7.8254C2.82021 7.8254 3.04762 7.59799 3.04762 7.31746C3.04762 7.03693 2.82021 6.80952 2.53968 6.80952ZM0 7.31746C0 5.91483 1.13705 4.77778 2.53968 4.77778C3.94231 4.77778 5.07937 5.91483 5.07937 7.31746C5.07937 8.72009 3.94231 9.85714 2.53968 9.85714C1.13705 9.85714 0 8.72009 0 7.31746Z" fill="black"/>
</svg>
