<svg width="16" height="16" viewBox="0 0 16 16" fill="none" xmlns="http://www.w3.org/2000/svg">
<path fill-rule="evenodd" clip-rule="evenodd" d="M8 2.25C4.82436 2.25 2.25 4.82436 2.25 8C2.25 11.1756 4.82436 13.75 8 13.75C11.1756 13.75 13.75 11.1756 13.75 8C13.75 7.81089 13.7409 7.62413 13.7231 7.4401C13.6834 7.0278 13.9854 6.66132 14.3977 6.62154C14.81 6.58176 15.1764 6.88375 15.2162 7.29605C15.2386 7.52789 15.25 7.76272 15.25 8C15.25 12.0041 12.0041 15.25 8 15.25C3.99594 15.25 0.75 12.0041 0.75 8C0.75 3.99594 3.99594 0.75 8 0.75C9.3656 0.75 10.6451 1.12828 11.737 1.78618C12.0918 1.99996 12.2061 2.46087 11.9923 2.81565C11.7785 3.17043 11.3176 3.28474 10.9628 3.07097C10.0981 2.54992 9.08522 2.25 8 2.25Z" fill="black"/>
<path fill-rule="evenodd" clip-rule="evenodd" d="M8 10C6.89543 10 6 9.10457 6 8C6 6.89543 6.89543 6 8 6C9.10457 6 10 6.89543 10 8C10 9.10457 9.10457 10 8 10ZM8 11.5C9.933 11.5 11.5 9.933 11.5 8C11.5 6.067 9.933 4.5 8 4.5C6.067 4.5 4.5 6.067 4.5 8C4.5 9.933 6.067 11.5 8 11.5Z" fill="black"/>
<path fill-rule="evenodd" clip-rule="evenodd" d="M13.5 4.5C14.0523 4.5 14.5 4.05228 14.5 3.5C14.5 2.94772 14.0523 2.5 13.5 2.5C12.9477 2.5 12.5 2.94772 12.5 3.5C12.5 4.05228 12.9477 4.5 13.5 4.5ZM13.5 6C14.8807 6 16 4.88071 16 3.5C16 2.11929 14.8807 1 13.5 1C12.1193 1 11 2.11929 11 3.5C11 4.88071 12.1193 6 13.5 6Z" fill="black"/>
</svg>
