<svg width="16" height="16" fill="none" xmlns="http://www.w3.org/2000/svg">
  <path d="M8 1.5c.084 0 .167.002.25.005v.002h.07a6.468 6.468 0 012.22.508c.097.051.189.106.277.164.617.402 1.066.967 1.383 1.623.644 1.335.71 2.985.557 4.101-.271 1.899-1.09 2.822-1.907 3.273a3.23 3.23 0 01-.394.184C11.054 10.567 11.5 9.466 11.5 8c0-3.195-2.118-4.65-3.303-4.974l-.017-.004-.017-.004c-.888-.197-2.245-.185-3.488.5-1.283.708-2.339 2.076-2.667 4.376l-.001.004c-.1.73-.126 1.672.014 2.657A6.5 6.5 0 018 1.5zM8.364.008a8 8 0 102.816.649C10.4.255 9.465.023 8.364.008zm5.956 6.465a6.5 6.5 0 01-6.893 8.002c-.84-.075-1.488-.317-1.994-.646-.618-.403-1.066-.968-1.383-1.624-.644-1.335-.71-2.985-.557-4.1.271-1.9 1.09-2.823 1.907-3.273.13-.072.261-.133.394-.184-.597.792-1.044 1.892-1.044 3.36 0 3.195 2.118 4.65 3.303 4.973l.017.005.017.003c.888.198 2.245.186 3.488-.5 1.283-.708 2.339-2.075 2.668-4.376V8.11a9.565 9.565 0 00.077-1.637zM8.133 4.6C8.867 4.954 10 5.943 10 8c0 2.072-1.15 3.06-1.883 3.407-.734-.354-1.867-1.342-1.867-3.4 0-2.071 1.15-3.06 1.883-3.407z" fill="#000"/>
</svg>
