<svg width="16" height="16" viewBox="0 0 16 16" fill="none" xmlns="http://www.w3.org/2000/svg">
<path fill-rule="evenodd" clip-rule="evenodd" d="M0 2.96491C0 1.87972 0.879721 1 1.96491 1H4.77193C5.85712 1 6.73684 1.87972 6.73684 2.96491V3.52632C6.73684 4.61151 5.85712 5.49123 4.77193 5.49123H1.96491C0.879721 5.49123 0 4.61151 0 3.52632V2.96491ZM1.96491 2.68421C1.80989 2.68421 1.68421 2.80989 1.68421 2.96491V3.52632C1.68421 3.68134 1.80989 3.80702 1.96491 3.80702H4.77193C4.92696 3.80702 5.05263 3.68134 5.05263 3.52632V2.96491C5.05263 2.80988 4.92696 2.68421 4.77193 2.68421H1.96491Z" fill="black"/>
<path fill-rule="evenodd" clip-rule="evenodd" d="M8.14035 3.24561C8.14035 2.78053 8.51737 2.40351 8.98246 2.40351H15.1579C15.623 2.40351 16 2.78053 16 3.24561C16 3.7107 15.623 4.08772 15.1579 4.08772H8.98246C8.51737 4.08772 8.14035 3.7107 8.14035 3.24561Z" fill="black"/>
<path fill-rule="evenodd" clip-rule="evenodd" d="M0.280702 8.29825C0.280702 7.83316 0.657725 7.45614 1.12281 7.45614H11.7895C12.2546 7.45614 12.6316 7.83316 12.6316 8.29825C12.6316 8.76333 12.2546 9.14035 11.7895 9.14035H1.12281C0.657725 9.14035 0.280702 8.76333 0.280702 8.29825Z" fill="black"/>
<path fill-rule="evenodd" clip-rule="evenodd" d="M0.280702 13.3509C0.280702 12.8858 0.657725 12.5088 1.12281 12.5088H14.5965C15.0616 12.5088 15.4386 12.8858 15.4386 13.3509C15.4386 13.816 15.0616 14.193 14.5965 14.193H1.12281C0.657725 14.193 0.280702 13.816 0.280702 13.3509Z" fill="black"/>
<path d="M14.8772 9.14035C15.3423 9.14035 15.7193 8.76333 15.7193 8.29825C15.7193 7.83316 15.3423 7.45614 14.8772 7.45614C14.4121 7.45614 14.0351 7.83316 14.0351 8.29825C14.0351 8.76333 14.4121 9.14035 14.8772 9.14035Z" fill="black"/>
</svg>
