<svg width="16" height="16" viewBox="0 0 16 16" fill="none" xmlns="http://www.w3.org/2000/svg">
<path fill-rule="evenodd" clip-rule="evenodd" d="M1.25 2C1.25 1.58579 1.58579 1.25 2 1.25H14C14.3033 1.25 14.5768 1.43273 14.6929 1.71299C14.809 1.99324 14.7448 2.31583 14.5303 2.53033L9.06066 8L14.5303 13.4697C14.7448 13.6842 14.809 14.0068 14.6929 14.287C14.5768 14.5673 14.3033 14.75 14 14.75H2C1.58579 14.75 1.25 14.4142 1.25 14V2ZM2.75 2.75V13.25H12.1893L7.46967 8.53033C7.17678 8.23744 7.17678 7.76256 7.46967 7.46967L12.1893 2.75H2.75Z" fill="black"/>
</svg>
