<svg width="16" height="16" viewBox="0 0 16 16" fill="none" xmlns="http://www.w3.org/2000/svg">
<path fill-rule="nonzero" clip-rule="nonzero" d="M1.5 1.75C1.5 1.33579 1.83579 1 2.25 1H13.9688C14.2721 1 14.5456 1.18273 14.6617 1.46299C14.7777 1.74324 14.7136 2.06583 14.4991 2.28033L9.17004 7.60938L15.2803 13.7197C15.4948 13.9342 15.559 14.2568 15.4429 14.537C15.3268 14.8173 15.0533 15 14.75 15H2.25C1.83579 15 1.5 14.6642 1.5 14.25V1.75ZM8.10938 8.67004L3.27941 13.5H12.9393L8.10938 8.67004ZM3 11.6581L12.1581 2.5H3V11.6581Z" fill="black"/>
</svg>
