<svg width="16" height="16" fill="none" xmlns="http://www.w3.org/2000/svg">
  <path d="M2.687 3.21l5.062 4.117c-.477.099-.837.53-.837 1.045 0 .133.024.26.067.377L1.706 4.462a.81.81 0 01-.124-1.126.776.776 0 011.105-.126z" fill="#000"/>
  <path d="M7.482 9.322L1.06 10.808a.786.786 0 01-.94-.603.801.801 0 01.592-.958L7.095 7.77a1.076 1.076 0 00-.183.602c0 .414.232.773.57.95z" fill="#000"/>
  <path d="M8.429 9.327l-2.905 6.12a.78.78 0 01-1.05.373.807.807 0 01-.365-1.07l2.86-6.028c.143.418.533.718.991.718.169 0 .328-.04.469-.113z" fill="#000"/>
  <path d="M8.97 8.66l2.89 6.09a.807.807 0 01-.365 1.07.78.78 0 01-1.05-.372l-2.89-6.091c.124.053.261.083.405.083.481 0 .886-.33 1.01-.78z" fill="#000"/>
  <path d="M8.462 9.31a1.07 1.07 0 00.546-.938c0-.233-.073-.448-.198-.624l6.478 1.499a.8.8 0 01.592.958.786.786 0 01-.94.603L8.462 9.31zM8.746.9v6.766a1.037 1.037 0 00-1.572 0V.901c0-.443.352-.801.786-.801.434 0 .786.358.786.8z" fill="#000"/>
  <path d="M13.234 3.21a.776.776 0 011.104.126.81.81 0 01-.123 1.126L8.94 8.749c.043-.117.067-.244.067-.377 0-.516-.36-.946-.837-1.045l5.063-4.117z" fill="#000"/>
  <path d="M7.96 3.302c-2.75 0-4.978 2.27-4.978 5.07 0 2.8 2.229 5.07 4.978 5.07 2.75 0 4.978-2.27 4.978-5.07 0-2.8-2.229-5.07-4.978-5.07zm-6.55 5.07c0-3.684 2.933-6.67 6.55-6.67 3.618 0 6.55 2.986 6.55 6.67 0 3.685-2.932 6.671-6.55 6.671-3.617 0-6.55-2.986-6.55-6.67z" fill="#000"/>
</svg>
