<svg width="16" height="16" fill="none" xmlns="http://www.w3.org/2000/svg">
  <path d="M3.259 12.714a5.727 5.727 0 008.147 0 5.845 5.845 0 000-8.217 5.727 5.727 0 00-8.147 0 5.845 5.845 0 000 8.217zm-1.111 1.12c-2.864-2.887-2.864-7.57 0-10.457a7.289 7.289 0 0110.369 0c2.863 2.888 2.863 7.57 0 10.457a7.289 7.289 0 01-10.37 0zM15.54 2.705a1.562 1.562 0 01-2.222 0 1.594 1.594 0 010-2.24 1.562 1.562 0 012.222 0 1.594 1.594 0 010 2.24z" fill="#000"/>
  <path d="M11.844 8.673a3.124 3.124 0 01-4.444 0 3.188 3.188 0 010-4.481 3.124 3.124 0 014.444 0 3.188 3.188 0 010 4.481zM8.51 7.553a1.562 1.562 0 002.222 0 1.594 1.594 0 000-2.24 1.562 1.562 0 00-2.222 0 1.594 1.594 0 000 2.24z" fill="#000"/>
</svg>
