<svg width="16" height="16" viewBox="0 0 16 16" fill="none" xmlns="http://www.w3.org/2000/svg">
<path fill-rule="nonzero" clip-rule="nonzero" d="M9.99877 2.16014C9.71156 2.63517 9.5186 3.33735 9.40279 4.17003C9.36074 4.47236 9.14507 4.72 8.8548 4.79923C8.50312 4.89524 7.94701 5.143 7.49381 5.54927C7.05199 5.94535 6.75 6.44889 6.75 7.09316C6.75 7.51394 6.41421 7.85506 6 7.85506C5.58579 7.85506 5.25 7.51394 5.25 7.09316V3.35581C5.21547 3.1973 5.13267 2.9726 4.99855 2.79487C4.86302 2.61529 4.71082 2.52178 4.5 2.52178C4.28918 2.52178 4.13698 2.61529 4.00145 2.79487C3.85151 2.99355 3.76572 3.25094 3.7398 3.40893C3.67952 3.77631 3.36663 4.04557 3 4.04557H2.01456C1.83423 4.05351 1.67171 4.09501 1.57751 4.15327C1.5377 4.17788 1.52463 4.19643 1.51982 4.20464C1.51666 4.21004 1.5 4.23854 1.5 4.31741C1.5 4.47506 1.52869 4.56448 1.55087 4.61132C1.57217 4.65631 1.59847 4.68572 1.63066 4.70967C1.70862 4.76767 1.84538 4.80747 2 4.80747H3.5C3.91421 4.80747 4.25 5.14858 4.25 5.56936V8.38085C4.25 8.3811 4.25 8.38059 4.25 8.38085L4.25003 8.38258L4.25025 8.38746C4.25049 8.39174 4.25094 8.39763 4.25174 8.40513C4.25336 8.42029 4.25622 8.44026 4.26098 8.4646C4.27058 8.5136 4.28679 8.57471 4.31202 8.64334C4.36272 8.78133 4.44471 8.93605 4.567 9.07953C4.79388 9.34572 5.20884 9.6328 6 9.63281H9.25C9.66421 9.6328 10 9.97392 10 10.3947C10 10.8155 9.66422 11.1566 9.25 11.1566L9.25 12.6546L10.192 14.9441C10.3517 15.3323 10.1714 15.7786 9.78922 15.9409C9.40705 16.1031 8.96774 15.92 8.80801 15.5317L7.80801 13.1012C7.76972 13.0081 7.75 12.9082 7.75 12.8074V11.1566H6.75V15.22C6.75 15.6408 6.41421 15.9819 6 15.9819C5.58579 15.9819 5.25 15.6408 5.25 15.22V11.0913C4.43602 10.9426 3.84007 10.5546 3.433 10.077C2.94029 9.49888 2.75 8.81849 2.75 8.38085V6.33126H2C1.65462 6.33126 1.16638 6.25301 0.74434 5.939C0.282895 5.59567 0 5.04382 0 4.31741C0 3.61779 0.347977 3.12971 0.797494 2.8517C1.20124 2.60201 1.65865 2.53351 1.97363 2.52225C1.98242 2.52194 1.99121 2.52178 2 2.52178H2.44323C2.53179 2.30456 2.65221 2.07821 2.81105 1.86775C3.15468 1.41242 3.71082 0.997992 4.5 0.997992C5.28918 0.997992 5.84532 1.41242 6.18895 1.86775C6.51818 2.30398 6.68238 2.80848 6.7398 3.15842C6.74659 3.19982 6.75 3.24171 6.75 3.28368V4.19919C7.16334 3.87783 7.60424 3.64406 7.99205 3.48838C8.1284 2.73307 8.34926 1.97684 8.7206 1.36265C9.19096 0.58468 9.93263 0 11 0C11.8697 0 12.5351 0.420693 13.0041 1.0259C13.453 1.6051 13.7311 2.3586 13.9104 3.11407C14.2281 4.4531 14.2822 6.00802 14.2613 7.18254C14.4409 7.266 14.7113 7.39608 14.9741 7.61389C15.5928 8.12663 16 8.96783 16 10.3947V15.22C16 15.6408 15.6642 15.9819 15.25 15.9819C14.8358 15.9819 14.5 15.6408 14.5 15.22V10.3947C14.5 9.28193 14.1989 8.93796 14.0259 8.79462C13.911 8.6994 13.7839 8.63621 13.6026 8.5521C13.5969 8.54948 13.5911 8.54678 13.5851 8.54399C13.5066 8.50765 13.3984 8.45761 13.2999 8.40065C13.1928 8.33872 13.0413 8.2382 12.9143 8.07704C12.8022 7.93465 12.7441 7.75612 12.7505 7.57389C12.7915 6.40768 12.7631 4.78159 12.4521 3.47116C12.296 2.81312 12.0835 2.30126 11.8256 1.96848C11.5878 1.6617 11.3303 1.52379 11 1.52379C10.5714 1.52379 10.264 1.72151 9.99877 2.16014ZM11.5 8.10903C11.9142 8.10903 12.25 8.45014 12.25 8.87092C12.25 9.66499 12.43 10.1845 12.6148 10.503C12.7083 10.6641 12.8049 10.7771 12.885 10.8514C12.9251 10.8887 12.9598 10.9151 12.9865 10.9328C13.014 10.951 13.0288 10.9572 13.0285 10.9571C13.3133 11.0728 13.5 11.353 13.5 11.6645V15.22C13.5 15.6408 13.1642 15.9819 12.75 15.9819C12.3358 15.9819 12 15.6408 12 15.22V12.0878C11.3618 11.5738 10.75 10.5212 10.75 8.87092C10.75 8.45014 11.0858 8.10903 11.5 8.10903Z" fill="black"/>
</svg>
