<svg width="16" height="16" viewBox="0 0 16 16" fill="none" xmlns="http://www.w3.org/2000/svg"><path d="M3.707 1.815 C 3.450 1.931,3.282 2.167,3.260 2.442 C 3.235 2.750,3.376 3.005,3.657 3.161 L 3.800 3.240 6.000 3.240 L 8.200 3.240 8.337 3.168 C 8.614 3.022,8.765 2.750,8.740 2.442 C 8.718 2.167,8.550 1.931,8.293 1.815 C 8.176 1.762,8.128 1.761,6.000 1.761 C 3.872 1.761,3.824 1.762,3.707 1.815 M10.740 1.798 C 10.429 1.909,10.208 2.274,10.257 2.595 C 10.300 2.873,10.520 3.136,10.775 3.211 C 10.965 3.268,11.538 3.269,11.726 3.213 C 11.907 3.159,12.108 2.978,12.186 2.796 C 12.259 2.625,12.254 2.340,12.173 2.173 C 12.099 2.021,11.915 1.852,11.769 1.803 C 11.607 1.747,10.891 1.744,10.740 1.798 M3.707 5.309 C 3.110 5.578,3.102 6.402,3.693 6.683 C 3.826 6.746,3.834 6.746,4.749 6.746 L 5.671 6.747 5.835 6.665 C 6.106 6.530,6.247 6.302,6.247 6.000 C 6.247 5.698,6.106 5.470,5.835 5.335 L 5.671 5.253 4.749 5.254 C 3.880 5.254,3.820 5.258,3.707 5.309 M8.293 5.278 C 7.978 5.374,7.761 5.668,7.761 6.000 C 7.761 6.395,8.050 6.709,8.442 6.740 C 8.751 6.765,9.006 6.624,9.160 6.343 C 9.227 6.221,9.238 6.171,9.238 6.000 C 9.238 5.829,9.227 5.779,9.160 5.657 C 9.065 5.483,8.915 5.350,8.752 5.295 C 8.625 5.251,8.407 5.244,8.293 5.278 M11.237 5.296 C 11.083 5.351,10.917 5.502,10.833 5.663 C 10.774 5.776,10.761 5.835,10.761 6.000 C 10.761 6.242,10.841 6.420,11.016 6.569 C 11.224 6.748,11.243 6.750,12.550 6.741 C 13.692 6.734,13.723 6.732,13.827 6.676 C 14.085 6.536,14.239 6.284,14.239 6.000 C 14.239 5.716,14.085 5.464,13.827 5.324 C 13.722 5.268,13.695 5.267,12.533 5.262 C 11.544 5.257,11.328 5.263,11.237 5.296 M3.779 8.785 C 3.426 8.911,3.228 9.211,3.260 9.569 C 3.278 9.763,3.349 9.905,3.499 10.044 C 3.706 10.235,3.761 10.245,4.548 10.235 L 5.240 10.227 5.364 10.154 C 5.700 9.956,5.841 9.532,5.681 9.195 C 5.597 9.017,5.399 8.840,5.225 8.789 C 5.036 8.732,3.934 8.730,3.779 8.785 M7.779 8.785 C 7.426 8.911,7.228 9.211,7.260 9.569 C 7.284 9.836,7.454 10.071,7.707 10.185 C 7.824 10.237,7.874 10.239,9.735 10.239 C 11.881 10.240,11.799 10.247,12.007 10.044 C 12.163 9.893,12.222 9.758,12.235 9.531 C 12.249 9.283,12.178 9.112,11.994 8.946 C 11.765 8.740,11.835 8.747,9.735 8.748 C 8.245 8.749,7.860 8.756,7.779 8.785 M3.808 12.277 C 3.120 12.466,3.065 13.402,3.724 13.700 C 3.817 13.742,3.956 13.747,5.253 13.747 L 6.680 13.747 6.805 13.684 C 7.062 13.557,7.253 13.265,7.253 13.000 C 7.253 12.735,7.062 12.443,6.805 12.316 L 6.680 12.253 5.307 12.248 C 4.252 12.244,3.904 12.250,3.808 12.277 " stroke="none" fill="black" fill-rule="evenodd"></path></svg>