<svg width="16" height="16" viewBox="0 0 16 16" fill="none" xmlns="http://www.w3.org/2000/svg">
<path d="M8.21355 2.04328C8.11615 1.88327 7.88385 1.88327 7.78645 2.04328L2.22242 11.1842C2.14487 11.3116 2.19541 11.4781 2.33069 11.5409L7.89472 14.1242C7.96148 14.1552 8.03851 14.1552 8.10528 14.1242L13.6693 11.5409C13.8046 11.4781 13.8551 11.3116 13.7776 11.1842L8.21355 2.04328ZM6.50515 1.26336C7.18696 0.143242 8.81303 0.143239 9.49485 1.26336L15.0589 10.4043C15.6017 11.2961 15.2479 12.4618 14.301 12.9014L8.73694 15.4847C8.2696 15.7017 7.73039 15.7017 7.26305 15.4847L1.69903 12.9014C0.75207 12.4618 0.398274 11.2961 0.941122 10.4043L6.50515 1.26336Z" fill="black"/>
</svg>
