<svg width="16" height="16" viewBox="0 0 16 16" fill="none" xmlns="http://www.w3.org/2000/svg">
<path fill-rule="nonzero" clip-rule="nonzero" d="M3.26374 4.67179C2.07437 5.39311 1.5 6.28879 1.5 7.14345C1.5 8.36796 2.72381 9.6978 5.04161 10.3828C5.43869 10.5002 5.665 10.9157 5.5471 11.3109C5.42919 11.7061 5.01172 11.9314 4.61464 11.814C2.10351 11.0719 0 9.39599 0 7.14345C0 5.56974 1.04859 4.26693 2.48322 3.39686C3.93102 2.5188 5.88335 2 8 2C11.2455 2 14.2181 3.23463 15.4369 5.22085C15.7934 5.8017 16 6.4515 16 7.14345C16 7.55573 15.6642 7.88994 15.25 7.88994C14.8358 7.88994 14.5 7.55573 14.5 7.14345C14.5 6.75669 14.3864 6.37312 14.1568 5.99904C13.3233 4.64078 10.9839 3.49296 8 3.49296C6.11258 3.49296 4.43991 3.95846 3.26374 4.67179ZM6.78227 6.27021C6.78227 5.85793 7.11806 5.52372 7.53227 5.52372H11.5081C11.5575 5.52372 11.6067 5.52858 11.6552 5.53822C12.3062 5.66782 13.4274 6.34301 13.4274 7.89962C13.4274 9.24114 12.596 10.1587 11.6854 10.2651L13.3134 12.8578C13.533 13.2074 13.4262 13.6679 13.0749 13.8864C12.7237 14.1049 12.261 13.9987 12.0414 13.6491L9.92304 10.2755H8.28227V13.2534C8.28227 13.6657 7.94649 13.9999 7.53227 13.9999C7.11806 13.9999 6.78227 13.6657 6.78227 13.2534V6.27021ZM8.28227 8.78256H11.5081C11.5027 8.78256 11.5057 8.78129 11.515 8.77736C11.5776 8.75076 11.9274 8.60222 11.9274 7.89962C11.9274 7.53065 11.8051 7.3256 11.6924 7.20625C11.5919 7.09978 11.4797 7.04213 11.41 7.01669H8.28227V8.78256Z" fill="black"/>
</svg>
