<svg width="16" height="16" viewBox="0 0 16 16" fill="none" xmlns="http://www.w3.org/2000/svg">
<path fill-rule="nonzero" clip-rule="nonzero" d="M1 2.68966C1 1.75648 1.75648 1 2.68966 1H13.3103C14.2435 1 15 1.75648 15 2.68966V13.3103C15 14.2435 14.2435 15 13.3103 15H2.68966C1.75648 15 1 14.2435 1 13.3103V2.68966ZM2.68966 2.44828C2.55634 2.44828 2.44828 2.55635 2.44828 2.68966V13.3103C2.44828 13.4437 2.55635 13.5517 2.68966 13.5517H13.3103C13.4437 13.5517 13.5517 13.4437 13.5517 13.3103V2.68966C13.5517 2.55634 13.4437 2.44828 13.3103 2.44828H2.68966Z" fill="black"/>
</svg>
