<svg width="16" height="16" fill="none" xmlns="http://www.w3.org/2000/svg">
  <path d="M8 .1c.422 0 .765.342.765.765v.916c.296.035.587.091.87.166l.283-.683a.764.764 0 111.413.585l-.276.665c.287.157.56.335.817.533l.633-.633a.765.765 0 011.081 1.081l-.62.62c.24.298.453.618.637.956l.631-.261a.765.765 0 11.585 1.413l-.654.27c.072.277.126.56.16.849h.81a.765.765 0 010 1.529h-.81a6.334 6.334 0 01-.21 1.027l.664.275a.765.765 0 11-.585 1.413l-.672-.278c-.13.24-.278.471-.44.693l.504.504a.765.765 0 01-1.081 1.081l-.465-.465c-.3.253-.627.48-.978.677l.269.65a.765.765 0 11-1.413.586l-.27-.65a6.332 6.332 0 01-.883.181v.57a.765.765 0 01-1.53 0v-.555a6.386 6.386 0 01-1.087-.218l-.278.672a.765.765 0 11-1.413-.585l.285-.688a6.38 6.38 0 01-.84-.581l-.407.406a.765.765 0 01-1.081-1.081l.428-.428a6.348 6.348 0 01-.459-.703l-.748.31a.765.765 0 01-.585-1.413l.748-.31a6.339 6.339 0 01-.205-1.09H.865a.765.765 0 010-1.53h.762c.044-.298.108-.593.192-.88l-.81-.336a.765.765 0 01.585-1.413l.815.337c.181-.33.39-.643.625-.934l-.62-.62a.765.765 0 011.081-1.081l.633.633c.205-.158.42-.303.645-.435l-.316-.763a.765.765 0 011.413-.585L6.175 2a6.34 6.34 0 011.06-.22V.865C7.235.442 7.578.1 8 .1zm-.765 3.354a4.854 4.854 0 00-3.487 2.36l.61.199a.765.765 0 11-.472 1.454l-.653-.212a4.823 4.823 0 001.294 4.225l.458-.63a.764.764 0 011.237.898l-.47.648A4.818 4.818 0 008 12.948c.812 0 1.577-.2 2.249-.552l-.352-.484a.765.765 0 011.237-.899l.34.467c.349-.36.642-.773.867-1.227a4.843 4.843 0 00.34-2.97l-.567.184a.764.764 0 11-.472-1.454l.5-.163a4.827 4.827 0 00-3.377-2.374v.447a.765.765 0 11-1.53 0v-.469z" fill="#000"/>
</svg>
