<svg width="16" height="16" viewBox="0 0 16 16" fill="none" xmlns="http://www.w3.org/2000/svg">
<path fill-rule="nonzero" clip-rule="nonzero" d="M12.7116 0.261121C12.8936 0.405276 13 0.626454 13 0.860694V12.984C13 13.3331 12.7658 13.6374 12.4319 13.722L3.9319 15.8773C3.70785 15.9341 3.47048 15.883 3.28844 15.7389C3.1064 15.5947 3 15.3736 3 15.1393V3.01595C3 2.6669 3.23422 2.36264 3.5681 2.27798L12.0681 0.122725C12.2922 0.0659134 12.5295 0.116967 12.7116 0.261121ZM4.5 3.60987V5.93326L11.5 4.0474V1.83496L4.5 3.60987ZM11.5 5.62152L4.5 7.50738V10.1239L11.5 8.34901V5.62152ZM11.5 9.9172L4.5 11.6921V14.1651L11.5 12.3901V9.9172Z" fill="black"/>
</svg>
