<svg width="16" height="16" viewBox="0 0 16 16" fill="none" xmlns="http://www.w3.org/2000/svg">
<path fill-rule="evenodd" clip-rule="evenodd" d="M1.5 4C1.5 3.0335 2.2835 2.25 3.25 2.25H13.25C14.2165 2.25 15 3.0335 15 4V10.5C15 10.9142 14.6642 11.25 14.25 11.25C13.8358 11.25 13.5 10.9142 13.5 10.5V4C13.5 3.86193 13.3881 3.75 13.25 3.75H3.25C3.11193 3.75 3 3.86193 3 4V10.5C3 10.9142 2.66421 11.25 2.25 11.25C1.83579 11.25 1.5 10.9142 1.5 10.5V4Z" fill="black"/>
<path d="M2.25 13.5C2.66421 13.5 3 13.1642 3 12.75C3 12.3358 2.66421 12 2.25 12C1.83579 12 1.5 12.3358 1.5 12.75C1.5 13.1642 1.83579 13.5 2.25 13.5Z" fill="black"/>
<path d="M14.25 13.5C14.6642 13.5 15 13.1642 15 12.75C15 12.3358 14.6642 12 14.25 12C13.8358 12 13.5 12.3358 13.5 12.75C13.5 13.1642 13.8358 13.5 14.25 13.5Z" fill="black"/>
<path d="M11.25 13.5C11.6642 13.5 12 13.1642 12 12.75C12 12.3358 11.6642 12 11.25 12C10.8358 12 10.5 12.3358 10.5 12.75C10.5 13.1642 10.8358 13.5 11.25 13.5Z" fill="black"/>
<path d="M5.25 13.5C5.66421 13.5 6 13.1642 6 12.75C6 12.3358 5.66421 12 5.25 12C4.83579 12 4.5 12.3358 4.5 12.75C4.5 13.1642 4.83579 13.5 5.25 13.5Z" fill="black"/>
<path d="M8.25 13.5C8.66421 13.5 9 13.1642 9 12.75C9 12.3358 8.66421 12 8.25 12C7.83579 12 7.5 12.3358 7.5 12.75C7.5 13.1642 7.83579 13.5 8.25 13.5Z" fill="black"/>
</svg>
