<svg width="16" height="16" viewBox="0 0 16 16" fill="none" xmlns="http://www.w3.org/2000/svg">
<path fill-rule="evenodd" clip-rule="evenodd" d="M0 2C0 0.895431 0.895431 0 2 0H14C15.1046 0 16 0.895431 16 2V6C16 7.10457 15.1046 8 14 8H2C0.89543 8 0 7.10457 0 6V2ZM2 1.71429C1.8422 1.71429 1.71429 1.8422 1.71429 2V6C1.71429 6.1578 1.8422 6.28571 2 6.28571H14C14.1578 6.28571 14.2857 6.1578 14.2857 6V2C14.2857 1.8422 14.1578 1.71429 14 1.71429H2ZM0 11.1429C0 10.0383 0.895431 9.14286 2 9.14286H4.85714C5.96171 9.14286 6.85714 10.0383 6.85714 11.1429V14C6.85714 15.1046 5.96171 16 4.85714 16H2C0.89543 16 0 15.1046 0 14V11.1429ZM2 10.8571C1.8422 10.8571 1.71429 10.9851 1.71429 11.1429V14C1.71429 14.1578 1.8422 14.2857 2 14.2857H4.85714C5.01494 14.2857 5.14286 14.1578 5.14286 14V11.1429C5.14286 10.9851 5.01494 10.8571 4.85714 10.8571H2ZM9.14286 11.1429C9.14286 10.0383 10.0383 9.14286 11.1429 9.14286H14C15.1046 9.14286 16 10.0383 16 11.1429V14C16 15.1046 15.1046 16 14 16H11.1429C10.0383 16 9.14286 15.1046 9.14286 14V11.1429ZM11.1429 10.8571C10.9851 10.8571 10.8571 10.9851 10.8571 11.1429V14C10.8571 14.1578 10.9851 14.2857 11.1429 14.2857H14C14.1578 14.2857 14.2857 14.1578 14.2857 14V11.1429C14.2857 10.9851 14.1578 10.8571 14 10.8571H11.1429Z" fill="black"/>
</svg>
