<svg width="16" height="16" viewBox="0 0 16 16" fill="none" xmlns="http://www.w3.org/2000/svg">
<path fill-rule="evenodd" clip-rule="evenodd" d="M12.438 2.94656C13.0222 3.84625 13.0826 4.82176 12.784 5.56064C12.2332 5.04017 11.5732 4.66735 10.8806 4.48388C10.8888 4.33095 10.8504 4.17412 10.7606 4.03584C10.535 3.68845 10.0705 3.58972 9.72314 3.81532L8.0472 4.90369C8.04673 4.90399 8.04627 4.90429 8.0458 4.9046L5.52979 6.53851C5.1824 6.76411 5.08367 7.22861 5.30926 7.57599C5.53486 7.92338 5.99936 8.02212 6.34675 7.79652L8.86347 6.16214C8.86323 6.16229 8.86371 6.16198 8.86347 6.16214C9.81822 5.54278 11.3592 5.87563 12.2475 7.24351C13.1361 8.61173 12.813 10.1553 11.8583 10.7753L6.82625 14.0431C5.87156 14.6631 4.33001 14.3304 3.44148 12.9622C2.85722 12.0625 2.79684 11.087 3.09545 10.3481C3.64623 10.8686 4.30624 11.2414 4.99882 11.4249C4.99062 11.5778 5.02903 11.7347 5.11882 11.8729C5.34442 12.2203 5.80892 12.3191 6.15631 12.0935L10.3497 9.37027C10.697 9.14467 10.7958 8.68017 10.5702 8.33279C10.3446 7.9854 9.88009 7.88666 9.5327 8.11226L7.01644 9.74634C7.01652 9.74629 7.01635 9.7464 7.01644 9.74634C6.06172 10.3661 4.52038 10.0334 3.63192 8.66527C2.74339 7.29705 3.06648 5.75348 4.02117 5.13349L9.0532 1.86566C10.0079 1.24567 11.5494 1.57834 12.438 2.94656ZM13.7667 6.88194C14.7218 5.56301 14.6705 3.63028 13.696 2.1296C12.4789 0.255528 10.0607 -0.577139 8.23624 0.607651L3.20422 3.87549C1.52381 4.96675 1.20205 7.21441 2.11271 9.02685C1.15769 10.3458 1.20893 12.2785 2.18348 13.7792C3.40052 15.6533 5.81879 16.4859 7.64321 15.3011L12.6752 12.0333C14.3556 10.942 14.6774 8.69437 13.7667 6.88194Z" fill="black"/>
</svg>
