<svg width="16" height="16" viewBox="0 0 16 16" fill="none" xmlns="http://www.w3.org/2000/svg">
<path fill-rule="nonzero" clip-rule="nonzero" d="M6.15406 0.318048C6.44683 0.608782 6.44683 1.08015 6.15407 1.37089C5.35589 2.16353 4.82154 3.76847 4.65102 5.49284C4.56806 6.33176 4.57668 7.14971 4.66581 7.83797C4.6911 8.03331 4.72208 8.21183 4.75725 8.37317L9.73184 3.43309C10.0246 3.14236 10.4993 3.14236 10.792 3.43309C11.0848 3.72383 11.0848 4.1952 10.792 4.48594L5.00684 10.231C4.84911 10.3876 4.62933 10.4664 4.40724 10.4458C4.18513 10.4253 3.98378 10.3076 3.85788 10.1248C3.48757 9.58689 3.28124 8.81967 3.17871 8.02788C3.07328 7.21371 3.0664 6.28216 3.15885 5.34732C3.18162 5.11706 3.21077 4.88335 3.24668 4.64837C2.8927 5.13977 2.56919 5.65077 2.30317 6.17223C1.82762 7.10439 1.56367 8.01827 1.60326 8.87652C1.64181 9.71235 1.97009 10.5558 2.79485 11.3748C2.99362 11.5722 3.06449 11.8634 2.97842 12.1292L2.58792 13.3348L3.80184 12.9469C4.06948 12.8613 4.3628 12.9317 4.5616 13.1291C5.44507 14.0065 6.32135 14.3551 7.16176 14.4047C8.02229 14.4555 8.92356 14.1968 9.8405 13.7206C10.3796 13.4407 10.905 13.0962 11.4094 12.7186C11.1483 12.7607 10.8882 12.7943 10.6319 12.8199C9.69576 12.9131 8.76147 12.9041 7.93874 12.7922C7.13468 12.6828 6.36013 12.4649 5.80472 12.0833C5.62187 11.9577 5.5046 11.758 5.48459 11.5381C5.46459 11.3182 5.54391 11.1008 5.70113 10.9447L11.4985 5.1875C11.7913 4.89677 12.2659 4.89677 12.5587 5.1875C12.8515 5.47824 12.8515 5.94961 12.5587 6.24035L7.55477 11.2096C7.7312 11.2513 7.92726 11.2878 8.14229 11.317C8.83268 11.411 9.64728 11.4215 10.4823 11.3383C12.1927 11.1679 13.7957 10.626 14.6189 9.80965C14.6193 9.80921 14.6198 9.80876 14.6202 9.80832C14.913 9.51759 15.3877 9.51759 15.6804 9.80832C15.9732 10.0991 15.9732 10.5704 15.6804 10.8612C15.6143 10.9268 15.5461 10.9948 15.4758 11.0648C14.2922 12.2437 12.5192 14.0097 10.5353 15.04C9.4732 15.5916 8.29588 15.9632 7.07278 15.891C5.95452 15.825 4.8612 15.3915 3.84069 14.4986L1.65662 15.1966C1.38901 15.2821 1.09571 15.2118 0.896904 15.0144C0.6981 14.817 0.627213 14.5257 0.713291 14.26L1.41641 12.0891C0.559921 11.1105 0.156087 10.0419 0.10548 8.94465C0.0500065 7.74189 0.421143 6.56671 0.965671 5.49933C2.04701 3.3797 3.92158 1.48222 5.09294 0.318973C5.09325 0.318665 5.09356 0.318358 5.09387 0.31805C5.38663 0.0273153 5.8613 0.0273146 6.15406 0.318048Z" fill="black"/>
</svg>
