<svg width="16" height="16" viewBox="0 0 16 16" fill="none" xmlns="http://www.w3.org/2000/svg"><path d="M1.547 0.309 C 1.258 0.384,1.016 0.529,0.773 0.773 C 0.524 1.022,0.416 1.198,0.316 1.520 L 0.253 1.720 0.253 8.000 L 0.253 14.280 0.316 14.480 C 0.416 14.802,0.524 14.978,0.773 15.227 C 1.022 15.476,1.198 15.584,1.520 15.684 L 1.720 15.747 8.000 15.747 L 14.280 15.747 14.480 15.684 C 14.802 15.584,14.978 15.476,15.227 15.227 C 15.476 14.978,15.584 14.802,15.684 14.480 L 15.747 14.280 15.747 8.000 L 15.747 1.720 15.684 1.520 C 15.584 1.198,15.476 1.022,15.227 0.773 C 14.980 0.525,14.739 0.382,14.441 0.307 C 14.207 0.248,1.774 0.249,1.547 0.309 M14.170 1.830 L 14.240 1.901 14.240 8.000 L 14.240 14.099 14.173 14.166 C 14.136 14.203,14.069 14.241,14.023 14.250 C 13.915 14.272,2.085 14.272,1.977 14.250 C 1.931 14.241,1.864 14.203,1.827 14.166 L 1.760 14.099 1.760 8.000 L 1.760 1.901 1.830 1.830 L 1.901 1.760 8.000 1.760 L 14.099 1.760 14.170 1.830 " stroke="none" fill-rule="evenodd" fill="black"></path></svg>