<svg width="16" height="16" viewBox="0 0 16 16" fill="none" xmlns="http://www.w3.org/2000/svg">
<path fill-rule="evenodd" clip-rule="evenodd" d="M2.40434 1.65993C2.23515 1.56124 2.02269 1.68328 2.02269 1.87914V4.84387C2.02269 4.93604 2.07265 5.02096 2.15322 5.06572L5.06806 6.68507V3.21377L2.40434 1.65993ZM6.59074 4.102V7.53101L9.63612 9.22288V5.87847L6.59074 4.102ZM11.1588 5.88915V9.15928L14.0827 7.37243C14.1582 7.32633 14.2042 7.2443 14.2042 7.15589V4.62858C14.2042 4.43508 13.9963 4.31277 13.8271 4.40674L11.1588 5.88915ZM9.63612 10.9648L6.59074 9.2729V12.7111C6.59074 12.8032 6.64071 12.8882 6.72128 12.9329L9.25909 14.3428C9.42824 14.4368 9.63612 14.3145 9.63612 14.121V10.9648ZM5.06806 8.42696V12.7111C5.06806 13.3562 5.41783 13.9507 5.9818 14.264L8.51961 15.6739C9.70368 16.3317 11.1588 15.4755 11.1588 14.121V10.9438L14.8767 8.67171C15.4048 8.34901 15.7269 7.77475 15.7269 7.15589V4.62858C15.7269 3.27405 14.2717 2.41786 13.0877 3.07567L10.4066 4.56513L3.17158 0.344668C1.98728 -0.34617 0.5 0.508082 0.5 1.87914V4.84387C0.5 5.48903 0.849773 6.08347 1.41374 6.39678L5.06806 8.42696Z" fill="black"/>
</svg>
