<svg width="16" height="16" viewBox="0 0 16 16" fill="none" xmlns="http://www.w3.org/2000/svg"><path d="M1.429 0.044 C 0.803 0.178,0.308 0.620,0.089 1.240 L 0.013 1.453 0.006 3.200 C -0.003 5.168,-0.001 5.200,0.187 5.587 C 0.305 5.831,0.458 6.025,0.662 6.191 C 0.739 6.255,1.657 6.782,2.702 7.362 L 4.600 8.418 4.615 10.722 C 4.629 12.791,4.635 13.044,4.676 13.200 C 4.778 13.582,5.019 13.955,5.307 14.177 C 5.452 14.288,7.892 15.658,8.254 15.831 C 8.518 15.957,8.784 16.009,9.080 15.991 C 9.537 15.965,9.946 15.783,10.265 15.465 C 10.473 15.257,10.615 15.025,10.714 14.733 L 10.786 14.520 10.795 12.747 L 10.804 10.973 12.686 9.827 C 13.721 9.196,14.635 8.629,14.717 8.566 C 14.919 8.412,15.101 8.189,15.226 7.941 C 15.415 7.566,15.417 7.543,15.408 5.787 L 15.400 4.227 15.325 4.014 C 15.087 3.342,14.528 2.889,13.825 2.800 C 13.582 2.769,13.263 2.805,13.031 2.889 C 12.940 2.922,12.234 3.300,11.463 3.728 C 10.692 4.156,10.049 4.507,10.034 4.507 C 10.020 4.507,8.371 3.552,6.370 2.384 C 4.370 1.217,2.664 0.227,2.580 0.184 C 2.251 0.016,1.808 -0.037,1.429 0.044 M3.240 2.344 L 4.600 3.139 4.607 4.893 C 4.613 6.524,4.611 6.645,4.569 6.629 C 4.434 6.577,1.632 5.002,1.593 4.956 C 1.550 4.905,1.547 4.786,1.547 3.302 L 1.547 1.703 1.625 1.625 C 1.680 1.569,1.728 1.547,1.791 1.548 C 1.858 1.549,2.213 1.744,3.240 2.344 M7.769 4.986 L 9.253 5.853 9.253 7.540 C 9.253 8.468,9.249 9.227,9.244 9.227 C 9.239 9.227,8.546 8.844,7.704 8.377 L 6.173 7.527 6.166 5.789 L 6.160 4.051 6.223 4.086 C 6.257 4.105,6.953 4.510,7.769 4.986 M13.734 4.360 C 13.777 4.382,13.824 4.424,13.839 4.452 C 13.857 4.485,13.867 4.985,13.867 5.875 C 13.867 7.144,13.863 7.252,13.820 7.302 C 13.794 7.332,13.149 7.737,12.387 8.202 C 11.624 8.667,10.955 9.076,10.900 9.111 L 10.800 9.174 10.801 7.514 L 10.802 5.853 12.005 5.187 C 13.777 4.205,13.598 4.290,13.734 4.360 M7.726 10.153 L 9.252 11.000 9.253 12.621 C 9.253 14.033,9.248 14.253,9.212 14.322 C 9.170 14.403,9.082 14.453,8.981 14.453 C 8.921 14.453,6.349 13.036,6.241 12.942 L 6.173 12.885 6.166 11.096 C 6.162 10.112,6.168 9.307,6.179 9.307 C 6.190 9.307,6.886 9.688,7.726 10.153 " stroke="none" fill="black" fill-rule="evenodd"></path></svg>