<svg width="16" height="16" viewBox="0 0 16 16" fill="none" xmlns="http://www.w3.org/2000/svg">
<path fill-rule="evenodd" clip-rule="evenodd" d="M1.92845 1.57968C1.75712 1.47974 1.54196 1.60332 1.54196 1.80166V4.80392C1.54196 4.89725 1.59256 4.98325 1.67415 5.02857L4.62588 6.66843V3.15318L1.92845 1.57968ZM6.16784 4.05266V7.52507L9.25176 9.23836V5.85161L6.16784 4.05266ZM10.7937 5.86243V9.17395L13.7547 7.36449C13.8311 7.31781 13.8776 7.23473 13.8776 7.1452V4.58591C13.8776 4.38995 13.6671 4.26609 13.4958 4.36125L10.7937 5.86243ZM9.25176 11.0023L6.16784 9.28901V12.7707C6.16784 12.864 6.21844 12.95 6.30003 12.9954L8.86996 14.4231C9.04126 14.5183 9.25176 14.3944 9.25176 14.1985V11.0023ZM4.62588 8.43237V12.7707C4.62588 13.424 4.98008 14.026 5.55119 14.3433L8.12112 15.771C9.32018 16.4372 10.7937 15.5701 10.7937 14.1985V10.981L14.5587 8.68022C15.0935 8.35343 15.4196 7.7719 15.4196 7.1452V4.58591C15.4196 3.21423 13.9461 2.34719 12.747 3.01334L10.032 4.52165L2.70539 0.247765C1.50611 -0.451818 0 0.413247 0 1.80166V4.80392C0 5.45724 0.3542 6.05921 0.925305 6.37649L4.62588 8.43237Z" fill="black"/>
</svg>
