<svg width="16" height="16" viewBox="0 0 16 16" fill="none" xmlns="http://www.w3.org/2000/svg">
<path fill-rule="evenodd" clip-rule="evenodd" d="M8.21598 1.12887C8.273 0.7284 8.64238 0.450191 9.04101 0.507474C12.693 1.03225 15.5 4.18618 15.5 8C15.5 11.8138 12.693 14.9677 9.04101 15.4925C8.64238 15.5498 8.273 15.2716 8.21598 14.8711C8.15895 14.4707 8.43589 14.0996 8.83452 14.0423C11.7784 13.6193 14.0417 11.0745 14.0417 8C14.0417 4.92547 11.7784 2.38074 8.83452 1.95771C8.43589 1.90043 8.15895 1.52934 8.21598 1.12887ZM1.12598 8.25163C1.52461 8.19435 1.89399 8.47255 1.95102 8.87302C2.08381 9.8056 2.42651 10.6701 2.93007 11.4174C3.15583 11.7523 3.06852 12.2078 2.73506 12.4346C2.4016 12.6614 1.94827 12.5737 1.72251 12.2387C1.09815 11.3122 0.672352 10.2386 0.507441 9.08048C0.450416 8.68001 0.727344 8.30892 1.12598 8.25163ZM3.47883 13.1922C3.70921 12.8604 4.16371 12.779 4.494 13.0105C5.17854 13.4901 5.96527 13.8314 6.81459 13.9949C7.21008 14.071 7.46927 14.4548 7.39349 14.8522C7.31772 15.2495 6.93568 15.5099 6.54018 15.4337C5.48499 15.2306 4.50823 14.8066 3.65972 14.212C3.32944 13.9806 3.24845 13.524 3.47883 13.1922Z" fill="black"/>
<path fill-rule="evenodd" clip-rule="evenodd" d="M7.96559 10.93C6.35482 10.93 5.04904 9.61818 5.04904 7.99999C5.04904 6.3818 6.35482 5.07 7.96559 5.07C9.57635 5.07 10.8821 6.3818 10.8821 7.99999C10.8821 9.61818 9.57635 10.93 7.96559 10.93ZM7.96559 12.395C10.3817 12.395 12.3404 10.4273 12.3404 7.99999C12.3404 5.57271 10.3817 3.60501 7.96559 3.60501C5.54944 3.60501 3.59076 5.57271 3.59076 7.99999C3.59076 10.4273 5.54944 12.395 7.96559 12.395Z" fill="black"/>
</svg>
