<svg width="16" height="16" viewBox="0 0 16 16" fill="none" xmlns="http://www.w3.org/2000/svg">
<path fill-rule="evenodd" clip-rule="evenodd" d="M5.03431 2.23431C5.34673 1.9219 5.85327 1.9219 6.16569 2.23431L10.4 6.46863L14.6343 2.23431C14.9467 1.9219 15.4533 1.9219 15.7657 2.23431C16.0781 2.54673 16.0781 3.05327 15.7657 3.36569L10.9657 8.16569C10.6533 8.4781 10.1467 8.4781 9.83432 8.16569L5.6 3.93137L1.36569 8.16569C1.05327 8.4781 0.546734 8.4781 0.234315 8.16569C-0.0781048 7.85327 -0.0781048 7.34673 0.234315 7.03431L5.03431 2.23431ZM1.6 12.6667V11.3333C1.6 10.8915 1.24183 10.5333 0.8 10.5333C0.358172 10.5333 0 10.8915 0 11.3333V14.2667H16V11.3333C16 10.8915 15.6418 10.5333 15.2 10.5333C14.7582 10.5333 14.4 10.8915 14.4 11.3333V12.6667H11.2V11.3333C11.2 10.8915 10.8418 10.5333 10.4 10.5333C9.95817 10.5333 9.6 10.8915 9.6 11.3333V12.6667H6.4V11.3333C6.4 10.8915 6.04183 10.5333 5.6 10.5333C5.15817 10.5333 4.8 10.8915 4.8 11.3333V12.6667H1.6Z" fill="black"/>
</svg>
