<svg width="16" height="16" viewBox="0 0 16 16" fill="none" xmlns="http://www.w3.org/2000/svg">
<path fill-rule="nonzero" clip-rule="nonzero" d="M0 1.75C0 0.783501 0.783502 0 1.75 0H14.25C15.2165 0 16 0.783502 16 1.75V14.25C16 15.2165 15.2165 16 14.25 16H1.75C0.783501 16 0 15.2165 0 14.25V1.75ZM1.75 1.5C1.61193 1.5 1.5 1.61193 1.5 1.75V14.25C1.5 14.3881 1.61193 14.5 1.75 14.5H14.25C14.3881 14.5 14.5 14.3881 14.5 14.25V1.75C14.5 1.61193 14.3881 1.5 14.25 1.5H1.75ZM4.25 4C4.25 3.58579 4.58579 3.25 5 3.25H8.6C10.1188 3.25 11.35 4.48122 11.35 6C11.35 7.31438 10.4279 8.41339 9.19527 8.6854L11.2144 11.5699C11.452 11.9092 11.3694 12.3769 11.0301 12.6144C10.6908 12.852 10.2231 12.7694 9.98558 12.4301L7.40951 8.75H5.75V12C5.75 12.4142 5.41421 12.75 5 12.75C4.58579 12.75 4.25 12.4142 4.25 12V4ZM5.75 7.25H8.6C9.29036 7.25 9.85 6.69036 9.85 6C9.85 5.30964 9.29036 4.75 8.6 4.75H5.75V7.25Z" fill="black"/>
</svg>
