<svg width="16" height="16" viewBox="0 0 16 16" fill="none" xmlns="http://www.w3.org/2000/svg">
<path fill-rule="nonzero" clip-rule="nonzero" d="M0 1.75C0 0.783501 0.783502 0 1.75 0H14.25C15.2165 0 16 0.783502 16 1.75V14.25C16 15.2165 15.2165 16 14.25 16H1.75C0.783501 16 0 15.2165 0 14.25V1.75ZM1.75 1.5C1.61193 1.5 1.5 1.61193 1.5 1.75V14.25C1.5 14.3881 1.61193 14.5 1.75 14.5H14.25C14.3881 14.5 14.5 14.3881 14.5 14.25V1.75C14.5 1.61193 14.3881 1.5 14.25 1.5H1.75ZM5.09044 4.19969C5.71056 3.6255 6.65885 3.25 8 3.25C9.34115 3.25 10.2894 3.6255 10.9096 4.19969C11.5184 4.76347 11.75 5.46549 11.75 6.00001C11.75 6.41423 11.4142 6.75001 11 6.75001C10.5858 6.75001 10.25 6.41423 10.25 6.00001C10.25 5.86787 10.1816 5.56988 9.89044 5.30032C9.61056 5.04117 9.05885 4.75 8 4.75C6.94115 4.75 6.38944 5.04117 6.10956 5.30032C5.81844 5.56988 5.75 5.86787 5.75 6.00001C5.75 6.13216 5.81844 6.43015 6.10956 6.6997C6.38944 6.95886 6.94115 7.25003 8 7.25003C9.34114 7.25003 10.2894 7.62551 10.9095 8.19968C11.5184 8.76345 11.75 9.46546 11.75 9.99999C11.75 10.5345 11.5184 11.2365 10.9095 11.8003C10.2894 12.3745 9.34114 12.75 7.99999 12.75C6.65883 12.75 5.71055 12.3745 5.09043 11.8003C4.48155 11.2365 4.24999 10.5345 4.24999 9.99999C4.24999 9.58577 4.58577 9.24999 4.99999 9.24999C5.4142 9.24999 5.74999 9.58577 5.74999 9.99999C5.74999 10.1321 5.81842 10.4301 6.10954 10.6997C6.38943 10.9588 6.94114 11.25 7.99999 11.25C9.05884 11.25 9.61055 10.9588 9.89043 10.6997C10.1815 10.4301 10.25 10.1321 10.25 9.99999C10.25 9.86784 10.1815 9.56987 9.89044 9.30033C9.61057 9.04119 9.05886 8.75003 8 8.75003C6.65885 8.75003 5.71056 8.37453 5.09044 7.80034C4.48156 7.23656 4.25 6.53454 4.25 6.00001C4.25 5.46549 4.48156 4.76347 5.09044 4.19969Z" fill="black"/>
</svg>
