<svg width="16" height="16" viewBox="0 0 16 16" fill="none" xmlns="http://www.w3.org/2000/svg">
<path fill-rule="nonzero" clip-rule="nonzero" d="M0 1.75C0 0.783501 0.783502 0 1.75 0H14.25C15.2165 0 16 0.783502 16 1.75V14.25C16 15.2165 15.2165 16 14.25 16H1.75C0.783501 16 0 15.2165 0 14.25V1.75ZM1.75 1.5C1.61193 1.5 1.5 1.61193 1.5 1.75V14.25C1.5 14.3881 1.61193 14.5 1.75 14.5H14.25C14.3881 14.5 14.5 14.3881 14.5 14.25V1.75C14.5 1.61193 14.3881 1.5 14.25 1.5H1.75ZM8.25 4.75C6.45507 4.75 5 6.20507 5 8C5 9.79493 6.45507 11.25 8.25 11.25C9.29024 11.25 10.2161 10.7621 10.8122 9.99968C11.0673 9.67336 11.5387 9.61564 11.865 9.87076C12.1913 10.1259 12.249 10.5972 11.9939 10.9236C11.1258 12.034 9.77132 12.75 8.25 12.75C5.62665 12.75 3.5 10.6234 3.5 8C3.5 5.37665 5.62665 3.25 8.25 3.25C9.77132 3.25 11.1258 3.96603 11.9939 5.07644C12.249 5.40276 12.1913 5.87412 11.865 6.12924C11.5387 6.38436 11.0673 6.32664 10.8122 6.00032C10.2161 5.23788 9.29024 4.75 8.25 4.75Z" fill="black"/>
</svg>
