<svg width="16" height="16" viewBox="0 0 16 16" fill="none" xmlns="http://www.w3.org/2000/svg">
<path fill-rule="nonzero" clip-rule="nonzero" d="M0 1.75C0 0.783501 0.783502 0 1.75 0H14.25C15.2165 0 16 0.783502 16 1.75V14.25C16 15.2165 15.2165 16 14.25 16H1.75C0.783501 16 0 15.2165 0 14.25V1.75ZM1.75 1.5C1.61193 1.5 1.5 1.61193 1.5 1.75V14.25C1.5 14.3881 1.61193 14.5 1.75 14.5H14.25C14.3881 14.5 14.5 14.3881 14.5 14.25V1.75C14.5 1.61193 14.3881 1.5 14.25 1.5H1.75ZM11.7547 3.79458C12.1443 3.93527 12.3461 4.36514 12.2054 4.75473L9.82937 11.3345C9.28712 12.8362 7.18207 12.887 6.56802 11.4132L3.80769 4.78846C3.64838 4.40611 3.82919 3.96701 4.21154 3.80769C4.59389 3.64838 5.03299 3.82919 5.19231 4.21154L7.95263 10.8363C8.04036 11.0469 8.34108 11.0396 8.41854 10.8251L10.7946 4.24527C10.9353 3.85568 11.3651 3.6539 11.7547 3.79458Z" fill="black"/>
</svg>
