<svg width="16" height="16" viewBox="0 0 16 16" fill="none" xmlns="http://www.w3.org/2000/svg">
<path fill-rule="nonzero" clip-rule="nonzero" d="M0 0.786012C0 0.351909 0.335786 0 0.75 0H6.55508C6.9693 0 7.30508 0.351909 7.30508 0.786012V3.93006C7.30508 4.35524 6.98295 4.70158 6.58051 4.71563V6.09604L8.55754 4.23253C8.52047 4.13942 8.5 4.03725 8.5 3.93006V0.786012C8.5 0.351909 8.83579 0 9.25 0H15.25C15.6642 0 16 0.351909 16 0.786012V3.93006C16 4.1486 15.9132 4.35728 15.7604 4.506L4.16716 15.7899C4.02844 15.925 3.84611 16 3.65678 16H2.20763C2.05956 16 1.9148 15.9541 1.7916 15.868L1.06703 15.3617C0.858377 15.216 0.733051 14.9705 0.733051 14.7077V4.71587C0.326665 4.70643 0 4.35822 0 3.93006V0.786012ZM1.5 3.14424C1.90639 3.15369 2.23305 3.50189 2.23305 3.93006V14.2871L2.43471 14.428H3.36223L14.5 3.58734V1.57202H10V3.14405C10.3106 3.14405 10.589 3.34467 10.7003 3.64858C10.8115 3.95249 10.7325 4.29681 10.5015 4.51447L6.33204 8.44453C6.11186 8.65207 5.79577 8.7044 5.52526 8.57808C5.25476 8.45177 5.08051 8.17047 5.08051 7.86012V3.93006C5.08051 3.50487 5.40264 3.15854 5.80508 3.14449V1.57202H1.5V3.14424Z" fill="black"/>
</svg>
