<svg width="16" height="16" viewBox="0 0 16 16" fill="none" xmlns="http://www.w3.org/2000/svg">
<path fill-rule="nonzero" clip-rule="nonzero" d="M2.71337 2.26484C2.99697 2.20756 3.28823 2.31853 3.46183 2.55L4.92867 4.50579C5.1772 4.83716 5.11004 5.30726 4.77867 5.55579C4.4473 5.80432 3.9772 5.73716 3.72867 5.40579L3.20727 4.71058L3.10049 5.13769C3.01702 5.47156 2.71703 5.70579 2.37288 5.70579C2.18636 5.70579 2.07197 5.75842 1.98844 5.82585C1.89481 5.90144 1.79923 6.03028 1.72217 6.23195C1.56516 6.64285 1.54026 7.21582 1.6371 7.72008C1.67433 7.85422 1.71333 7.9038 1.72925 7.92087C1.74326 7.93588 1.77481 7.9646 1.87158 7.99415C2.12317 8.07097 2.51677 8.07888 3.26811 8.07888C4.81211 8.07888 5.77212 8.77081 5.77212 9.70588C5.77212 9.98486 5.7139 10.4093 5.50665 10.7931C5.28185 11.2094 4.84269 11.6252 4.14512 11.6252C4.10963 11.6252 4.07418 11.6227 4.03905 11.6177C3.50752 11.5417 3.19655 11.731 2.97562 11.9972C2.93016 12.052 2.88849 12.1106 2.85051 12.1716H7.97439C7.82513 11.8299 7.75 11.4382 7.75 11C7.75 10.694 7.78714 10.3631 7.92291 10.0474C8.06519 9.71661 8.29781 9.4445 8.61915 9.24119C9.21016 8.86727 10.0685 8.75 11.1612 8.75C11.5754 8.75 11.9112 9.08578 11.9112 9.5C11.9112 9.91421 11.5754 10.25 11.1612 10.25C10.0926 10.25 9.62041 10.3827 9.42114 10.5088C9.34733 10.5555 9.31987 10.5959 9.30087 10.6401C9.27535 10.6994 9.25 10.806 9.25 11C9.25 11.3613 9.3324 11.5693 9.41564 11.6936C9.49958 11.8189 9.62301 11.9167 9.79929 11.9929C10.1536 12.1461 10.6044 12.1684 11.0319 12.1712C11.3791 12.0374 11.8712 11.7685 12.2824 11.3683C12.7294 10.9332 13.0422 10.3849 13.0422 9.70588C13.0422 8.97347 12.7835 8.53492 12.5038 8.26481C12.2239 7.99451 11.892 7.8649 11.6844 7.82487H6.4838C6.06958 7.82487 5.7338 7.48908 5.7338 7.07487C5.7338 6.66066 6.06958 6.32487 6.4838 6.32487H11.7458C11.7813 6.32487 11.8168 6.32739 11.8519 6.33241C12.332 6.401 12.9941 6.65305 13.5458 7.18581C14.0065 7.6307 14.3705 8.25333 14.4955 9.0721C14.5497 8.71988 14.58 8.32721 14.58 7.88947C14.58 5.88504 14.0961 4.91992 13.6088 4.46163C13.1301 4.01143 12.4935 3.90684 11.8388 3.98868C11.4278 4.04006 11.053 3.74851 11.0016 3.3375C10.9502 2.92648 11.2418 2.55164 11.6528 2.50026C12.5572 2.38721 13.7128 2.50032 14.6364 3.36894C15.5514 4.22947 16.08 5.68429 16.08 7.88947C16.08 10.1562 15.3711 11.6658 14.3251 12.5842C13.3074 13.4779 12.0694 13.7241 11.1391 13.6716C11.1341 13.6716 11.1291 13.6716 11.124 13.6716C11.0976 13.6716 11.0696 13.6716 11.0403 13.6716H1.80644C1.59132 13.6716 1.38655 13.5792 1.24418 13.4179C1.10181 13.2566 1.03555 13.042 1.06223 12.8285C1.12353 12.3382 1.33866 11.6211 1.82121 11.0395C2.32181 10.4361 3.10125 9.99943 4.16047 10.1211C4.16663 10.1136 4.17578 10.1008 4.18679 10.0804C4.21111 10.0353 4.2341 9.97197 4.2504 9.89588C4.25834 9.85883 4.26372 9.82333 4.26714 9.79141C4.26066 9.78616 4.25286 9.78026 4.24353 9.77378C4.14638 9.70632 3.87464 9.57888 3.26811 9.57888C3.23847 9.57888 3.2088 9.57889 3.17912 9.57891C2.55606 9.57925 1.92752 9.5796 1.43352 9.42876C1.14574 9.34088 0.865145 9.19346 0.632595 8.94427C0.402712 8.69793 0.263699 8.39916 0.180213 8.07837C0.176611 8.06453 0.173406 8.05059 0.170601 8.03656C0.028046 7.32379 0.0365785 6.44081 0.320985 5.69653C0.465792 5.31758 0.695062 4.9422 1.04622 4.65871C1.25761 4.48805 1.49951 4.36203 1.76703 4.28684L2.13422 2.81809C2.20439 2.5374 2.42976 2.32211 2.71337 2.26484ZM4.29554 9.81946C4.29547 9.81949 4.29478 9.81861 4.29367 9.81675C4.29506 9.81851 4.29561 9.81944 4.29554 9.81946Z" fill="black"/>
</svg>
