<svg width="32" height="32" viewBox="0 0 32 32" xmlns="http://www.w3.org/2000/svg" fill="currentColor"><path d="M15.258 29.694l.588-1.38-.588 1.38zm1.484 0l-.588-1.38.588 1.38zM27.11 5.055l-.458 1.429.458-1.429zm-10.5-3.36l-.458 1.429.458-1.429zm-1.22 0l.458 1.429-.458-1.429zm-10.5 3.36l-.457-1.429.457 1.43zM16 8l1.393-.557a1.5 1.5 0 0 0-2.786 0L16 8zM9.607 19.943a1.5 1.5 0 0 0 2.786 1.114l-2.786-1.114zm10 1.114a1.5 1.5 0 1 0 2.786-1.114l-2.786 1.114zM2 6.96V14h3V6.96H2zM2 14c0 3.132.638 6.365 2.606 9.364 1.967 2.997 5.17 5.625 10.064 7.71l1.176-2.76c-4.49-1.912-7.164-4.207-8.731-6.595C5.549 19.333 5 16.717 5 14H2zm15.33 17.074c4.893-2.085 8.097-4.713 10.064-7.71C29.362 20.364 30 17.132 30 14h-3c0 2.717-.55 5.333-2.115 7.719-1.567 2.388-4.242 4.683-8.73 6.595l1.175 2.76zM30 14V6.96h-3V14h3zM27.567 3.626l-10.5-3.36-.915 2.858 10.5 3.36.915-2.858zM14.933.266l-10.5 3.36.915 2.858 10.5-3.36-.915-2.858zM30 6.96a3.5 3.5 0 0 0-2.433-3.334l-.915 2.858A.5.5 0 0 1 27 6.96h3zM14.67 31.074a3.4 3.4 0 0 0 2.66 0l-1.176-2.76a.4.4 0 0 1-.308 0l-1.176 2.76zM17.067.266a3.5 3.5 0 0 0-2.134 0l.915 2.858a.5.5 0 0 1 .304 0l.915-2.858zM5 6.96a.5.5 0 0 1 .348-.476l-.915-2.858A3.5 3.5 0 0 0 2 6.96h3zm9.607.483l-4 10 2.786 1.114 4-10-2.786-1.114zm-4 10l-1 2.5 2.786 1.114 1-2.5-2.786-1.114zm4-8.886l4 10 2.786-1.114-4-10-2.786 1.114zm4 10l1 2.5 2.786-1.114-1-2.5-2.786 1.114zM12 19.5h8v-3h-8v3z"/></svg>