<svg width="16" height="16" viewBox="0 0 16 16" fill="none" xmlns="http://www.w3.org/2000/svg">
<path fill-rule="evenodd" clip-rule="evenodd" d="M1.39324 0.0997554C1.63617 -0.037462 1.93405 -0.0328314 2.17263 0.111871L8 3.64636L13.8274 0.111871C14.0659 -0.0328314 14.3638 -0.037462 14.6068 0.0997551C14.8497 0.236972 15 0.494738 15 0.774194L15 15.2258C15 15.4998 14.8555 15.7534 14.62 15.8926C14.3845 16.0318 14.0931 16.0359 13.8537 15.9034L8 12.6617L2.14626 15.9034C1.90694 16.0359 1.61554 16.0318 1.38004 15.8926C1.14453 15.7534 1 15.4998 1 15.2258L1.00001 0.774194C1.00001 0.494739 1.1503 0.236973 1.39324 0.0997554ZM9.59727 11.7771L13.4549 13.9134V9.64084L9.59727 11.7771ZM12.6852 8.29798L8 10.8926L3.31484 8.29798L8 5.45628L12.6852 8.29798ZM13.4548 6.95489L9.49203 4.55132L13.4548 2.14774L13.4548 6.95489ZM6.50798 4.55132L2.54516 2.14774V6.95489L6.50798 4.55132ZM2.54516 9.64084L6.40274 11.7771L2.54515 13.9134L2.54516 9.64084Z" fill="black"/>
</svg>
