<svg width="32" height="32" viewBox="0 0 32 32" xmlns="http://www.w3.org/2000/svg" fill="currentColor"><path d="M5 24.333l-.749 1.3.75-1.3zm9.718 5.605l.75-1.3-.75 1.3zm1.96.022l-.72-1.316.72 1.316zm10.283-5.635l-.72-1.315.72 1.315zM20.731 8.5h1.5a1.5 1.5 0 0 0-1.5-1.5v1.5zM11.5 7a1.5 1.5 0 0 0 0 3V7zm2.5 6.423a1.5 1.5 0 1 0 0 3v-3zm6.73 7.27l.672 1.34a1.5 1.5 0 0 0 .829-1.34h-1.5zM16.116 23l-.67 1.342a1.5 1.5 0 0 0 1.341 0L16.116 23zM11.5 20.692H10a1.5 1.5 0 0 0 .83 1.342l.67-1.342zm1.5-1.154a1.5 1.5 0 1 0-3 0h3zM2.5 3.5v19.1h3V3.5h-3zm1.751 22.132l9.718 5.605 1.499-2.598-9.718-5.605-1.499 2.598zM17.4 31.275l10.283-5.634-1.442-2.631-10.282 5.634 1.441 2.631zm12.1-8.704V3.5h-3v19.071h3zM26 0H6v3h20V0zm3.5 3.5A3.5 3.5 0 0 0 26 0v3a.5.5 0 0 1 .5.5h3zm-1.818 22.14a3.5 3.5 0 0 0 1.818-3.069h-3a.5.5 0 0 1-.26.439l1.442 2.63zm-13.713 5.597a3.5 3.5 0 0 0 3.43.038l-1.441-2.63a.5.5 0 0 1-.49-.006l-1.5 2.598zM2.5 22.601a3.5 3.5 0 0 0 1.751 3.031l1.5-2.598A.5.5 0 0 1 5.5 22.6h-3zM5.5 3.5A.5.5 0 0 1 6 3V0a3.5 3.5 0 0 0-3.5 3.5h3zM20.73 7H11.5v3h9.23V7zM14 16.423h6.73v-3H14v3zm5.23-1.5v5.77h3v-5.77h-3zm.83 4.428l-4.615 2.307 1.341 2.684 4.616-2.308-1.342-2.683zm-3.274 2.307l-4.615-2.307-1.342 2.683 4.616 2.308 1.341-2.684zM13 20.692v-1.154h-3v1.154h3zM19.23 8.5v6.423h3V8.5h-3z"/></svg>