<svg width="16" height="16" viewBox="0 0 16 16" fill="none" xmlns="http://www.w3.org/2000/svg">
<g clip-path="url(#clip0)">
<path fill-rule="evenodd" clip-rule="evenodd" d="M8.31825 0.530013C8.58134 0.606625 8.78179 0.820488 8.84124 1.08798L10.0556 6.55276L15.5205 7.76716C15.788 7.8266 16.0018 8.02705 16.0784 8.29015C16.155 8.55324 16.0822 8.83717 15.8885 9.03093L8.63927 16.2801C8.45776 16.4616 8.1961 16.5378 7.94553 16.4822L2.0143 15.1641C1.72974 15.1009 1.5075 14.8787 1.44427 14.5941L0.126229 8.66292C0.0705455 8.41235 0.146741 8.15069 0.328249 7.96918L7.57746 0.719969C7.77122 0.526208 8.05515 0.4534 8.31825 0.530013ZM8.60407 6.94256L7.67213 2.74882L1.68143 8.73951L2.61337 12.9333L8.60407 6.94256ZM3.67513 13.995L7.86893 14.927L13.8596 8.93627L9.66583 8.00432L3.67513 13.995Z" fill="black"/>
</g>
<defs>
<clipPath id="clip0">
<rect width="16" height="16" fill="white"/>
</clipPath>
</defs>
</svg>
