<svg width="32" height="32" viewBox="0 0 32 32" xmlns="http://www.w3.org/2000/svg" fill="currentColor"><path fill-rule="evenodd" clip-rule="evenodd" d="M10.864 3.475c0-1.09.884-1.975 1.975-1.975h5.926c1.09 0 1.975.884 1.975 1.975V9.4c0 .17-.022.336-.063.494.041.158.063.323.063.494v4.938h2.469v-3.95a1.481 1.481 0 0 1 2.962 0v3.95h3.95a1.481 1.481 0 1 1 0 2.962h-4.009c-.29 3.592-1.65 6.459-3.806 8.486-2.427 2.283-5.718 3.365-9.22 3.365-3.197 0-6.217-.901-8.569-2.798C2.148 25.43.568 22.596.127 18.957c-.253-2.087 1.479-3.631 3.33-3.631h.494v-4.938c0-1.09.885-1.975 1.976-1.975h4.937V3.475zm0 7.9h-3.95v3.95h3.95v-3.95zm-7.406 6.913a.448.448 0 0 0-.322.127.212.212 0 0 0-.067.186c.357 2.947 1.595 5.052 3.308 6.434 1.73 1.396 4.056 2.141 6.71 2.141 2.905 0 5.417-.893 7.19-2.56 1.505-1.416 2.584-3.49 2.861-6.328H3.458zm10.369-2.962h3.95v-3.95h-3.95v3.95zm0-6.913h3.95v-3.95h-3.95v3.95z"/></svg>