<svg width="16" height="16" viewBox="0 0 16 16" fill="none" xmlns="http://www.w3.org/2000/svg">
<g clip-path="url(#clip0)">
<path fill-rule="evenodd" clip-rule="evenodd" d="M2.56065 1.5L4.68565 3.625H9.81433L7.68933 1.5H2.56065ZM9.81065 1.5L14.5 6.18934V1.75C14.5 1.61193 14.3881 1.5 14.25 1.5H9.81065ZM14.1893 8L11.625 5.43566L9.06065 8L11.625 10.5643L14.1893 8ZM12.6857 11.625L14.5 13.4393V9.81066L12.6857 11.625ZM13.4393 14.5L7.99999 9.06066L2.56065 14.5H13.4393ZM1.49999 13.4393L6.93933 8L1.49999 2.56066V13.4393ZM7.99999 6.93934L9.81433 5.125H6.18565L7.99999 6.93934ZM-7.62939e-06 1.75C-7.62939e-06 0.783501 0.783494 0 1.74999 0H14.25C15.2165 0 16 0.783502 16 1.75V14.25C16 15.2165 15.2165 16 14.25 16H1.74999C0.783494 16 -7.62939e-06 15.2165 -7.62939e-06 14.25V1.75Z" fill="black"/>
</g>
<defs>
<clipPath id="clip0">
<rect width="16" height="16" fill="white"/>
</clipPath>
</defs>
</svg>
