<svg width="16" height="16" viewBox="0 0 16 16" fill="none" xmlns="http://www.w3.org/2000/svg">
<g clip-path="url(#clip0)">
<path fill-rule="evenodd" clip-rule="evenodd" d="M4.40772 0.774289C4.67726 0.450847 5.15796 0.407147 5.4814 0.676682C6.25182 1.3187 6.55103 2.07664 6.38572 2.82449C6.24497 3.4612 5.80144 3.91522 5.4557 4.1567C5.23966 4.3419 5.14959 4.48727 5.11237 4.57778C5.07685 4.66416 5.07763 4.72752 5.08976 4.7824C5.12148 4.92587 5.25864 5.09696 5.41626 5.20204C5.76658 5.43559 5.86124 5.9089 5.6277 6.25922C5.39415 6.60953 4.92084 6.70419 4.57053 6.47065C4.21992 6.23691 3.74721 5.77273 3.60103 5.11151C3.4357 4.36366 3.73491 3.60571 4.50533 2.96369L4.53661 2.93762L4.5705 2.91503C4.72811 2.80996 4.86527 2.63887 4.89698 2.4954C4.90911 2.44052 4.90989 2.37716 4.87436 2.29078C4.8357 2.19676 4.74001 2.04353 4.50533 1.84797C4.18189 1.57843 4.13819 1.09773 4.40772 0.774289ZM9.13661 2.80719C9.40615 3.13063 9.36245 3.61133 9.039 3.88087C8.80433 4.07643 8.70864 4.22965 8.66997 4.32368C8.63445 4.41006 8.63522 4.47342 8.64735 4.5283C8.67906 4.67177 8.81622 4.84286 8.97384 4.94793C9.32415 5.18148 9.41881 5.65479 9.18527 6.0051C8.95173 6.35542 8.47841 6.45008 8.1281 6.21654C7.77749 5.9828 7.30478 5.51861 7.15861 4.85739C6.9933 4.10954 7.29251 3.3516 8.06293 2.70958C8.38637 2.44005 8.86708 2.48375 9.13661 2.80719ZM0.109215 7.68435C0.194057 7.34498 0.498979 7.10691 0.848791 7.10691H12.5532C12.903 7.10691 13.2079 7.34498 13.2927 7.68435C13.403 8.12535 13.4309 8.68798 13.3712 9.31769H15.2377C15.6587 9.31769 16 9.659 16 10.08C16 10.8282 15.9546 12.04 15.1929 13.0553C14.4429 14.055 13.1373 14.6978 11.0484 14.7665C10.7755 15.1089 10.4749 15.4472 10.1445 15.7776C10.0015 15.9205 9.80764 16.0008 9.60545 16.0008H3.79649C3.59431 16.0008 3.40041 15.9205 3.25744 15.7776C1.79026 14.3104 0.911322 12.689 0.443149 11.2492C-0.0169807 9.83407 -0.10112 8.52569 0.109215 7.68435ZM9.2833 14.4762C9.56894 14.1734 9.82642 13.8649 10.0579 13.5545C11.0025 12.288 11.5142 10.9895 11.7377 9.92356C11.8446 9.41409 11.8819 8.9762 11.8768 8.63158H1.5251C1.51735 9.16435 1.61109 9.91042 1.8931 10.7777C2.26981 11.9363 2.96525 13.2536 4.11865 14.4762H9.2833ZM12.1453 13.122C13.1614 12.9244 13.6853 12.5242 13.9733 12.1404C14.257 11.7622 14.3841 11.3112 14.4382 10.8424H13.0817C12.8807 11.5622 12.5765 12.337 12.1453 13.122Z" fill="black"/>
</g>
<defs>
<clipPath id="clip0">
<rect width="16" height="16" fill="white"/>
</clipPath>
</defs>
</svg>
