<svg width="32" height="32" viewBox="0 0 32 32" xmlns="http://www.w3.org/2000/svg" fill="currentColor"><path fill-rule="evenodd" clip-rule="evenodd" d="M16 3C8.82 3 3 8.82 3 16c0 1.814.372 3.541 1.043 5.11a19.593 19.593 0 0 1-.029-5.315l.001-.007c.657-4.6 2.769-7.336 5.336-8.751 2.485-1.372 5.199-1.396 6.974-1.001l.035.007.035.01C18.763 6.699 23 9.609 23 16c0 2.934-.893 5.134-2.088 6.719a6.45 6.45 0 0 0 .789-.368c1.632-.9 3.27-2.748 3.814-6.545.307-2.232.173-5.532-1.116-8.202-.633-1.312-1.53-2.441-2.765-3.247a7.258 7.258 0 0 0-.555-.327 12.935 12.935 0 0 0-4.44-1.015H16.5v-.006A13.24 13.24 0 0 0 16 3zm.729-2.984A17.69 17.69 0 0 0 16 0C7.163 0 0 7.163 0 16c0 8.412 6.492 15.308 14.738 15.951.409.032.829.049 1.262.049 8.837 0 16-7.163 16-16 0-6.576-3.968-12.226-9.64-14.686C20.798.51 18.93.046 16.73.016zm11.91 12.93a19.119 19.119 0 0 1-.153 3.274l-.001.007c-.657 4.6-2.768 7.335-5.335 8.751-2.486 1.371-5.2 1.396-6.975 1.001l-.035-.008-.035-.01c-2.368-.645-6.605-3.555-6.605-9.946 0-2.934.893-5.135 2.088-6.72-.266.104-.53.226-.788.368-1.633.9-3.271 2.748-3.815 6.546-.307 2.232-.173 5.532 1.116 8.201.633 1.313 1.53 2.442 2.765 3.248 1.011.659 2.309 1.141 3.988 1.292.377.033.76.05 1.146.05 7.18 0 13-5.82 13-13 0-1.052-.125-2.075-.36-3.054zM16.266 9.2C17.732 9.908 20 11.885 20 16c0 4.144-2.299 6.12-3.765 6.814-1.468-.707-3.735-2.685-3.735-6.8 0-4.143 2.299-6.12 3.765-6.813z"/></svg>