<svg width="16" height="16" viewBox="0 0 16 16" fill="none" xmlns="http://www.w3.org/2000/svg">
<path fill-rule="evenodd" clip-rule="evenodd" d="M8 1.5C4.41015 1.5 1.5 4.41015 1.5 8C1.5 8.90695 1.68575 9.77052 2.02129 10.5547C1.88052 9.57026 1.9063 8.62778 2.00703 7.89751L2.00752 7.89392L2.00753 7.89392C2.33614 5.59363 3.39176 4.22622 4.67525 3.51826C5.91817 2.83269 7.27489 2.82055 8.16269 3.01784L8.18011 3.02171L8.19733 3.02641C9.38155 3.34938 11.5 4.80452 11.5 7.99998C11.5 9.467 11.0535 10.5672 10.4559 11.3595C10.5888 11.308 10.7208 11.2471 10.8503 11.1756C11.6665 10.7254 12.4857 9.80159 12.7573 7.90307C12.9109 6.78707 12.844 5.13693 12.1996 3.80218C11.8828 3.14594 11.4345 2.58142 10.8168 2.17853C10.7289 2.12116 10.6366 2.06647 10.5397 2.01487C9.85224 1.7228 9.10414 1.5457 8.31953 1.50772C8.29648 1.50749 8.27331 1.50737 8.25001 1.50737V1.50472C8.16706 1.50158 8.08371 1.5 8 1.5ZM8.36424 0.00814426C8.2435 0.00273407 8.12207 0 8 0C3.58172 0 0 3.58172 0 8C0 12.206 3.2458 15.6539 7.36922 15.9755C7.57323 15.9917 7.78345 16 8 16C12.4183 16 16 12.4183 16 8C16 4.71183 14.0162 1.887 11.1802 0.657053C10.399 0.254862 9.46472 0.0231215 8.36424 0.00814426ZM14.3196 6.47283C14.3419 7.07656 14.3081 7.63758 14.243 8.10985L14.2425 8.11344L14.2425 8.11344C13.9139 10.4137 12.8582 11.7811 11.5747 12.4891C10.3318 13.1747 8.97511 13.1868 8.08731 12.9895L8.06989 12.9856L8.05267 12.9809C6.86845 12.658 4.75001 11.2028 4.75001 8.00737C4.75001 6.54035 5.19651 5.44014 5.79412 4.64788C5.66119 4.69938 5.52919 4.76029 5.39973 4.8317C4.58349 5.28194 3.76436 6.20575 3.49271 8.10424C3.3391 9.22024 3.40604 10.8704 4.05041 12.2052C4.36722 12.8614 4.81547 13.4259 5.43317 13.8288C5.93861 14.1585 6.58746 14.3996 7.4268 14.4751C7.61567 14.4916 7.80685 14.5 8 14.5C11.5899 14.5 14.5 11.5899 14.5 8C14.5 7.47401 14.4375 6.96261 14.3196 6.47283ZM8.13274 4.60037C8.86662 4.95391 9.99999 5.94268 9.99999 7.99998C9.99999 10.0718 8.85058 11.06 8.11727 11.407C7.38338 11.0534 6.25001 10.0647 6.25001 8.00737C6.25001 5.93555 7.39942 4.9474 8.13274 4.60037Z" fill="black"/>
</svg>
