<svg width="32" height="32" viewBox="0 0 32 32" xmlns="http://www.w3.org/2000/svg" fill="currentColor"><path fill-rule="evenodd" clip-rule="evenodd" d="M5.936 7.328a1.5 1.5 0 1 0-1.872 2.344l10.064 8.034a2 2 0 0 1 1.47-2.666L5.935 7.329z"/><path fill-rule="evenodd" clip-rule="evenodd" d="M15.087 18.78a2 2 0 0 1-.738-2.909L2.168 18.64a1.5 1.5 0 1 0 .664 2.925l12.255-2.784z"/><path fill-rule="evenodd" clip-rule="evenodd" d="M16.894 18.79a2 2 0 0 1-2.784-1.133L8.65 28.951a1.5 1.5 0 0 0 2.7 1.305l5.544-11.468z"/><path fill-rule="evenodd" clip-rule="evenodd" d="M17.927 17.539a2 2 0 0 1-2.701 1.306l5.517 11.412a1.5 1.5 0 1 0 2.7-1.305l-5.516-11.413z"/><path fill-rule="evenodd" clip-rule="evenodd" d="M16.958 18.756a2 2 0 0 0 .665-2.926l12.361 2.809a1.5 1.5 0 1 1-.664 2.925l-12.362-2.808zM17.5 3a1.5 1.5 0 1 0-3 0v12.677A1.995 1.995 0 0 1 16 15c.597 0 1.134.262 1.5.677V3z"/><path fill-rule="evenodd" clip-rule="evenodd" d="M26.064 7.328a1.5 1.5 0 1 1 1.872 2.344l-10.064 8.034a2 2 0 0 0-1.47-2.666l9.662-7.712z"/><path fill-rule="evenodd" clip-rule="evenodd" d="M16 7.5a9.5 9.5 0 1 0 0 19 9.5 9.5 0 0 0 0-19zM3.5 17C3.5 10.096 9.096 4.5 16 4.5S28.5 10.096 28.5 17 22.904 29.5 16 29.5 3.5 23.904 3.5 17z"/></svg>