<svg width="16" height="16" viewBox="0 0 16 16" fill="none" xmlns="http://www.w3.org/2000/svg">
<path fill-rule="evenodd" clip-rule="evenodd" d="M2.61896 3.1496C2.27541 2.87028 1.77458 2.92749 1.50033 3.2774C1.22608 3.62731 1.28226 4.1374 1.62581 4.41673L6.96615 8.75877C6.92215 8.64007 6.89807 8.5114 6.89807 8.37701C6.89807 7.85456 7.26199 7.41868 7.74574 7.318L2.61896 3.1496Z" fill="black"/>
<path fill-rule="evenodd" clip-rule="evenodd" d="M7.47509 9.33908C7.13247 9.15983 6.89807 8.7963 6.89807 8.37701C6.89807 8.15075 6.96634 7.94072 7.08302 7.76713L0.619475 9.26279C0.19081 9.36198 -0.0777418 9.79633 0.0196486 10.2329C0.117039 10.6695 0.543491 10.943 0.972157 10.8439L7.47509 9.33908Z" fill="black"/>
<path fill-rule="evenodd" clip-rule="evenodd" d="M8.43388 9.3441C8.29108 9.41693 8.12991 9.45791 7.95934 9.45791C7.49514 9.45791 7.10056 9.15437 6.95648 8.73153L4.05895 14.8363C3.86762 15.2394 4.03336 15.7241 4.42913 15.919C4.8249 16.1139 5.30084 15.9451 5.49216 15.542L8.43388 9.3441Z" fill="black"/>
<path fill-rule="evenodd" clip-rule="evenodd" d="M8.98164 8.66823C8.85682 9.12374 8.4464 9.45791 7.95934 9.45791C7.81365 9.45791 7.67482 9.42801 7.54844 9.37391L10.476 15.542C10.6673 15.9451 11.1433 16.1139 11.539 15.919C11.9348 15.7241 12.1005 15.2394 11.9092 14.8363L8.98164 8.66823Z" fill="black"/>
<path fill-rule="evenodd" clip-rule="evenodd" d="M8.46781 9.32601C8.7972 9.14254 9.0206 8.78635 9.0206 8.37701C9.0206 8.141 8.94634 7.92266 8.82031 7.7449L15.3799 9.26279C15.8086 9.36198 16.0771 9.79633 15.9797 10.2329C15.8824 10.6695 15.4559 10.943 15.0272 10.8439L8.46781 9.32601Z" fill="black"/>
<path fill-rule="evenodd" clip-rule="evenodd" d="M8.75529 0.810678C8.75529 0.362953 8.39893 0 7.95934 0C7.51975 0 7.16339 0.362953 7.16339 0.810678V7.66204C7.35786 7.43764 7.64237 7.29611 7.95934 7.29611C8.27631 7.29611 8.56083 7.43764 8.75529 7.66204V0.810678Z" fill="black"/>
<path fill-rule="evenodd" clip-rule="evenodd" d="M13.2997 3.1496C13.6433 2.87028 14.1441 2.92749 14.4183 3.2774C14.6926 3.62731 14.6364 4.1374 14.2929 4.41673L8.95252 8.75877C8.99652 8.64007 9.0206 8.5114 9.0206 8.37701C9.0206 7.85456 8.65668 7.41868 8.17293 7.318L13.2997 3.1496Z" fill="black"/>
<path fill-rule="evenodd" clip-rule="evenodd" d="M7.95933 3.24271C5.17526 3.24271 2.91833 5.54142 2.91833 8.37701C2.91833 11.2126 5.17526 13.5113 7.95933 13.5113C10.7434 13.5113 13.0003 11.2126 13.0003 8.37701C13.0003 5.54142 10.7434 3.24271 7.95933 3.24271ZM1.32644 8.37701C1.32644 4.64597 4.29608 1.62136 7.95933 1.62136C11.6226 1.62136 14.5922 4.64597 14.5922 8.37701C14.5922 12.1081 11.6226 15.1327 7.95933 15.1327C4.29608 15.1327 1.32644 12.1081 1.32644 8.37701Z" fill="black"/>
</svg>
