<svg width="16" height="16" viewBox="0 0 16 16" fill="none" xmlns="http://www.w3.org/2000/svg">
<path fill-rule="evenodd" clip-rule="evenodd" d="M3.25854 12.7138C5.50835 14.9827 9.15602 14.9827 11.4058 12.7138C13.6556 10.4449 13.6556 6.7662 11.4058 4.49727C9.15602 2.22835 5.50835 2.22835 3.25854 4.49727C1.00873 6.7662 1.00873 10.4449 3.25854 12.7138ZM2.14755 13.8342C5.01094 16.7219 9.65343 16.7219 12.5168 13.8342C15.3802 10.9465 15.3802 6.26456 12.5168 3.37684C9.65343 0.489119 5.01094 0.489119 2.14755 3.37684C-0.715849 6.26456 -0.715849 10.9465 2.14755 13.8342Z" fill="black"/>
<path d="M15.5398 2.70496C14.9262 3.32376 13.9314 3.32376 13.3178 2.70496C12.7042 2.08616 12.7042 1.0829 13.3178 0.464098C13.9314 -0.154699 14.9262 -0.154699 15.5398 0.464098C16.1534 1.0829 16.1534 2.08616 15.5398 2.70496Z" fill="black"/>
<path fill-rule="evenodd" clip-rule="evenodd" d="M11.8436 8.67349C10.6164 9.91108 8.62675 9.91108 7.39958 8.67349C6.17241 7.43589 6.17241 5.42935 7.39958 4.19176C8.62675 2.95416 10.6164 2.95416 11.8436 4.19176C13.0707 5.42935 13.0707 7.43589 11.8436 8.67349ZM8.51057 7.55306C9.12416 8.17185 10.119 8.17185 10.7326 7.55306C11.3461 6.93426 11.3461 5.93099 10.7326 5.31219C10.119 4.69339 9.12416 4.69339 8.51057 5.31219C7.89699 5.93099 7.89699 6.93426 8.51057 7.55306Z" fill="black"/>
</svg>
