<svg width="32" height="32" viewBox="0 0 32 32" xmlns="http://www.w3.org/2000/svg" fill="currentColor"><path fill-rule="evenodd" clip-rule="evenodd" d="M15.173.204a1.5 1.5 0 0 1 1.511 0l12.429 7.25a1.5 1.5 0 0 1 .744 1.296v14.5a1.5 1.5 0 0 1-.744 1.296l-12.429 7.25a1.5 1.5 0 0 1-1.511 0l-3.107-1.813a1.5 1.5 0 1 1 1.511-2.591l2.352 1.371 10.928-6.375V9.612L15.93 3.237 5 9.612v12.776l2.234 1.303c.688.221 1.538.275 2.138.01.278-.123.529-.322.727-.68.21-.376.401-1.001.401-2.021V10.5a1.5 1.5 0 0 1 3 0V21c0 1.38-.258 2.543-.78 3.48a4.498 4.498 0 0 1-2.136 1.965c-1.613.713-3.394.42-4.484.03a1.508 1.508 0 0 1-.249-.117l-3.107-1.812A1.5 1.5 0 0 1 2 23.25V8.75a1.5 1.5 0 0 1 .744-1.296L15.173.204zm1.32 10.362C17.287 9.622 18.526 9 20.208 9c1.561 0 2.75.535 3.555 1.386a1.5 1.5 0 1 1-2.18 2.061c-.175-.185-.543-.447-1.375-.447-.884 0-1.249.295-1.418.496-.218.26-.29.588-.29.754 0 .166.072.495.29.754.169.2.534.496 1.418.496.148 0 .292.021.427.061 1.239.179 2.183.735 2.83 1.506a4.27 4.27 0 0 1 .993 2.683 4.27 4.27 0 0 1-.993 2.683C22.672 22.378 21.432 23 19.75 23c-1.561 0-2.75-.535-3.555-1.386a1.5 1.5 0 1 1 2.18-2.061c.176.185.543.447 1.375.447.885 0 1.25-.295 1.418-.496.218-.26.29-.588.29-.754 0-.166-.072-.494-.29-.754-.169-.2-.533-.496-1.418-.496-.148 0-.291-.021-.426-.061-1.24-.179-2.183-.735-2.83-1.505a4.273 4.273 0 0 1-.994-2.684c0-.75.248-1.797.993-2.684z"/></svg>