<svg width="16" height="16" viewBox="0 0 16 16" fill="none" xmlns="http://www.w3.org/2000/svg">
<path fill-rule="evenodd" clip-rule="evenodd" d="M5.7618 1.493C5.62066 1.493 5.50625 1.60441 5.50625 1.74184V4.41162H7.97908C8.40249 4.41162 8.74573 4.74584 8.74573 5.15812C8.74573 5.5704 8.40249 5.90462 7.97908 5.90462H1.78885C1.64771 5.90462 1.5333 6.01603 1.5333 6.15346V10.1584C1.5333 10.2958 1.64771 10.4072 1.78885 10.4072H4.27879C4.41885 10.4072 4.5326 10.2975 4.53432 10.1615V8.98417C4.53432 8.02218 5.33522 7.24233 6.32317 7.24233H9.6768C9.81794 7.24233 9.93236 7.13092 9.93236 6.9935V5.84163C9.93236 5.83889 9.93236 5.83615 9.93238 5.83341V1.74184C9.93238 1.60441 9.81796 1.493 9.67683 1.493H5.7618ZM11.4657 4.11743V1.74184C11.4657 0.779847 10.6648 0 9.67683 0H5.7618C4.77385 0 3.97295 0.779846 3.97295 1.74184V4.41162H1.78885C0.800895 4.41162 0 5.19147 0 6.15346V10.1584C0 11.1204 0.800896 11.9002 1.78885 11.9002H4.27879C4.36555 11.9002 4.45087 11.8942 4.53432 11.8826V14.2582C4.53432 15.2202 5.33522 16 6.32317 16H10.2382C11.2262 16 12.0271 15.2202 12.0271 14.2582V11.5884H14.2112C15.1991 11.5884 16 10.8085 16 9.84654V5.84163C16 4.87964 15.1991 4.09979 14.2111 4.09979H11.7212C11.6344 4.09979 11.5491 4.10581 11.4657 4.11743ZM6.06762 10.1667C6.06764 10.1639 6.06764 10.1611 6.06764 10.1584V9.0065C6.06764 8.86908 6.18206 8.75767 6.32319 8.75767H9.67683C10.6648 8.75767 11.4657 7.97782 11.4657 7.01583V5.83853C11.4674 5.70253 11.5811 5.5928 11.7212 5.5928H14.2111C14.3523 5.5928 14.4667 5.70421 14.4667 5.84163V9.84654C14.4667 9.98397 14.3523 10.0954 14.2112 10.0954H8.02092C7.59751 10.0954 7.25427 10.4296 7.25427 10.8419C7.25427 11.2542 7.59751 11.5884 8.02092 11.5884H10.4938V14.2582C10.4938 14.3956 10.3793 14.507 10.2382 14.507H6.32317C6.18204 14.507 6.06762 14.3956 6.06762 14.2582V10.1667Z" fill="black"/>
</svg>
