<svg width="32" height="32" viewBox="0 0 32 32" xmlns="http://www.w3.org/2000/svg" fill="currentColor"><path fill-rule="evenodd" clip-rule="evenodd" d="M11.664 3.393a.489.489 0 0 0-.496.482v5.173h4.792c.82 0 1.485.647 1.485 1.446 0 .799-.665 1.446-1.486 1.446H3.966a.489.489 0 0 0-.495.482v7.76c0 .266.221.482.495.482H8.79a.489.489 0 0 0 .495-.476v-2.281c0-1.864 1.552-3.375 3.466-3.375h6.498a.489.489 0 0 0 .495-.482V3.875a.489.489 0 0 0-.495-.482h-7.585zm11.05 5.085V3.875C22.715 2.01 21.164.5 19.25.5h-7.585C9.748.5 8.198 2.01 8.198 3.875v5.173H3.966C2.052 9.048.5 10.558.5 12.422v7.76c0 1.864 1.552 3.375 3.466 3.375H8.79c.168 0 .334-.012.495-.034v4.602c0 1.864 1.552 3.375 3.466 3.375h7.586c1.914 0 3.465-1.51 3.465-3.375v-5.172h4.232c1.914 0 3.466-1.511 3.466-3.375v-7.76c0-1.864-1.552-3.375-3.466-3.375H23.21c-.168 0-.334.012-.495.035zm-10.458 11.72V17.95c0-.266.222-.482.495-.482h6.498c1.914 0 3.466-1.511 3.466-3.375v-2.28a.49.49 0 0 1 .495-.477h4.824c.274 0 .495.216.495.482v7.76a.489.489 0 0 1-.495.482H16.041c-.82 0-1.486.647-1.486 1.446 0 .799.665 1.447 1.486 1.447h4.79v5.172a.489.489 0 0 1-.494.482H12.75a.489.489 0 0 1-.495-.482v-7.927z"/></svg>