<svg width="32" height="32" viewBox="0 0 32 32" xmlns="http://www.w3.org/2000/svg" fill="currentColor"><path fill-rule="evenodd" clip-rule="evenodd" d="M9.7 4.97c-.502.29-1.03 1.09-1.092 2.833a1.5 1.5 0 1 1-2.998-.106c.075-2.137.751-4.263 2.59-5.324 1.844-1.065 4.03-.581 5.923.429a1.5 1.5 0 0 1-1.412 2.646c-1.547-.825-2.508-.768-3.011-.477zm8.043 2.603a1.5 1.5 0 0 1 2.112.198 32.987 32.987 0 0 1 3.138 4.536c2.08 3.604 3.363 7.296 3.709 10.392.172 1.546.12 3.017-.241 4.279-.364 1.271-1.073 2.422-2.261 3.108-1.438.83-3.098.712-4.618.159-1.525-.556-3.094-1.607-4.59-2.973a1.5 1.5 0 0 1 2.022-2.215c1.319 1.203 2.557 1.991 3.595 2.369 1.042.38 1.698.288 2.09.062.33-.19.66-.577.877-1.335.22-.769.29-1.82.144-3.12-.29-2.597-1.402-5.894-3.325-9.226a29.986 29.986 0 0 0-2.85-4.122 1.5 1.5 0 0 1 .198-2.112z"/><path fill-rule="evenodd" clip-rule="evenodd" d="M29 16.638c0-.58-.428-1.436-1.907-2.36a1.5 1.5 0 0 1 1.59-2.545C30.498 12.867 32 14.515 32 16.638c0 2.13-1.512 3.78-3.333 4.915a1.5 1.5 0 0 1-1.586-2.546C28.57 18.08 29 17.219 29 16.638zm-6.275 5.665a1.5 1.5 0 0 1-1.227 1.73 32.98 32.98 0 0 1-5.498.449c-4.16 0-8-.735-10.854-1.984-1.425-.623-2.673-1.405-3.585-2.348C.642 19.2 0 18.01 0 16.638c0-1.66.932-3.039 2.171-4.078 1.243-1.043 2.938-1.877 4.87-2.49a1.5 1.5 0 0 1 .907 2.86c-1.701.54-3.003 1.219-3.849 1.928C3.25 15.571 3 16.185 3 16.638c0 .38.17.86.718 1.427.555.574 1.431 1.16 2.63 1.685 2.394 1.047 5.805 1.732 9.652 1.732 1.77 0 3.455-.145 4.995-.407a1.5 1.5 0 0 1 1.73 1.228z"/><path fill-rule="evenodd" clip-rule="evenodd" d="M9.744 27.488c.502.29 1.458.347 2.998-.471a1.5 1.5 0 1 1 1.408 2.649c-1.888 1.003-4.068 1.481-5.906.42-1.844-1.065-2.518-3.2-2.59-5.344a1.5 1.5 0 1 1 2.998-.1c.059 1.752.588 2.555 1.092 2.846zM7.976 19.22a1.5 1.5 0 0 1-.885-1.928 32.984 32.984 0 0 1 2.36-4.986c2.08-3.603 4.636-6.56 7.145-8.408 1.253-.922 2.553-1.612 3.826-1.93 1.283-.32 2.633-.282 3.822.404 1.438.83 2.166 2.327 2.446 3.92.282 1.597.156 3.482-.278 5.46a1.5 1.5 0 1 1-2.93-.643c.383-1.743.445-3.21.254-4.297-.193-1.093-.6-1.616-.992-1.842-.329-.19-.83-.283-1.595-.092-.775.194-1.72.66-2.774 1.436-2.103 1.549-4.402 4.16-6.326 7.492a29.993 29.993 0 0 0-2.145 4.53 1.5 1.5 0 0 1-1.928.884z"/><path d="M18.919 16.36a2.719 2.719 0 1 1-5.438 0 2.719 2.719 0 0 1 5.438 0z"/></svg>