<svg width="16" height="16" viewBox="0 0 16 16" fill="none" xmlns="http://www.w3.org/2000/svg">
<path d="M10.1333 8C10.1333 9.17821 9.17821 10.1333 8 10.1333C6.82179 10.1333 5.86667 9.17821 5.86667 8C5.86667 6.82179 6.82179 5.86667 8 5.86667C9.17821 5.86667 10.1333 6.82179 10.1333 8Z" fill="black"/>
<path fill-rule="evenodd" clip-rule="evenodd" d="M8 11.4667C9.91459 11.4667 11.4667 9.91459 11.4667 8C11.4667 6.08541 9.91459 4.53333 8 4.53333C6.08541 4.53333 4.53333 6.08541 4.53333 8C4.53333 9.91459 6.08541 11.4667 8 11.4667ZM8 13.0667C10.7982 13.0667 13.0667 10.7982 13.0667 8C13.0667 5.20176 10.7982 2.93333 8 2.93333C5.20176 2.93333 2.93333 5.20176 2.93333 8C2.93333 10.7982 5.20176 13.0667 8 13.0667Z" fill="black"/>
<path fill-rule="evenodd" clip-rule="evenodd" d="M8 14.4C11.5346 14.4 14.4 11.5346 14.4 8C14.4 4.46538 11.5346 1.6 8 1.6C4.46538 1.6 1.6 4.46538 1.6 8C1.6 11.5346 4.46538 14.4 8 14.4ZM8 16C12.4183 16 16 12.4183 16 8C16 3.58172 12.4183 0 8 0C3.58172 0 0 3.58172 0 8C0 12.4183 3.58172 16 8 16Z" fill="black"/>
</svg>
