<svg width="16" height="16" viewBox="0 0 16 16" fill="none" xmlns="http://www.w3.org/2000/svg">
<path d="M9.6 8C9.6 8.88366 8.88366 9.6 8 9.6C7.11635 9.6 6.4 8.88366 6.4 8C6.4 7.11635 7.11635 6.4 8 6.4C8.88366 6.4 9.6 7.11635 9.6 8Z" fill="black"/>
<path fill-rule="evenodd" clip-rule="evenodd" d="M8 11.2C9.76731 11.2 11.2 9.76731 11.2 8C11.2 6.23269 9.76731 4.8 8 4.8C6.23269 4.8 4.8 6.23269 4.8 8C4.8 9.76731 6.23269 11.2 8 11.2ZM8 12.8C10.651 12.8 12.8 10.651 12.8 8C12.8 5.34903 10.651 3.2 8 3.2C5.34903 3.2 3.2 5.34903 3.2 8C3.2 10.651 5.34903 12.8 8 12.8Z" fill="black"/>
<path fill-rule="evenodd" clip-rule="evenodd" d="M8 14.4C11.5346 14.4 14.4 11.5346 14.4 8C14.4 4.46538 11.5346 1.6 8 1.6C4.46538 1.6 1.6 4.46538 1.6 8C1.6 11.5346 4.46538 14.4 8 14.4ZM8 16C12.4183 16 16 12.4183 16 8C16 3.58172 12.4183 0 8 0C3.58172 0 0 3.58172 0 8C0 12.4183 3.58172 16 8 16Z" fill="black"/>
</svg>
