<svg width="16" height="16" viewBox="0 0 16 16" fill="none" xmlns="http://www.w3.org/2000/svg">
<path fill-rule="evenodd" clip-rule="evenodd" d="M8 0C8.42758 0 8.77419 0.346618 8.77419 0.774194V1.70194C9.07492 1.73794 9.36933 1.79464 9.65592 1.87056L9.94251 1.17866C10.1061 0.783634 10.559 0.596045 10.954 0.759672C11.3491 0.923298 11.5367 1.37618 11.373 1.7712L11.0939 2.445C11.384 2.60378 11.6605 2.78416 11.9212 2.98395L12.562 2.34315C12.8643 2.04081 13.3545 2.04081 13.6569 2.34315C13.9592 2.6455 13.9592 3.13569 13.6569 3.43803L13.029 4.06588C13.2717 4.36748 13.4878 4.69149 13.6739 5.0344L14.3132 4.76959C14.7082 4.60596 15.1611 4.79355 15.3248 5.18858C15.4884 5.58361 15.3008 6.03648 14.9058 6.20011L14.243 6.47464C14.3159 6.75413 14.3705 7.04083 14.4056 7.33333H15.2258C15.6534 7.33333 16 7.67995 16 8.10753C16 8.5351 15.6534 8.88172 15.2258 8.88172H14.4056C14.3629 9.2383 14.2911 9.58599 14.1927 9.92232L14.8646 10.2006C15.2597 10.3643 15.4472 10.8171 15.2836 11.2122C15.12 11.6072 14.6671 11.7948 14.2721 11.6312L13.5922 11.3496C13.4593 11.5925 13.3107 11.8272 13.147 12.0521L13.6569 12.562C13.9592 12.8643 13.9592 13.3545 13.6569 13.6569C13.3545 13.9592 12.8643 13.9592 12.562 13.6569L12.0909 13.1858C11.787 13.4416 11.4562 13.6719 11.1003 13.8718L11.373 14.5302C11.5367 14.9252 11.3491 15.3781 10.954 15.5417C10.559 15.7054 10.1061 15.5178 9.9425 15.1227L9.66977 14.4643C9.37271 14.5477 9.0735 14.6087 8.77419 14.6481V15.2258C8.77419 15.6534 8.42758 16 8 16C7.57242 16 7.22581 15.6534 7.22581 15.2258V14.6637C6.85162 14.6221 6.48303 14.5479 6.12425 14.4429L5.84264 15.1228C5.67902 15.5178 5.22614 15.7054 4.83111 15.5417C4.43608 15.3781 4.24849 14.9252 4.41212 14.5302L4.70072 13.8335C4.40276 13.6612 4.11787 13.4647 3.84934 13.2455L3.43803 13.6569C3.13569 13.9592 2.6455 13.9592 2.34315 13.6569C2.04081 13.3545 2.04081 12.8643 2.34315 12.562L2.77644 12.1287C2.60776 11.9041 2.4524 11.6665 2.312 11.4166L1.55421 11.7305C1.15919 11.8941 0.706307 11.7065 0.542681 11.3115C0.379055 10.9165 0.566643 10.4636 0.961671 10.3L1.71945 9.9861C1.61671 9.61996 1.54794 9.25056 1.51156 8.88172H0.774194C0.346618 8.88172 0 8.5351 0 8.10753C0 7.67995 0.346618 7.33333 0.774194 7.33333H1.54671C1.5904 7.03077 1.65543 6.73242 1.74087 6.44057L0.920533 6.10077C0.525505 5.93715 0.337916 5.48427 0.501542 5.08924C0.665168 4.69421 1.11805 4.50662 1.51307 4.67025L2.33827 5.01206C2.52158 4.67741 2.73361 4.36092 2.971 4.06587L2.34315 3.43803C2.04081 3.13569 2.04081 2.64549 2.34315 2.34315C2.64549 2.04081 3.13569 2.04081 3.43803 2.34315L4.07882 2.98394C4.28692 2.82448 4.50506 2.67738 4.73212 2.54376L4.41211 1.7712C4.24848 1.37617 4.43607 0.923293 4.8311 0.759667C5.22613 0.596041 5.67901 0.783629 5.84263 1.17866L6.15168 1.92476C6.49841 1.82122 6.85736 1.74604 7.22581 1.70194V0.774194C7.22581 0.346618 7.57242 0 8 0ZM7.22581 3.39686V3.87097C7.22581 4.29854 7.57242 4.64516 8 4.64516C8.42758 4.64516 8.77419 4.29854 8.77419 3.87097V3.41862C9.10843 3.47715 9.4352 3.57011 9.74922 3.69531C10.7579 4.09748 11.6315 4.83085 12.1948 5.82301L11.6877 5.98777C11.281 6.1199 11.0585 6.55667 11.1906 6.96331C11.3228 7.36996 11.7595 7.5925 12.1662 7.46038L12.7399 7.27398C12.9348 8.22753 12.8354 9.19547 12.4885 10.0655C12.4594 10.1384 12.4286 10.2105 12.3962 10.2819C12.1686 10.7411 11.871 11.1597 11.5172 11.5238L11.1739 11.0514C10.9226 10.7055 10.4384 10.6288 10.0925 10.8801C9.7466 11.1314 9.66992 11.6156 9.92124 11.9615L10.2771 12.4513C9.59695 12.8086 8.82271 13.0108 8 13.0108C7.17729 13.0108 6.40305 12.8086 5.72293 12.4513L6.19938 11.7955C6.4507 11.4496 6.37402 10.9654 6.0281 10.7141C5.68219 10.4628 5.19803 10.5395 4.94671 10.8854L4.48283 11.5238C3.62421 10.6401 3.09677 9.43617 3.09677 8.10753C3.09677 7.81299 3.12266 7.52494 3.17219 7.2454L3.83385 7.46039C4.2405 7.59252 4.67727 7.36998 4.80939 6.96333C4.94152 6.55668 4.71898 6.11991 4.31233 5.98779L3.69377 5.7868C4.21479 4.88813 5.02362 4.14823 6.05733 3.72006C6.44097 3.56115 6.83306 3.4545 7.22581 3.39686Z" fill="black"/>
</svg>
