<svg width="16" height="16" viewBox="0 0 16 16" fill="none" xmlns="http://www.w3.org/2000/svg">
<g clip-path="url(#clip0)">
<path fill-rule="evenodd" clip-rule="evenodd" d="M12.7116 0.163142C12.8936 0.30911 13 0.53307 13 0.770257V13.0461C13 13.3996 12.7658 13.7076 12.4319 13.7934L3.9319 15.9757C3.70785 16.0333 3.47048 15.9816 3.28844 15.8356C3.1064 15.6896 3 15.4657 3 15.2285V2.95262C3 2.59918 3.23422 2.29109 3.5681 2.20537L12.0681 0.0230046C12.2922 -0.0345216 12.5295 0.0171741 12.7116 0.163142ZM4.5 3.55402V5.90663L11.5 3.99705V1.75677L4.5 3.55402ZM11.5 5.59097L4.5 7.50055V10.15L11.5 8.35277V5.59097ZM11.5 9.94068L4.5 11.7379V14.242L11.5 12.4447V9.94068Z" fill="black"/>
</g>
<defs>
<clipPath id="clip0">
<rect width="16" height="16" fill="white"/>
</clipPath>
</defs>
</svg>
