<svg width="16" height="16" viewBox="0 0 16 16" fill="none" xmlns="http://www.w3.org/2000/svg">
<g clip-path="url(#clip0)">
<path fill-rule="evenodd" clip-rule="evenodd" d="M6.1307 0.222626C6.42717 0.517039 6.42717 0.994379 6.1307 1.28879C5.32242 2.09147 4.7813 3.71672 4.60862 5.46292C4.52462 6.31246 4.53335 7.14077 4.6236 7.83774C4.64922 8.03554 4.68059 8.21633 4.7162 8.37971L9.75376 3.3771C10.0502 3.08269 10.5309 3.08269 10.8274 3.3771C11.1238 3.67152 11.1238 4.14886 10.8274 4.44327L4.96895 10.2611C4.80923 10.4197 4.58667 10.4994 4.36176 10.4786C4.13685 10.4578 3.93294 10.3386 3.80545 10.1535C3.43045 9.60879 3.22151 8.83187 3.11768 8.03005C3.01092 7.20557 3.00395 6.26223 3.09757 5.31556C3.12063 5.08238 3.15014 4.84571 3.18652 4.60776C2.82805 5.10538 2.50045 5.62285 2.23106 6.15091C1.74949 7.09488 1.4822 8.02032 1.52229 8.88943C1.56132 9.73584 1.89376 10.5899 2.72896 11.4193C2.93025 11.6192 3.00201 11.9141 2.91485 12.1832L2.51942 13.4042L3.7487 13.0113C4.01972 12.9247 4.31676 12.9959 4.51808 13.1959C5.41273 14.0843 6.3001 14.4374 7.15115 14.4876C8.02257 14.5391 8.93525 14.2771 9.8638 13.7949C10.4097 13.5113 10.9418 13.1626 11.4526 12.7801C11.1882 12.8228 10.9248 12.8568 10.6653 12.8827C9.71723 12.9771 8.77111 12.968 7.93797 12.8547C7.12373 12.7439 6.33937 12.5232 5.77693 12.1368C5.59177 12.0096 5.47301 11.8074 5.45276 11.5847C5.4325 11.362 5.51282 11.1419 5.67203 10.9837L11.5428 5.15372C11.8393 4.85931 12.3199 4.85931 12.6164 5.15372C12.9129 5.44813 12.9129 5.92547 12.6164 6.21989L7.54913 11.252C7.72779 11.2943 7.92634 11.3312 8.1441 11.3608C8.84323 11.456 9.66814 11.4667 10.5137 11.3824C12.2458 11.2098 13.869 10.6611 14.7027 9.83437C14.7031 9.83392 14.7036 9.83348 14.704 9.83303C15.0005 9.53861 15.4812 9.53861 15.7776 9.83303C16.0741 10.1274 16.0741 10.6048 15.7776 10.8992C15.7107 10.9657 15.6416 11.0345 15.5704 11.1054C14.3719 12.2992 12.5764 14.0876 10.5674 15.131C9.49185 15.6896 8.29962 16.0659 7.06105 15.9927C5.92863 15.9259 4.82146 15.4869 3.78805 14.5827L1.57632 15.2895C1.30533 15.3761 1.00831 15.3049 0.806993 15.105C0.605673 14.9051 0.533889 14.6102 0.621056 14.341L1.33307 12.1427C0.465745 11.1517 0.0567983 10.0695 0.00555117 8.95842C-0.0506248 7.74044 0.32521 6.55039 0.87663 5.4695C1.97165 3.32304 3.86996 1.40154 5.05614 0.223562C5.05645 0.22325 5.05677 0.222939 5.05708 0.222627C5.35355 -0.0717874 5.83423 -0.0717881 6.1307 0.222626Z" fill="black"/>
</g>
<defs>
<clipPath id="clip0">
<rect width="16" height="16" fill="white"/>
</clipPath>
</defs>
</svg>
