<svg width="32" height="32" viewBox="0 0 32 32" xmlns="http://www.w3.org/2000/svg" fill="currentColor"><path fill-rule="evenodd" clip-rule="evenodd" d="M0 3.5A3.5 3.5 0 0 1 3.5 0h25A3.5 3.5 0 0 1 32 3.5v4a1.5 1.5 0 0 1-3 0v-4a.5.5 0 0 0-.5-.5h-25a.5.5 0 0 0-.5.5v25a.5.5 0 0 0 .5.5h27a1.5 1.5 0 0 1 0 3h-27A3.5 3.5 0 0 1 0 28.5v-25zM9.5 13a1.5 1.5 0 0 1 1.5-1.5h7.5a1.5 1.5 0 0 1 0 3h-2V25a1.5 1.5 0 0 1-3 0V14.5H11A1.5 1.5 0 0 1 9.5 13zm13.051.16c.838-.997 2.15-1.66 3.949-1.66 1.67 0 2.93.571 3.779 1.47a1.5 1.5 0 0 1-2.18 2.06c-.22-.232-.658-.53-1.599-.53-1.001 0-1.439.337-1.651.59a1.535 1.535 0 0 0-.349.91c0 .208.087.599.349.91.212.253.65.59 1.651.59a1.5 1.5 0 0 1 .435.064c1.326.189 2.329.781 3.014 1.596A4.526 4.526 0 0 1 31 22c0 .792-.263 1.901-1.051 2.84-.838.997-2.15 1.66-3.949 1.66-1.67 0-2.93-.571-3.779-1.47a1.5 1.5 0 0 1 2.18-2.06c.22.232.658.53 1.599.53 1.001 0 1.439-.337 1.651-.59.262-.311.349-.702.349-.91 0-.208-.087-.599-.349-.91-.212-.253-.65-.59-1.651-.59a1.5 1.5 0 0 1-.435-.064c-1.326-.189-2.329-.781-3.014-1.596A4.526 4.526 0 0 1 21.5 16c0-.792.263-1.901 1.051-2.84z"/></svg>