<svg width="32" height="32" viewBox="0 0 32 32" xmlns="http://www.w3.org/2000/svg" fill="currentColor"><path fill-rule="evenodd" clip-rule="evenodd" d="M0 3.5A3.5 3.5 0 0 1 3.5 0h25A3.5 3.5 0 0 1 32 3.5v25a3.5 3.5 0 0 1-3.5 3.5h-25A3.5 3.5 0 0 1 0 28.5v-25zM3.5 3a.5.5 0 0 0-.5.5v25a.5.5 0 0 0 .5.5h25a.5.5 0 0 0 .5-.5v-25a.5.5 0 0 0-.5-.5h-25zm20.01 4.59a1.5 1.5 0 0 1 .9 1.92l-4.75 13.16c-1.085 3.002-5.295 3.104-6.523.156l-5.52-13.25a1.5 1.5 0 0 1 2.769-1.153l5.52 13.25a.5.5 0 0 0 .932-.023L21.59 8.49a1.5 1.5 0 0 1 1.92-.9z"/></svg>