<svg width="32" height="32" viewBox="0 0 32 32" xmlns="http://www.w3.org/2000/svg" fill="currentColor"><path fill-rule="evenodd" clip-rule="evenodd" d="M0 3.5A3.5 3.5 0 0 1 3.5 0h25A3.5 3.5 0 0 1 32 3.5v25a3.5 3.5 0 0 1-3.5 3.5h-25A3.5 3.5 0 0 1 0 28.5v-25zM3.5 3a.5.5 0 0 0-.5.5v25a.5.5 0 0 0 .5.5h25a.5.5 0 0 0 .5-.5v-25a.5.5 0 0 0-.5-.5h-25zm4.972 3.596a1.5 1.5 0 0 1 1.657.416L21.5 20.008V8a1.5 1.5 0 0 1 3 0v16a1.5 1.5 0 0 1-2.629.988L10.5 11.992V24a1.5 1.5 0 0 1-3 0V8a1.5 1.5 0 0 1 .972-1.404z"/></svg>