<svg width="32" height="32" viewBox="0 0 32 32" xmlns="http://www.w3.org/2000/svg" fill="currentColor"><path fill-rule="evenodd" clip-rule="evenodd" d="M0 3.5A3.5 3.5 0 0 1 3.5 0h25A3.5 3.5 0 0 1 32 3.5v25a3.5 3.5 0 0 1-3.5 3.5h-25A3.5 3.5 0 0 1 0 28.5v-25zM3.5 3a.5.5 0 0 0-.5.5v25a.5.5 0 0 0 .5.5h25a.5.5 0 0 0 .5-.5v-25a.5.5 0 0 0-.5-.5h-25zm6.68 5.4c1.242-1.15 3.139-1.9 5.82-1.9 2.682 0 4.579.751 5.82 1.9 1.217 1.127 1.68 2.531 1.68 3.6a1.5 1.5 0 1 1-3 0c0-.264-.137-.86-.72-1.4-.559-.518-1.662-1.1-3.78-1.1s-3.221.582-3.78 1.1c-.583.54-.72 1.136-.72 1.4s.137.86.72 1.4c.559.518 1.662 1.1 3.78 1.1 2.682 0 4.579.751 5.82 1.9 1.217 1.127 1.68 2.53 1.68 3.6 0 1.069-.463 2.473-1.68 3.6-1.241 1.149-3.138 1.9-5.82 1.9-2.682 0-4.579-.751-5.82-1.9C8.964 22.474 8.5 21.07 8.5 20a1.5 1.5 0 1 1 3 0c0 .264.137.86.72 1.4.559.518 1.662 1.1 3.78 1.1s3.221-.582 3.78-1.1c.583-.54.72-1.136.72-1.4s-.137-.86-.72-1.4c-.559-.518-1.662-1.1-3.78-1.1-2.682 0-4.579-.75-5.82-1.9C8.964 14.474 8.5 13.07 8.5 12c0-1.069.463-2.473 1.68-3.6z"/></svg>