<svg width="32" height="32" viewBox="0 0 32 32" xmlns="http://www.w3.org/2000/svg" fill="currentColor"><path fill-rule="evenodd" clip-rule="evenodd" d="M0 2A1.5 1.5 0 0 1 1.5.5h11.61a1.5 1.5 0 0 1 1.5 1.5v6a1.5 1.5 0 0 1-1.449 1.5v2.633l3.954-3.556A1.494 1.494 0 0 1 17 8V2A1.5 1.5 0 0 1 18.5.5h12A1.5 1.5 0 0 1 32 2v6a1.5 1.5 0 0 1-.48 1.1L8.335 30.632a1.5 1.5 0 0 1-1.02.4h-2.9a1.5 1.5 0 0 1-.832-.251l-1.449-.966a1.5 1.5 0 0 1-.668-1.248V9.5A1.5 1.5 0 0 1 0 8V2zm3 4.5A1.5 1.5 0 0 1 4.466 8v19.765l.403.269h1.855L29 7.346V3.5h-9v3a1.5 1.5 0 0 1 1.003 2.615l-8.339 7.5a1.5 1.5 0 0 1-2.503-1.115V8a1.5 1.5 0 0 1 1.45-1.5v-3H3v3z"/></svg>