<svg width="32" height="32" viewBox="0 0 32 32" xmlns="http://www.w3.org/2000/svg" fill="currentColor"><path fill-rule="evenodd" clip-rule="evenodd" d="M0 3.5A3.5 3.5 0 0 1 3.5 0h25A3.5 3.5 0 0 1 32 3.5v25a3.5 3.5 0 0 1-3.5 3.5h-25A3.5 3.5 0 0 1 0 28.5v-25zM3.5 3a.5.5 0 0 0-.5.5v25a.5.5 0 0 0 .5.5h25a.5.5 0 0 0 .5-.5v-25a.5.5 0 0 0-.5-.5h-25zm5 5A1.5 1.5 0 0 1 10 6.5h7.2a5.5 5.5 0 0 1 1.19 10.87l4.039 5.77a1.5 1.5 0 1 1-2.458 1.72L14.82 17.5H11.5V24a1.5 1.5 0 0 1-3 0V8zm3 6.5h5.7a2.5 2.5 0 0 0 0-5h-5.7v5z"/></svg>