<svg width="32" height="32" viewBox="0 0 32 32" xmlns="http://www.w3.org/2000/svg" fill="currentColor"><path fill-rule="evenodd" clip-rule="evenodd" d="M2.136.763a1.476 1.476 0 0 1 2.054.373L7.467 5.87l3.688-4.794a1.476 1.476 0 1 1 2.34 1.8l-4.614 6v5.402a1.476 1.476 0 0 1-2.952 0V8.834L1.762 2.817A1.476 1.476 0 0 1 2.136.763zM17.738.5c.585 0 1.115.346 1.351.882l5.413 12.301a1.476 1.476 0 0 1-2.703 1.19l-1.344-3.055h-5.434l-1.345 3.054a1.476 1.476 0 1 1-2.702-1.189l5.413-12.301A1.476 1.476 0 0 1 17.738.5zM16.32 8.865h2.836l-1.418-3.223-1.418 3.223zm2.82 8.426a1.476 1.476 0 0 1 1.058 1.415v11.318a1.476 1.476 0 1 1-2.952 0v-6.319l-2.697 4.168a1.476 1.476 0 0 1-2.42.084l-3.248-4.33v6.397a1.476 1.476 0 1 1-2.952 0V19.198a1.476 1.476 0 0 1 2.657-.885l4.634 6.18 4.263-6.588c.355-.55 1.03-.8 1.657-.614zm4.503-.06c.815 0 1.476.66 1.476 1.475v9.842h3.936a1.476 1.476 0 1 1 0 2.952h-5.412c-.816 0-1.476-.66-1.476-1.476V18.706c0-.815.66-1.476 1.476-1.476z"/></svg>