<svg width="32" height="32" viewBox="0 0 32 32" fill="none" xmlns="http://www.w3.org/2000/svg">
<path d="M5.00071 24.333L4.25124 25.6324L4.25124 25.6324L5.00071 24.333ZM14.7182 29.9381L15.4676 28.6388L15.4676 28.6388L14.7182 29.9381ZM16.6785 29.9596L15.9577 28.6441L15.9577 28.6441L16.6785 29.9596ZM26.9611 24.3251L26.2403 23.0096L26.2403 23.0096L26.9611 24.3251ZM20.7308 8.5H22.2308C22.2308 7.67157 21.5592 7 20.7308 7V8.5ZM11.5 7C10.6716 7 10 7.67157 10 8.5C10 9.32843 10.6716 10 11.5 10V7ZM14 13.4231C13.1716 13.4231 12.5 14.0946 12.5 14.9231C12.5 15.7515 13.1716 16.4231 14 16.4231V13.4231ZM20.7308 20.6923L21.4016 22.0339C21.9098 21.7799 22.2308 21.2605 22.2308 20.6923H20.7308ZM16.1154 23L15.4446 24.3416C15.8669 24.5528 16.3639 24.5528 16.7862 24.3416L16.1154 23ZM11.5 20.6923H10C10 21.2605 10.321 21.7799 10.8292 22.0339L11.5 20.6923ZM13 19.5385C13 18.71 12.3284 18.0385 11.5 18.0385C10.6716 18.0385 10 18.71 10 19.5385H13ZM2.5 3.5V22.6006H5.5V3.5H2.5ZM4.25124 25.6324L13.9687 31.2374L15.4676 28.6388L5.75018 23.0337L4.25124 25.6324ZM17.3994 31.275L27.6819 25.6406L26.2403 23.0096L15.9577 28.6441L17.3994 31.275ZM29.5 22.5712V3.5H26.5V22.5712H29.5ZM26 0H6V3H26V0ZM29.5 3.5C29.5 1.56701 27.933 0 26 0V3C26.2761 3 26.5 3.22386 26.5 3.5H29.5ZM27.6819 25.6406C28.803 25.0262 29.5 23.8495 29.5 22.5712H26.5C26.5 22.7538 26.4004 22.9219 26.2403 23.0096L27.6819 25.6406ZM13.9687 31.2374C15.0273 31.848 16.3277 31.8623 17.3994 31.275L15.9577 28.6441C15.8046 28.728 15.6188 28.726 15.4676 28.6388L13.9687 31.2374ZM2.5 22.6006C2.5 23.8515 3.16764 25.0073 4.25124 25.6324L5.75018 23.0337C5.59538 22.9444 5.5 22.7793 5.5 22.6006H2.5ZM5.5 3.5C5.5 3.22386 5.72386 3 6 3V0C4.067 0 2.5 1.567 2.5 3.5H5.5ZM20.7308 7H11.5V10H20.7308V7ZM14 16.4231H20.7308V13.4231H14V16.4231ZM19.2308 14.9231V20.6923H22.2308V14.9231H19.2308ZM20.0599 19.3507L15.4446 21.6584L16.7862 24.3416L21.4016 22.0339L20.0599 19.3507ZM16.7862 21.6584L12.1708 19.3507L10.8292 22.0339L15.4446 24.3416L16.7862 21.6584ZM13 20.6923V19.5385H10V20.6923H13ZM19.2308 8.5V14.9231H22.2308V8.5H19.2308Z" fill="black"/>
</svg>
