<svg width="32" height="32" viewBox="0 0 32 32" fill="none" xmlns="http://www.w3.org/2000/svg">
<path d="M16 30.5C24.0081 30.5 30.5 24.0081 30.5 16C30.5 7.99187 24.0081 1.5 16 1.5C7.99187 1.5 1.5 7.99187 1.5 16C1.5 24.0081 7.99187 30.5 16 30.5ZM16 30.5C6 30.5 4.83332 20.8333 5.49998 16C6.69999 7.59997 13 6.8333 16 7.49997C17.8333 7.99997 21.5 10.4 21.5 16C21.5 21.6 17.8333 24 16 24.5M16.5 7.51474C14.6667 8.01474 11 10.4147 11 16.0147C11 21.6147 14.6667 24.0147 16.5 24.5147C19.5 25.1814 25.8 24.4147 27 16.0147C27.6667 11.1814 26.5 1.51474 16.5 1.51474" stroke="black" stroke-width="3"/>
</svg>
