<svg width="32" height="32" viewBox="0 0 32 32" fill="none" xmlns="http://www.w3.org/2000/svg">
<path d="M15.9286 1.5L16.6844 0.204332C16.2173 -0.0681106 15.6398 -0.0681106 15.1728 0.204332L15.9286 1.5ZM3.5 8.75L2.74419 7.45433C2.28337 7.72315 2 8.2165 2 8.75H3.5ZM3.5 23.25H2C2 23.7835 2.28337 24.2769 2.74419 24.5457L3.5 23.25ZM15.9286 30.5L15.1728 31.7957C15.6398 32.0681 16.2173 32.0681 16.6844 31.7957L15.9286 30.5ZM28.3571 23.25L29.1129 24.5457C29.5738 24.2769 29.8571 23.7835 29.8571 23.25H28.3571ZM28.3571 8.75H29.8571C29.8571 8.2165 29.5738 7.72315 29.1129 7.45433L28.3571 8.75ZM13.5772 27.3918C12.8617 26.9744 11.9432 27.2161 11.5258 27.9317C11.1083 28.6473 11.35 29.5657 12.0656 29.9832L13.5772 27.3918ZM6.60714 25.0625L5.85134 26.3582C5.9305 26.4043 6.01373 26.4432 6.09997 26.4742L6.60714 25.0625ZM13.5 10.5C13.5 9.67157 12.8284 9 12 9C11.1716 9 10.5 9.67157 10.5 10.5H13.5ZM20.2083 17.5C21.0368 17.5 21.7083 16.8284 21.7083 16C21.7083 15.1716 21.0368 14.5 20.2083 14.5V17.5ZM21.5828 12.447C22.1518 13.0491 23.1012 13.0758 23.7033 12.5068C24.3053 11.9377 24.3321 10.9883 23.763 10.3863L21.5828 12.447ZM19.75 14.5C18.9216 14.5 18.25 15.1716 18.25 16C18.25 16.8284 18.9216 17.5 19.75 17.5V14.5ZM18.3756 19.553C17.8065 18.9509 16.8571 18.9242 16.2551 19.4932C15.653 20.0623 15.6263 21.0117 16.1954 21.6137L18.3756 19.553ZM15.1728 0.204332L2.74419 7.45433L4.25581 10.0457L16.6844 2.79567L15.1728 0.204332ZM2 8.75V23.25H5V8.75H2ZM16.6844 31.7957L29.1129 24.5457L27.6013 21.9543L15.1728 29.2043L16.6844 31.7957ZM29.8571 23.25V8.75H26.8571V23.25H29.8571ZM29.1129 7.45433L16.6844 0.204332L15.1728 2.79567L27.6013 10.0457L29.1129 7.45433ZM12.0656 29.9832L15.1728 31.7957L16.6844 29.2043L13.5772 27.3918L12.0656 29.9832ZM2.74419 24.5457L5.85134 26.3582L7.36295 23.7668L4.25581 21.9543L2.74419 24.5457ZM6.09997 26.4742C7.19047 26.8659 8.97123 27.1579 10.5838 26.4455C11.4293 26.072 12.1894 25.4352 12.7209 24.4798C13.2421 23.5432 13.5 22.3804 13.5 21H10.5C10.5 22.0196 10.3085 22.6454 10.0994 23.0213C9.90061 23.3786 9.64954 23.5785 9.37152 23.7014C8.7371 23.9816 7.82144 23.9049 7.11431 23.6508L6.09997 26.4742ZM13.5 21V10.5H10.5V21H13.5ZM20.2083 9C18.5264 9 17.2868 9.62161 16.4931 10.5665C15.7485 11.4529 15.5 12.4997 15.5 13.25H18.5C18.5 13.0837 18.5723 12.7555 18.7902 12.496C18.959 12.2951 19.3236 12 20.2083 12V9ZM15.5 13.25C15.5 14.0003 15.7485 15.0471 16.4931 15.9335C17.2868 16.8784 18.5264 17.5 20.2083 17.5V14.5C19.3236 14.5 18.959 14.2049 18.7902 14.004C18.5723 13.7445 18.5 13.4163 18.5 13.25H15.5ZM23.763 10.3863C22.9584 9.53511 21.7694 9 20.2083 9V12C21.0404 12 21.4076 12.2617 21.5828 12.447L23.763 10.3863ZM19.75 23C21.432 23 22.6716 22.3784 23.4652 21.4335C24.2098 20.5471 24.4584 19.5003 24.4584 18.75H21.4584C21.4584 18.9163 21.3861 19.2445 21.1681 19.504C20.9993 19.7049 20.6347 20 19.75 20V23ZM24.4584 18.75C24.4584 17.9997 24.2098 16.9529 23.4652 16.0665C22.6716 15.1216 21.432 14.5 19.75 14.5V17.5C20.6347 17.5 20.9993 17.7951 21.1681 17.996C21.3861 18.2555 21.4584 18.5837 21.4584 18.75H24.4584ZM16.1954 21.6137C16.9999 22.4649 18.189 23 19.75 23V20C18.918 20 18.5507 19.7383 18.3756 19.553L16.1954 21.6137Z" fill="black"/>
</svg>
