<svg width="32" height="32" viewBox="0 0 32 32" fill="none" xmlns="http://www.w3.org/2000/svg">
<path d="M13.4165 4.125C11.6966 3.20747 10.1234 2.9943 8.94978 3.67188C7.77955 4.34751 7.17762 5.8101 7.10941 7.75M18.6997 8.72777C19.7526 9.99859 20.7685 11.455 21.6936 13.0574C25.6977 19.9926 26.484 27.0348 23.4498 28.7866C21.6196 29.8433 18.8174 28.7337 16.003 26.1647" stroke="black" stroke-width="3" stroke-linecap="round" stroke-linejoin="round"/>
<path d="M27.8742 20.2799C29.5288 19.2492 30.5 17.9933 30.5 16.6382C30.5 15.2869 29.5343 14.0343 27.8884 13.0053M21.2465 22.5539C19.6195 22.8303 17.8502 22.9819 16 22.9819C7.99187 22.9819 1.5 20.1417 1.5 16.6382C1.5 14.5248 3.86202 12.6529 7.49407 11.5" stroke="black" stroke-width="3" stroke-linecap="round" stroke-linejoin="round"/>
<path d="M7.1529 24.6917C7.21823 26.64 7.82026 28.109 8.99385 28.7866C10.1641 29.4622 11.7317 29.2522 13.4458 28.3414M8.49741 17.815C9.07155 16.2678 9.82489 14.6597 10.75 13.0574C14.7541 6.12212 20.4597 1.9201 23.4939 3.67187C25.324 4.72854 25.7642 7.71009 24.9466 11.432" stroke="black" stroke-width="3" stroke-linecap="round" stroke-linejoin="round"/>
<circle cx="16.1997" cy="16.3594" r="2.71875" fill="black"/>
</svg>
