<svg width="32" height="32" viewBox="0 0 32 32" fill="none" xmlns="http://www.w3.org/2000/svg">
<path d="M29 7.5C29 8.32843 29.6716 9 30.5 9C31.3284 9 32 8.32843 32 7.5H29ZM30.5 32C31.3284 32 32 31.3284 32 30.5C32 29.6716 31.3284 29 30.5 29V32ZM26.5 20.5C27.3284 20.5 28 19.8284 28 19C28 18.1716 27.3284 17.5 26.5 17.5V20.5ZM28.0985 15.0304C28.6676 15.6324 29.6169 15.6592 30.219 15.0901C30.821 14.521 30.8478 13.5717 30.2787 12.9696L28.0985 15.0304ZM26 17.5C25.1716 17.5 24.5 18.1716 24.5 19C24.5 19.8284 25.1716 20.5 26 20.5V17.5ZM24.4015 22.9696C23.8324 22.3676 22.8831 22.3408 22.281 22.9099C21.679 23.479 21.6522 24.4283 22.2213 25.0304L24.4015 22.9696ZM13.5 25C13.5 25.8284 14.1716 26.5 15 26.5C15.8284 26.5 16.5 25.8284 16.5 25H13.5ZM18.5 14.5C19.3284 14.5 20 13.8284 20 13C20 12.1716 19.3284 11.5 18.5 11.5V14.5ZM11 11.5C10.1716 11.5 9.5 12.1716 9.5 13C9.5 13.8284 10.1716 14.5 11 14.5V11.5ZM3.5 3H28.5V0H3.5V3ZM3 28.5V3.5H0V28.5H3ZM29 3.5V7.5H32V3.5H29ZM30.5 29H3.5V32H30.5V29ZM0 28.5C0 30.433 1.567 32 3.5 32V29C3.22386 29 3 28.7761 3 28.5H0ZM28.5 3C28.7761 3 29 3.22386 29 3.5H32C32 1.567 30.433 0 28.5 0V3ZM3.5 0C1.567 0 0 1.567 0 3.5H3C3 3.22386 3.22386 3 3.5 3V0ZM26.5 11.5C24.7014 11.5 23.3889 12.1633 22.5514 13.1602C21.7631 14.0987 21.5 15.208 21.5 16H24.5C24.5 15.792 24.5869 15.4013 24.8486 15.0898C25.0611 14.8367 25.4986 14.5 26.5 14.5V11.5ZM21.5 16C21.5 16.792 21.7631 17.9013 22.5514 18.8398C23.3889 19.8367 24.7014 20.5 26.5 20.5V17.5C25.4986 17.5 25.0611 17.1633 24.8486 16.9102C24.5869 16.5987 24.5 16.208 24.5 16H21.5ZM30.2787 12.9696C29.4296 12.0713 28.1698 11.5 26.5 11.5V14.5C27.4408 14.5 27.8788 14.798 28.0985 15.0304L30.2787 12.9696ZM26 26.5C27.7986 26.5 29.1111 25.8367 29.9486 24.8398C30.7369 23.9013 31 22.792 31 22H28C28 22.208 27.9131 22.5987 27.6514 22.9102C27.4389 23.1633 27.0014 23.5 26 23.5V26.5ZM31 22C31 21.208 30.7369 20.0987 29.9486 19.1602C29.1111 18.1633 27.7986 17.5 26 17.5V20.5C27.0014 20.5 27.4389 20.8367 27.6514 21.0898C27.9131 21.4013 28 21.792 28 22H31ZM22.2213 25.0304C23.0704 25.9287 24.3302 26.5 26 26.5V23.5C25.0592 23.5 24.6212 23.202 24.4015 22.9696L22.2213 25.0304ZM13.5 13V25H16.5V13H13.5ZM15 14.5H18.5V11.5H15V14.5ZM15 11.5H11V14.5H15V11.5Z" fill="black"/>
</svg>
