<svg width="32" height="32" viewBox="0 0 32 32" fill="none" xmlns="http://www.w3.org/2000/svg">
<rect width="32" height="32" fill="#E5E5E5"/>
<mask id="path-1-inside-1" fill="white">
<path d="M28.5 1.5H3.5C2.39543 1.5 1.5 2.39543 1.5 3.5V28.5C1.5 29.6046 2.39543 30.5 3.5 30.5H28.5C29.6046 30.5 30.5 29.6046 30.5 28.5V3.5C30.5 2.39543 29.6046 1.5 28.5 1.5Z"/>
</mask>
<path d="M21.6244 12.0006C22.1347 12.6533 23.0774 12.7687 23.73 12.2585C24.3827 11.7482 24.4981 10.8055 23.9879 10.1529L21.6244 12.0006ZM23.9879 21.8471C24.4981 21.1945 24.3827 20.2518 23.73 19.7415C23.0774 19.2313 22.1347 19.3467 21.6244 19.9994L23.9879 21.8471ZM16.5 22.5C12.9101 22.5 10 19.5899 10 16H7C7 21.2467 11.2533 25.5 16.5 25.5V22.5ZM10 16C10 12.4101 12.9101 9.5 16.5 9.5V6.5C11.2533 6.5 7 10.7533 7 16H10ZM16.5 9.5C18.5805 9.5 20.4323 10.4758 21.6244 12.0006L23.9879 10.1529C22.2516 7.93206 19.5426 6.5 16.5 6.5V9.5ZM21.6244 19.9994C20.4322 21.5242 18.5805 22.5 16.5 22.5V25.5C19.5426 25.5 22.2516 24.0679 23.9879 21.8471L21.6244 19.9994ZM3.5 4.5H28.5V-1.5H3.5V4.5ZM27.5 3.5V28.5H33.5V3.5H27.5ZM28.5 27.5H3.5V33.5H28.5V27.5ZM4.5 28.5V3.5H-1.5V28.5H4.5ZM3.5 27.5C4.05228 27.5 4.5 27.9477 4.5 28.5H-1.5C-1.5 31.2614 0.738575 33.5 3.5 33.5V27.5ZM27.5 28.5C27.5 27.9477 27.9477 27.5 28.5 27.5V33.5C31.2614 33.5 33.5 31.2614 33.5 28.5H27.5ZM28.5 4.5C27.9477 4.5 27.5 4.05228 27.5 3.5H33.5C33.5 0.738577 31.2614 -1.5 28.5 -1.5V4.5ZM3.5 -1.5C0.738578 -1.5 -1.5 0.738574 -1.5 3.5H4.5C4.5 4.05229 4.05228 4.5 3.5 4.5V-1.5Z" fill="black" mask="url(#path-1-inside-1)"/>
</svg>
