<svg width="32" height="32" viewBox="0 0 32 32" fill="none" xmlns="http://www.w3.org/2000/svg">
<path d="M22 12C22 10.6667 20.8 8 16 8C11.2 8 10 10.6667 10 12C10 13.3334 11.2 16.0001 16 16.0001C20.8 16.0001 22 18.6666 22 20C22 21.3333 20.8 24 16 24C11.2 24 9.99997 21.3333 9.99997 20M3.5 1.5H28.5C29.6046 1.5 30.5 2.39543 30.5 3.5V28.5C30.5 29.6046 29.6046 30.5 28.5 30.5H3.5C2.39543 30.5 1.5 29.6046 1.5 28.5V3.5C1.5 2.39543 2.39543 1.5 3.5 1.5Z" stroke="black" stroke-width="3" stroke-linecap="round"/>
</svg>
