<svg width="32" height="32" viewBox="0 0 32 32" fill="none" xmlns="http://www.w3.org/2000/svg">
<path d="M17.5 8C17.5 7.17157 16.8284 6.5 16 6.5C15.1716 6.5 14.5 7.17157 14.5 8H17.5ZM14.5 24C14.5 24.8284 15.1716 25.5 16 25.5C16.8284 25.5 17.5 24.8284 17.5 24H14.5ZM3.5 3H28.5V0H3.5V3ZM29 3.5V28.5H32V3.5H29ZM28.5 29H3.5V32H28.5V29ZM3 28.5V3.5H0V28.5H3ZM3.5 29C3.22386 29 3 28.7761 3 28.5H0C0 30.433 1.567 32 3.5 32V29ZM29 28.5C29 28.7761 28.7761 29 28.5 29V32C30.433 32 32 30.433 32 28.5H29ZM28.5 3C28.7761 3 29 3.22386 29 3.5H32C32 1.567 30.433 0 28.5 0V3ZM3.5 0C1.567 0 0 1.567 0 3.5H3C3 3.22386 3.22386 3 3.5 3V0ZM14.5 8V24H17.5V8H14.5Z" fill="black"/>
</svg>
