<svg width="32" height="32" viewBox="0 0 32 32" fill="none" xmlns="http://www.w3.org/2000/svg">
<path d="M24.5 8C24.5 7.17157 23.8284 6.5 23 6.5C22.1716 6.5 21.5 7.17157 21.5 8H24.5ZM23 24L21.8711 24.9878C22.2826 25.4581 22.9426 25.624 23.5276 25.4042C24.1126 25.1844 24.5 24.6249 24.5 24H23ZM9 8L10.1289 7.01224C9.71736 6.54195 9.05739 6.37605 8.47241 6.59585C7.88743 6.81564 7.5 7.37509 7.5 8H9ZM7.5 24C7.5 24.8284 8.17157 25.5 9 25.5C9.82843 25.5 10.5 24.8284 10.5 24H7.5ZM3.5 3H28.5V0H3.5V3ZM29 3.5V28.5H32V3.5H29ZM28.5 29H3.5V32H28.5V29ZM3 28.5V3.5H0V28.5H3ZM3.5 29C3.22386 29 3 28.7761 3 28.5H0C0 30.433 1.567 32 3.5 32V29ZM29 28.5C29 28.7761 28.7761 29 28.5 29V32C30.433 32 32 30.433 32 28.5H29ZM28.5 3C28.7761 3 29 3.22386 29 3.5H32C32 1.567 30.433 0 28.5 0V3ZM3.5 0C1.567 0 0 1.567 0 3.5H3C3 3.22386 3.22386 3 3.5 3V0ZM21.5 8V24H24.5V8H21.5ZM24.1289 23.0122L10.1289 7.01224L7.87113 8.98776L21.8711 24.9878L24.1289 23.0122ZM7.5 8V24H10.5V8H7.5Z" fill="black"/>
</svg>
