<svg width="32" height="32" viewBox="0 0 32 32" fill="none" xmlns="http://www.w3.org/2000/svg">
<path d="M10.3846 8.42308C10.066 7.65837 9.18778 7.29676 8.42308 7.61538C7.65837 7.93401 7.29676 8.81222 7.61538 9.57692L10.3846 8.42308ZM14.5207 22.2496L15.9053 21.6726L15.9053 21.6726L14.5207 22.2496ZM18.2479 22.1596L16.8371 21.6502L16.8371 21.6502L18.2479 22.1596ZM24.4108 9.50947C24.6922 8.73029 24.2886 7.87054 23.5095 7.58917C22.7303 7.3078 21.8705 7.71135 21.5892 8.49053L24.4108 9.50947ZM3.5 3H28.5V0H3.5V3ZM29 3.5V28.5H32V3.5H29ZM28.5 29H3.5V32H28.5V29ZM3 28.5V3.5H0V28.5H3ZM3.5 29C3.22386 29 3 28.7761 3 28.5H0C0 30.433 1.567 32 3.5 32V29ZM29 28.5C29 28.7761 28.7761 29 28.5 29V32C30.433 32 32 30.433 32 28.5H29ZM28.5 3C28.7761 3 29 3.22386 29 3.5H32C32 1.567 30.433 0 28.5 0V3ZM3.5 0C1.567 0 0 1.567 0 3.5H3C3 3.22386 3.22386 3 3.5 3V0ZM7.61538 9.57692L13.136 22.8265L15.9053 21.6726L10.3846 8.42308L7.61538 9.57692ZM19.6587 22.6691L24.4108 9.50947L21.5892 8.49053L16.8371 21.6502L19.6587 22.6691ZM13.136 22.8265C14.3641 25.774 18.5742 25.6724 19.6587 22.6691L16.8371 21.6502C16.6822 22.0792 16.0807 22.0937 15.9053 21.6726L13.136 22.8265Z" fill="black"/>
</svg>
