<svg width="32" height="32" viewBox="0 0 32 32" fill="none" xmlns="http://www.w3.org/2000/svg">
<path d="M8.5 24C8.5 24.8284 9.17157 25.5 10 25.5C10.8284 25.5 11.5 24.8284 11.5 24H8.5ZM10 8V6.5C9.17157 6.5 8.5 7.17157 8.5 8H10ZM19.9712 24.8602C20.4462 25.5389 21.3815 25.7039 22.0602 25.2288C22.7389 24.7538 22.9039 23.8185 22.4288 23.1398L19.9712 24.8602ZM3.5 3H28.5V0H3.5V3ZM29 3.5V28.5H32V3.5H29ZM28.5 29H3.5V32H28.5V29ZM3 28.5V3.5H0V28.5H3ZM3.5 29C3.22386 29 3 28.7761 3 28.5H0C0 30.433 1.567 32 3.5 32V29ZM29 28.5C29 28.7761 28.7761 29 28.5 29V32C30.433 32 32 30.433 32 28.5H29ZM28.5 3C28.7761 3 29 3.22386 29 3.5H32C32 1.567 30.433 0 28.5 0V3ZM3.5 0C1.567 0 0 1.567 0 3.5H3C3 3.22386 3.22386 3 3.5 3V0ZM8.5 16V24H11.5V16H8.5ZM10 9.5H17.2V6.5H10V9.5ZM11.5 16V8H8.5V16H11.5ZM17.2 14.5H15.6V17.5H17.2V14.5ZM15.6 14.5H10V17.5H15.6V14.5ZM14.3712 16.8602L19.9712 24.8602L22.4288 23.1398L16.8288 15.1398L14.3712 16.8602ZM19.7 12C19.7 13.3807 18.5807 14.5 17.2 14.5V17.5C20.2376 17.5 22.7 15.0376 22.7 12H19.7ZM17.2 9.5C18.5807 9.5 19.7 10.6193 19.7 12H22.7C22.7 8.96244 20.2376 6.5 17.2 6.5V9.5Z" fill="black"/>
</svg>
