<svg width="32" height="32" viewBox="0 0 32 32" fill="none" xmlns="http://www.w3.org/2000/svg">
<path d="M1.5 2V0.5C0.671573 0.5 0 1.17157 0 2L1.5 2ZM13.1102 2H14.6102C14.6102 1.17157 13.9386 0.5 13.1102 0.5V2ZM13.1102 8V9.5C13.9386 9.5 14.6102 8.82843 14.6102 8H13.1102ZM11.661 8V6.5C10.8326 6.5 10.161 7.17157 10.161 8H11.661ZM11.661 15.5H10.161C10.161 16.0923 10.5095 16.6291 11.0505 16.8701C11.5915 17.1112 12.2237 17.0113 12.6641 16.6153L11.661 15.5ZM20 8L21.0031 9.11528C21.4649 8.69989 21.623 8.04281 21.4005 7.46284C21.1781 6.88287 20.6212 6.5 20 6.5V8ZM18.5 8H17C17 8.82843 17.6716 9.5 18.5 9.5V8ZM18.5 2V0.5C17.6716 0.5 17 1.17157 17 2L18.5 2ZM30.5 2H32C32 1.17157 31.3284 0.5 30.5 0.5V2ZM30.5 8L31.5208 9.0991C31.8264 8.81529 32 8.41706 32 8H30.5ZM7.31356 29.5339V31.0339C7.69222 31.0339 8.05687 30.8907 8.33433 30.633L7.31356 29.5339ZM4.41525 29.5339L3.5832 30.782C3.8296 30.9462 4.11912 31.0339 4.41525 31.0339V29.5339ZM2.9661 28.5678H1.4661C1.4661 29.0693 1.71675 29.5377 2.13405 29.8159L2.9661 28.5678ZM2.9661 8H4.4661C4.4661 7.17157 3.79453 6.5 2.9661 6.5V8ZM1.5 8H0C0 8.82843 0.671573 9.5 1.5 9.5L1.5 8ZM1.5 3.5H13.1102V0.5H1.5V3.5ZM11.6102 2V8H14.6102V2H11.6102ZM13.1102 6.5H11.661V9.5H13.1102V6.5ZM10.161 8V15.5H13.161V8H10.161ZM12.6641 16.6153L21.0031 9.11528L18.9969 6.88472L10.6579 14.3847L12.6641 16.6153ZM20 6.5H18.5V9.5H20V6.5ZM20 8V2H17V8H20ZM18.5 3.5H30.5V0.5H18.5V3.5ZM29 2V8H32V2H29ZM29.4792 6.9009L6.29279 28.4348L8.33433 30.633L31.5208 9.0991L29.4792 6.9009ZM7.31356 28.0339H4.41525V31.0339H7.31356V28.0339ZM5.24731 28.2858L3.79815 27.3197L2.13405 29.8159L3.5832 30.782L5.24731 28.2858ZM4.4661 28.5678V8H1.4661V28.5678H4.4661ZM2.9661 6.5H1.5V9.5H2.9661V6.5ZM3 8V2H0V8H3Z" fill="black"/>
</svg>
