<svg width="18" height="16" fill="none" xmlns="http://www.w3.org/2000/svg">
  <path d="M9 1.5c-.997 0-1.895.416-2.534 1.086A.75.75 0 115.38 1.55 5 5 0 0114 5v2.373a.75.75 0 11-1.5 0V5A3.5 3.5 0 009 1.5zM5.182 4.31L2.19 2.143a.75.75 0 10-.88 1.214L4 5.305v2.642a.25.25 0 01-.042.139L2.255 10.64A1.518 1.518 0 003.518 13h11.108l1.184.857a.75.75 0 10.88-1.214l-1.375-.996a.64.64 0 00-.013-.01L5.198 4.321a.795.795 0 00-.016-.011zm7.373 7.19H3.518l-.007-.001a.018.018 0 01-.006-.004.015.015 0 01-.005-.012c0-.004.001-.007.003-.01l1.703-2.556c.192-.287.294-.624.294-.97V6.391l7.055 5.109zM9 16a2 2 0 001.985-1.75c.017-.137-.097-.25-.235-.25h-3.5c-.138 0-.252.113-.235.25A2 2 0 009 16z" fill="#000"/>
</svg>
