<svg width="18" height="15" fill="none" xmlns="http://www.w3.org/2000/svg">
  <path d="M2.19 1.143a.75.75 0 10-.88 1.214L4 4.305v9.945a.75.75 0 001.206.596L9 11.944l3.794 2.902A.75.75 0 0014 14.25v-2.703l1.81 1.31a.75.75 0 10.88-1.214l-2.994-2.168a.8.8 0 00-.014-.01L5.196 3.32a.685.685 0 00-.014-.01L2.19 1.143zM5.5 5.39l7 5.07v2.271l-3.044-2.328a.75.75 0 00-.912 0L5.5 12.731V5.39zM6.865 1a.75.75 0 000 1.5h5.385a.25.25 0 01.25.25v3.624a.75.75 0 101.5 0V2.75A1.75 1.75 0 0012.25 1H6.865z" fill="#000"/>
</svg>
