<svg width="16" height="14" fill="none" xmlns="http://www.w3.org/2000/svg">
  <path d="M0 .75A.75.75 0 01.75 0h4.253c1.227 0 2.317.59 3 1.501A3.744 3.744 0 0111.006 0h4.245a.75.75 0 01.75.75v10.5a.75.75 0 01-.75.75h-4.507a2.25 2.25 0 00-1.591.659l-.622.621a.75.75 0 01-1.06 0l-.622-.621A2.25 2.25 0 005.258 12H.75a.75.75 0 01-.75-.75V.75zm8.755 3l-.004 7.322a3.752 3.752 0 011.992-.572H14.5v-9h-3.495a2.25 2.25 0 00-2.25 2.25zm-1.504 7.324l.004-5.073-.002-2.253A2.25 2.25 0 005.003 1.5H1.5v9h3.757a3.75 3.75 0 011.994.574z" fill="#000"/>
</svg>
