<svg width="16" height="15" fill="none" xmlns="http://www.w3.org/2000/svg">
  <path d="M6.75 0A1.75 1.75 0 005 1.75V3H1.75A1.75 1.75 0 000 4.75v8.5C0 14.216.784 15 1.75 15h12.5A1.75 1.75 0 0016 13.25v-8.5A1.75 1.75 0 0014.25 3H11V1.75A1.75 1.75 0 009.25 0h-2.5zM9.5 3h-3V1.75a.25.25 0 01.25-.25h2.5a.25.25 0 01.25.25V3zm4.75 1.5a.25.25 0 01.25.25V6a2 2 0 01-2 2h-9a2 2 0 01-2-2V4.75a.25.25 0 01.25-.25h12.5zM3.5 9.5h9a3.484 3.484 0 002-.627v4.377a.25.25 0 01-.25.25H1.75a.25.25 0 01-.25-.25V8.873c.587.41 1.285.628 2 .627z" fill="#000"/>
</svg>
