<svg width="16" height="14" fill="none" xmlns="http://www.w3.org/2000/svg">
  <path fill-rule="evenodd" clip-rule="evenodd" d="M3.267.457c.3.286.312.76.026 1.06A6.475 6.475 0 001.5 6a6.472 6.472 0 001.793 4.483.75.75 0 01-1.086 1.034A7.971 7.971 0 010 6C0 3.861.84 1.917 2.207.483a.75.75 0 011.06-.026zm9.466 0a.75.75 0 011.06.026A7.975 7.975 0 0116 6c0 2.139-.84 4.083-2.207 5.517a.75.75 0 11-1.086-1.034A6.475 6.475 0 0014.5 6a6.475 6.475 0 00-1.793-4.483.75.75 0 01.026-1.06zM8.75 7.582a1.75 1.75 0 10-1.5 0v5.668a.75.75 0 101.5 0V7.582zM5.331 3.736a.75.75 0 10-1.143-.972A4.983 4.983 0 003 6c0 1.227.443 2.352 1.177 3.222a.75.75 0 001.146-.967A3.483 3.483 0 014.5 6c0-.864.312-1.654.831-2.264zm6.492-.958a.75.75 0 00-1.146.967c.514.61.823 1.395.823 2.255 0 .86-.31 1.646-.823 2.255a.75.75 0 101.146.967A4.983 4.983 0 0013 6a4.983 4.983 0 00-1.177-3.222z" fill="#000"/>
</svg>
