<svg width="15" height="16" fill="none" xmlns="http://www.w3.org/2000/svg">
  <path fill-rule="evenodd" clip-rule="evenodd" d="M1.5 1.75a.25.25 0 01.25-.25h8.5a.25.25 0 01.25.25v7.736a.75.75 0 101.5 0V1.75A1.75 1.75 0 0010.25 0h-8.5A1.75 1.75 0 000 1.75v11.5C0 14.216.784 15 1.75 15h3.17a.75.75 0 100-1.5H1.75a.25.25 0 01-.25-.25V1.75zM3.75 4a.75.75 0 000 1.5h4.5a.75.75 0 000-1.5h-4.5zM3 7.75A.75.75 0 013.75 7h2a.75.75 0 010 1.5h-2A.75.75 0 013 7.75zm11.774 3.537a.75.75 0 10-1.048-1.074L9.7 14.145 8.281 12.72a.75.75 0 00-1.062 1.058l1.943 1.95a.75.75 0 001.055.008l4.557-4.449z" fill="#000"/>
</svg>
