<svg width="12" height="14" fill="none" xmlns="http://www.w3.org/2000/svg">
  <path fill-rule="evenodd" clip-rule="evenodd" d="M3.75 0A.75.75 0 003 .75v3c0 .414.336.75.75.75h4.5A.75.75 0 009 3.75v-3A.75.75 0 008.25 0h-4.5zm.75 3V1.5h3V3h-3zm-2.874-.467a.75.75 0 10-.752-1.298A1.75 1.75 0 000 2.75v9.5C0 13.216.784 14 1.75 14h8.5A1.75 1.75 0 0012 12.25v-9.5a1.75 1.75 0 00-.874-1.515.75.75 0 10-.752 1.298.25.25 0 01.126.217v9.5a.25.25 0 01-.25.25h-8.5a.25.25 0 01-.25-.25v-9.5a.25.25 0 01.126-.217z" fill="#000"/>
</svg>
