<svg width="16" height="15" fill="none" xmlns="http://www.w3.org/2000/svg">
  <path fill-rule="evenodd" clip-rule="evenodd" d="M1.5 1.75a.25.25 0 01.25-.25h12.5a.25.25 0 01.25.25v8.5a.25.25 0 01-.25.25h-6.5a.75.75 0 00-.53.22L4.5 13.44v-2.19a.75.75 0 00-.75-.75h-2a.25.25 0 01-.25-.25v-8.5zM1.75 0A1.75 1.75 0 000 1.75v8.5C0 11.216.784 12 1.75 12H3v1.543a1.457 1.457 0 002.487 1.03L8.061 12h6.189A1.75 1.75 0 0016 10.25v-8.5A1.75 1.75 0 0014.25 0H1.75zm5.03 3.47a.75.75 0 010 1.06L5.31 6l1.47 1.47a.75.75 0 01-1.06 1.06l-2-2a.75.75 0 010-1.06l2-2a.75.75 0 011.06 0zm2.44 0a.75.75 0 000 1.06L10.69 6 9.22 7.47a.75.75 0 001.06 1.06l2-2a.75.75 0 000-1.06l-2-2a.75.75 0 00-1.06 0z" fill="#000"/>
</svg>
