<svg width="16" height="14" fill="none" xmlns="http://www.w3.org/2000/svg">
  <path fill-rule="evenodd" clip-rule="evenodd" d="M1.5 1.75a.25.25 0 01.25-.25h8.5a.25.25 0 01.25.25v5.5a.25.25 0 01-.25.25h-3.5a.75.75 0 00-.53.22L3.5 10.44V8.25a.75.75 0 00-.75-.75h-1a.25.25 0 01-.25-.25v-5.5zM1.75 0A1.75 1.75 0 000 1.75v5.5C0 8.216.784 9 1.75 9H2v1.543a1.457 1.457 0 002.487 1.03L7.061 9h3.189A1.75 1.75 0 0012 7.25v-5.5A1.75 1.75 0 0010.25 0h-8.5zM14.5 3.75a.25.25 0 00-.25-.25h-.5a.75.75 0 110-1.5h.5c.966 0 1.75.784 1.75 1.75v5.5A1.75 1.75 0 0114.25 11H14v1.543a1.457 1.457 0 01-2.487 1.03L9.22 11.28a.75.75 0 111.06-1.06l2.22 2.22v-2.19a.75.75 0 01.75-.75h1a.25.25 0 00.25-.25v-5.5z" fill="#000"/>
</svg>
