<svg width="15" height="15" fill="none" xmlns="http://www.w3.org/2000/svg">
  <path fill-rule="evenodd" clip-rule="evenodd" d="M15 .25v4.146a.25.25 0 01-.427.177L13.03 3.03 9.28 6.78a.75.75 0 11-1.06-1.06l3.75-3.75L10.427.427A.25.25 0 0110.604 0h4.146a.25.25 0 01.25.25zM1.75 2.5a.25.25 0 00-.25.25v7.5c0 .138.112.25.25.25h2a.75.75 0 01.75.75v2.19l2.72-2.72a.75.75 0 01.53-.22h4.5a.25.25 0 00.25-.25v-2.5a.75.75 0 111.5 0v2.5A1.75 1.75 0 0112.25 12H8.06l-2.573 2.573A1.457 1.457 0 013 13.543V12H1.75A1.75 1.75 0 010 10.25v-7.5C0 1.784.784 1 1.75 1h5.5a.75.75 0 010 1.5h-5.5z" fill="#000"/>
</svg>
