<svg width="16" height="16" viewBox="0 0 16 16" fill="none" xmlns="http://www.w3.org/2000/svg">
<path d="M4.927 5.427L7.823 8.323C7.84622 8.34628 7.87381 8.36475 7.90418 8.37736C7.93456 8.38996 7.96712 8.39645 8 8.39645C8.03288 8.39645 8.06545 8.38996 8.09582 8.37736C8.12619 8.36475 8.15378 8.34628 8.177 8.323L11.073 5.427C11.1081 5.39204 11.1319 5.34745 11.1416 5.2989C11.1513 5.25034 11.1464 5.2 11.1274 5.15427C11.1084 5.10853 11.0763 5.06945 11.0351 5.04199C10.9939 5.01453 10.9455 4.99991 10.896 5H8.75V0.75C8.75 0.551088 8.67098 0.360322 8.53033 0.21967C8.38968 0.0790176 8.19891 0 8 0C7.80109 0 7.61032 0.0790176 7.46967 0.21967C7.32902 0.360322 7.25 0.551088 7.25 0.75V5H5.104C5.05449 4.99991 5.00607 5.01453 4.96487 5.04199C4.92368 5.06945 4.89157 5.10853 4.87261 5.15427C4.85365 5.2 4.8487 5.25034 4.85838 5.2989C4.86807 5.34745 4.89195 5.39204 4.927 5.427V5.427Z" fill="black"/>
<path d="M1.573 2.573C1.5498 2.59626 1.53141 2.62386 1.51888 2.65423C1.50636 2.68461 1.49994 2.71715 1.5 2.75V10.25C1.5 10.3163 1.52634 10.3799 1.57322 10.4268C1.62011 10.4737 1.6837 10.5 1.75 10.5H14.25C14.3163 10.5 14.3799 10.4737 14.4268 10.4268C14.4737 10.3799 14.5 10.3163 14.5 10.25V2.75C14.5 2.6837 14.4737 2.62011 14.4268 2.57322C14.3799 2.52634 14.3163 2.5 14.25 2.5H11.25C11.1515 2.5 11.054 2.4806 10.963 2.44291C10.872 2.40522 10.7893 2.34997 10.7197 2.28033C10.65 2.21069 10.5948 2.12801 10.5571 2.03701C10.5194 1.94602 10.5 1.84849 10.5 1.75C10.5 1.65151 10.5194 1.55398 10.5571 1.46299C10.5948 1.37199 10.65 1.28931 10.7197 1.21967C10.7893 1.15003 10.872 1.09478 10.963 1.05709C11.054 1.0194 11.1515 1 11.25 1H14.25C14.7141 1 15.1592 1.18437 15.4874 1.51256C15.8156 1.84075 16 2.28587 16 2.75V10.25C16 10.7141 15.8156 11.1592 15.4874 11.4874C15.1592 11.8156 14.7141 12 14.25 12H10.523C10.622 13.041 11.043 13.872 11.815 14.757C11.9096 14.8655 11.971 14.9989 11.9919 15.1414C12.0127 15.2838 11.9922 15.4293 11.9326 15.5604C11.873 15.6914 11.777 15.8026 11.6559 15.8805C11.5349 15.9585 11.394 16 11.25 16H4.75C4.60603 16 4.46511 15.9585 4.34408 15.8805C4.22304 15.8026 4.127 15.6914 4.06743 15.5604C4.00785 15.4293 3.98726 15.2838 4.00811 15.1414C4.02895 14.9989 4.09036 14.8655 4.185 14.757C4.957 13.872 5.377 13.041 5.477 12H1.75C1.28587 12 0.840752 11.8156 0.512563 11.4874C0.184374 11.1592 0 10.7141 0 10.25L0 2.75C0 2.28587 0.184374 1.84075 0.512563 1.51256C0.840752 1.18437 1.28587 1 1.75 1H4.75C4.94891 1 5.13968 1.07902 5.28033 1.21967C5.42098 1.36032 5.5 1.55109 5.5 1.75C5.5 1.94891 5.42098 2.13968 5.28033 2.28033C5.13968 2.42098 4.94891 2.5 4.75 2.5H1.75C1.71715 2.49994 1.68461 2.50636 1.65423 2.51888C1.62386 2.53141 1.59626 2.5498 1.573 2.573V2.573ZM6.982 12C6.92342 12.8812 6.66158 13.7369 6.217 14.5H9.783C9.33842 13.7369 9.07658 12.8812 9.018 12H6.982Z" fill="black"/>
</svg>
