<svg width="16" height="15" fill="none" xmlns="http://www.w3.org/2000/svg">
  <path fill-rule="evenodd" clip-rule="evenodd" d="M1.75 1.5h12.5a.25.25 0 01.25.25v7.5a.25.25 0 01-.25.25H1.75a.25.25 0 01-.25-.25v-7.5a.25.25 0 01.25-.25zM14.25 0H1.75A1.75 1.75 0 000 1.75v7.5C0 10.216.784 11 1.75 11h3.727c-.1 1.041-.52 1.872-1.292 2.757A.75.75 0 004.75 15h6.5a.75.75 0 00.565-1.243c-.772-.885-1.193-1.716-1.292-2.757h3.727A1.75 1.75 0 0016 9.25v-7.5A1.75 1.75 0 0014.25 0zM9.018 11H6.982a5.72 5.72 0 01-.765 2.5h3.566a5.72 5.72 0 01-.765-2.5z" fill="#000"/>
</svg>
