<svg width="14" height="14" fill="none" xmlns="http://www.w3.org/2000/svg">
  <path fill-rule="evenodd" clip-rule="evenodd" d="M12.25 1.5H1.75a.25.25 0 00-.25.25v10.5c0 .138.112.25.25.25h10.5a.25.25 0 00.25-.25V1.75a.25.25 0 00-.25-.25zM1.75 0h10.5C13.216 0 14 .784 14 1.75v10.5A1.75 1.75 0 0112.25 14H1.75A1.75 1.75 0 010 12.25V1.75C0 .784.784 0 1.75 0zM7 3a.75.75 0 01.75.75v2.5h2.5a.75.75 0 110 1.5h-2.5v2.5a.75.75 0 11-1.5 0v-2.5h-2.5a.75.75 0 010-1.5h2.5v-2.5A.75.75 0 017 3z" fill="#000"/>
</svg>
