<svg width="14" height="14" fill="none" xmlns="http://www.w3.org/2000/svg">
  <path fill-rule="evenodd" clip-rule="evenodd" d="M1.75 1.5h10.5a.25.25 0 01.25.25v10.5a.25.25 0 01-.25.25H1.75a.25.25 0 01-.25-.25V1.75a.25.25 0 01.25-.25zM12.25 0H1.75A1.75 1.75 0 000 1.75v10.5C0 13.216.784 14 1.75 14h10.5A1.75 1.75 0 0014 12.25V1.75A1.75 1.75 0 0012.25 0zm-1.47 7.53a.75.75 0 000-1.06L7.53 3.22a.75.75 0 00-1.06 1.06l1.97 1.97H3.75a.75.75 0 000 1.5h4.69L6.47 9.72a.75.75 0 101.06 1.06l3.25-3.25z" fill="#000"/>
</svg>
