<svg width="16" height="12" fill="none" xmlns="http://www.w3.org/2000/svg">
  <path fill-rule="evenodd" clip-rule="evenodd" d="M1.679 5.932c.412-.621 1.242-1.75 2.366-2.717C5.175 2.242 6.527 1.5 8 1.5c1.473 0 2.824.742 3.955 1.715 1.124.967 1.954 2.096 2.366 2.717a.119.119 0 010 .136c-.412.621-1.242 1.75-2.366 2.717C10.825 9.758 9.473 10.5 8 10.5c-1.473 0-2.824-.742-3.955-1.715C2.92 7.818 2.09 6.69 1.679 6.068a.119.119 0 010-.136zM8 0C6.019 0 4.33.992 3.067 2.078 1.797 3.169.88 4.423.43 5.1a1.619 1.619 0 000 1.798c.45.678 1.367 1.932 2.637 3.024C4.329 11.008 6.019 12 8 12c1.981 0 3.67-.992 4.933-2.078 1.27-1.091 2.187-2.345 2.637-3.023a1.619 1.619 0 000-1.798c-.45-.678-1.367-1.932-2.637-3.023C11.671.992 9.981 0 8 0zm0 8a2 2 0 100-4 2 2 0 000 4z" fill="#000"/>
</svg>
