<svg width="17" height="13" fill="none" xmlns="http://www.w3.org/2000/svg">
  <path fill-rule="evenodd" clip-rule="evenodd" d="M.143.31A.75.75 0 011.19.143l14.5 10.5a.75.75 0 11-.88 1.214l-2.248-1.628C11.346 11.19 9.792 12 8 12c-1.981 0-3.67-.992-4.933-2.078C1.797 8.832.88 7.577.43 6.9a1.618 1.618 0 010-1.797c.353-.533.995-1.42 1.868-2.305L.31 1.357A.75.75 0 01.143.31zm3.386 3.378a14.21 14.21 0 00-1.85 2.244.12.12 0 00-.022.068c0 .021.006.045.022.068.412.621 1.242 1.75 2.366 2.717C5.175 9.758 6.527 10.5 8 10.5c1.195 0 2.31-.488 3.29-1.191L9.063 7.695A2 2 0 016.058 5.52L3.529 3.688zM8 1.5c-.516 0-1.017.09-1.499.251A.75.75 0 116.028.328 6.23 6.23 0 018 0c1.981 0 3.67.992 4.933 2.078 1.27 1.091 2.187 2.345 2.637 3.023a1.619 1.619 0 010 1.798c-.11.166-.248.365-.41.587a.75.75 0 11-1.21-.887c.148-.201.272-.382.371-.53a.12.12 0 000-.137c-.412-.621-1.242-1.75-2.366-2.717C10.825 2.242 9.473 1.5 8 1.5z" fill="#000"/>
</svg>
