<svg width="12" height="16" fill="none" xmlns="http://www.w3.org/2000/svg">
  <path fill-rule="evenodd" clip-rule="evenodd" d="M1.5 1.75a.25.25 0 01.25-.25h3a.75.75 0 000 1.5h.5a.75.75 0 000-1.5h2.086a.25.25 0 01.177.073l2.914 2.914a.25.25 0 01.073.177v8.586a.25.25 0 01-.25.25h-.5a.75.75 0 100 1.5h.5A1.75 1.75 0 0012 13.25V4.664c0-.464-.184-.909-.513-1.237L8.573.513A1.75 1.75 0 007.336 0H1.75A1.75 1.75 0 000 1.75v11.5c0 .649.353 1.214.874 1.515a.75.75 0 10.752-1.298.25.25 0 01-.126-.217V1.75zM6.75 3a.75.75 0 000 1.5h.5a.75.75 0 000-1.5h-.5zM4 5.25a.75.75 0 01.75-.75h.5a.75.75 0 010 1.5h-.5A.75.75 0 014 5.25zm2 1.5A.75.75 0 016.75 6h.5a.75.75 0 010 1.5h-.5A.75.75 0 016 6.75zm-1.25.75a.75.75 0 000 1.5h.5a.75.75 0 000-1.5h-.5zM6 9.75A.75.75 0 016.75 9h.5a.75.75 0 010 1.5h-.5A.75.75 0 016 9.75zm-.75.75a1.75 1.75 0 00-1.75 1.75v3c0 .414.336.75.75.75h2.5a.75.75 0 00.75-.75v-3a1.75 1.75 0 00-1.75-1.75h-.5zM5 12.25a.25.25 0 01.25-.25h.5a.25.25 0 01.25.25v2.25H5v-2.25z" fill="#000"/>
</svg>
