<svg width="14" height="16" fill="none" xmlns="http://www.w3.org/2000/svg">
  <path d="M6.998 14.5C4.164 14.5 2 12.53 2 10c0-.404.074-.804.222-1.18a2.79 2.79 0 001.436.874c.858.207 1.793-.023 2.403-.633.948-.948.751-2.285.278-3.232-.575-1.15-.386-2.034.046-2.73.234-.374.542-.697.864-.953.534 2.144 1.821 3.426 2.834 4.434l.036.037c1.199 1.193 1.879 1.92 1.879 3.383 0 2.52-2.168 4.5-5 4.5zM8.533.753C8.496.34 8.16.009 7.77.146 6.035.75 3.34 3.187 4.997 6.5c.344.689.285 1.218.003 1.5-.419.419-1.54.487-2.04-.832-.173-.454-.659-.762-1.035-.454C1.036 7.44.5 8.702.5 10c0 3.512 2.998 6 6.498 6s6.5-2.5 6.5-6c0-2.137-1.128-3.26-2.312-4.438C9.996 4.378 8.75 3.137 8.533.752v.001z" fill="#000"/>
</svg>
