<svg width="14" height="16" fill="none" xmlns="http://www.w3.org/2000/svg">
  <path d="M8.573.677L6.177 3.073a.25.25 0 000 .354l2.396 2.396A.25.25 0 009 5.646V4h1a1 1 0 011 1v5.628a2.25 2.25 0 101.5 0V5A2.5 2.5 0 0010 2.5H9V.854a.25.25 0 00-.427-.177zM5 12v-1.646a.25.25 0 01.427-.177l2.396 2.396a.25.25 0 010 .354l-2.396 2.396A.25.25 0 015 15.146V13.5H4A2.5 2.5 0 011.5 11V5.372a2.25 2.25 0 111.5 0V11a1 1 0 001 1h1zm6.75 0a.75.75 0 110 1.5.75.75 0 010-1.5zM3 3.25a.75.75 0 10-1.5 0 .75.75 0 001.5 0z" fill="#000"/>
</svg>
