<svg width="14" height="16" fill="none" xmlns="http://www.w3.org/2000/svg">
  <path fill-rule="evenodd" clip-rule="evenodd" d="M6.177 3.073L8.573.677A.25.25 0 019 .854v4.792a.25.25 0 01-.427.177L6.177 3.427a.25.25 0 010-.354zM2.75 2.5a.75.75 0 100 1.5.75.75 0 000-1.5zM.5 3.25a2.25 2.25 0 014.315-.893c.164.378.22.794.164 1.203A2.25 2.25 0 013.5 5.372v5.256a2.25 2.25 0 11-1.5 0V5.372A2.25 2.25 0 01.5 3.25zM10 2.5H9V4h1a1 1 0 011 1v5.628a2.25 2.25 0 101.5 0V5A2.5 2.5 0 0010 2.5zm1 10.25a.75.75 0 111.5 0 .75.75 0 01-1.5 0zM2.75 12a.75.75 0 100 1.5.75.75 0 000-1.5z" fill="#000"/>
</svg>
