<svg width="16" height="16" fill="none" xmlns="http://www.w3.org/2000/svg">
  <path d="M1.543 7.25a6.506 6.506 0 014.666-5.5c-.116.171-.233.355-.353.552-.714 1.192-1.436 2.874-1.58 4.948H1.543zm2.733 1.5c.144 2.074.866 3.756 1.581 4.948.112.187.23.371.352.552a6.506 6.506 0 01-4.666-5.5h2.733zm1.504 0h4.44a9.636 9.636 0 01-1.363 4.177c-.306.51-.612.919-.857 1.215a9.98 9.98 0 01-.857-1.215A9.637 9.637 0 015.78 8.75zm4.44-1.5H5.78a9.637 9.637 0 011.363-4.177c.306-.51.612-.919.857-1.215.245.296.55.705.857 1.215A9.638 9.638 0 0110.22 7.25zm1.504 1.5h2.733a6.506 6.506 0 01-4.666 5.5c.116-.171.233-.355.353-.552.714-1.192 1.436-2.874 1.58-4.948zm2.733-1.5h-2.733c-.144-2.074-.866-3.756-1.58-4.948-.113-.187-.23-.371-.353-.552a6.506 6.506 0 014.666 5.5zM8 0a8 8 0 100 16A8 8 0 008 0z" fill="#000"/>
</svg>
