<svg width="16" height="14" fill="none" xmlns="http://www.w3.org/2000/svg">
  <path fill-rule="evenodd" clip-rule="evenodd" d="M7.655 13.916L8 13.25l.345.666a.752.752 0 01-.69 0zm0 0L8 13.25l.345.666.008-.004.018-.01c.105-.054.208-.111.31-.17a22.08 22.08 0 003.433-2.414C13.956 9.731 16 7.35 16 4.5 16 1.836 13.914 0 11.75 0 10.203 0 8.847.802 8 2.02 7.153.802 5.797 0 4.25 0 2.086 0 0 1.836 0 4.5c0 2.85 2.045 5.231 3.885 6.818a22.073 22.073 0 003.744 2.584l.018.01.006.003h.002v.001z" fill="#000"/>
</svg>
