<svg width="16" height="14" fill="none" xmlns="http://www.w3.org/2000/svg">
  <path fill-rule="evenodd" clip-rule="evenodd" d="M4.25 1.5c-1.336 0-2.75 1.164-2.75 3 0 2.15 1.58 4.144 3.365 5.682A20.562 20.562 0 008 12.393a20.56 20.56 0 003.135-2.211C12.92 8.644 14.5 6.65 14.5 4.5c0-1.836-1.414-3-2.75-3-1.373 0-2.609.986-3.029 2.456a.75.75 0 01-1.442 0C6.859 2.486 5.623 1.5 4.25 1.5zM8 13.25l-.345.666-.008-.004-.018-.01a7.745 7.745 0 01-.31-.17 22.078 22.078 0 01-3.434-2.414C2.045 9.731 0 7.35 0 4.5 0 1.836 2.086 0 4.25 0 5.797 0 7.153.802 8 2.02 8.847.802 10.203 0 11.75 0 13.914 0 16 1.836 16 4.5c0 2.85-2.045 5.231-3.885 6.818a22.08 22.08 0 01-3.744 2.584l-.018.01-.006.003h-.002L8 13.25zm0 0l.345.666a.752.752 0 01-.69 0L8 13.25z" fill="#000"/>
</svg>
