<svg width="12" height="14" fill="none" xmlns="http://www.w3.org/2000/svg">
  <path d="M.75 0a.75.75 0 000 1.5h.75v1.25a4.75 4.75 0 001.9 3.8l.333.25c.134.1.134.3 0 .4l-.333.25a4.75 4.75 0 00-1.9 3.8v1.25H.75a.75.75 0 100 1.5h10.5a.75.75 0 100-1.5h-.75v-1.25a4.75 4.75 0 00-1.9-3.8l-.333-.25a.25.25 0 010-.4l.333-.25a4.75 4.75 0 001.9-3.8V1.5h.75a.75.75 0 100-1.5H.75zM9 1.5v1.25a3.25 3.25 0 01-1.3 2.6l-.333.25a1.75 1.75 0 000 2.8l.333.25a3.25 3.25 0 011.3 2.6v1.25H3v-1.25a3.25 3.25 0 011.3-2.6l.333-.25c.934-.7.934-2.1 0-2.8L4.3 5.35A3.25 3.25 0 013 2.75V1.5h6z" fill="#000"/>
</svg>
