<svg width="16" height="14" fill="none" xmlns="http://www.w3.org/2000/svg">
  <path d="M1.75 1.5h12.5a.25.25 0 01.25.25v7.56l-3.291-2.978a1.75 1.75 0 00-2.412.06L2.72 12.47l-.03.03h-.94a.25.25 0 01-.25-.25V1.75a.25.25 0 01.25-.25zm12.5 11H4.81l5.048-5.047a.25.25 0 01.344-.009l4.298 3.889v.917a.25.25 0 01-.25.25zm1.75-.25V1.75A1.75 1.75 0 0014.25 0H1.75A1.75 1.75 0 000 1.75v10.5C0 13.216.784 14 1.75 14h12.5A1.75 1.75 0 0016 12.25zM5.5 5a.5.5 0 10-1 0 .5.5 0 001 0zM7 5a2 2 0 11-4 0 2 2 0 014 0z" fill="#000"/>
</svg>
