<svg width="16" height="14" fill="none" xmlns="http://www.w3.org/2000/svg">
  <path fill-rule="evenodd" clip-rule="evenodd" d="M2.8 1.06A1.75 1.75 0 014.41 0h7.18c.7 0 1.333.417 1.61 1.06l2.74 6.395c.04.093.06.194.06.295v4.5A1.75 1.75 0 0114.25 14H1.75A1.75 1.75 0 010 12.25v-4.5a.75.75 0 01.06-.295L2.8 1.06zm1.61.44a.25.25 0 00-.23.152L1.887 7H4.75a.75.75 0 01.6.3L6.625 9h2.75l1.275-1.7a.75.75 0 01.6-.3h2.863L11.82 1.652a.25.25 0 00-.23-.152H4.41zm10.09 7h-2.875l-1.275 1.7a.75.75 0 01-.6.3h-3.5a.75.75 0 01-.6-.3L4.375 8.5H1.5v3.75c0 .138.112.25.25.25h12.5a.25.25 0 00.25-.25V8.5z" fill="#000"/>
</svg>
