<svg width="16" height="8" fill="none" xmlns="http://www.w3.org/2000/svg">
  <path d="M3.5 2c.525 0 1.121.244 1.826.727.508.351 1.024.79 1.56 1.273-.536.483-1.051.923-1.561 1.273C4.622 5.756 4.025 6 3.5 6c-1.086 0-2-.914-2-2 0-1.086.914-2 2-2zm4.5.984c-.59-.533-1.204-1.066-1.825-1.493C5.378.943 4.475.5 3.5.5 1.586.5 0 2.086 0 4s1.586 3.5 3.5 3.5c.975 0 1.878-.444 2.675-.991.621-.427 1.235-.96 1.825-1.493.59.533 1.204 1.066 1.825 1.493.797.547 1.7.991 2.675.991C14.414 7.5 16 5.914 16 4S14.414.5 12.5.5c-.975 0-1.878.443-2.675.991-.621.427-1.235.96-1.825 1.493zM9.114 4c.536-.483 1.051-.923 1.561-1.273.703-.483 1.3-.727 1.825-.727 1.086 0 2 .914 2 2 0 1.086-.914 2-2 2-.526 0-1.122-.244-1.826-.727-.508-.351-1.024-.79-1.56-1.273z" fill="#000"/>
</svg>
