<svg width="16" height="15" fill="none" xmlns="http://www.w3.org/2000/svg">
  <path d="M8.75.75a.75.75 0 00-1.5 0V2h-.984c-.305 0-.604.08-.869.23l-1.288.737A.25.25 0 013.984 3H1.75a.75.75 0 000 1.5h.428L.066 9.192a.75.75 0 00.154.838v.001l.01.01.016.015.045.04c.21.176.44.327.686.45.63.307 1.322.463 2.023.454.88 0 1.556-.22 2.023-.454.245-.123.476-.274.686-.45l.045-.04.016-.015.008-.008.001-.002L5.25 9.5l.53.53a.75.75 0 00.154-.838L3.822 4.5h.162c.305 0 .604-.08.869-.23l1.289-.737a.25.25 0 01.124-.033h.984V13h-2.5a.75.75 0 100 1.5h6.5a.75.75 0 100-1.5h-2.5V3.5h.984a.25.25 0 01.124.033l1.29.736c.264.152.563.231.868.231h.162l-2.112 4.692a.75.75 0 00.154.838v.001l.01.01.016.015.045.04c.21.176.44.327.686.45.63.307 1.322.463 2.023.454.88 0 1.556-.22 2.023-.454a3.51 3.51 0 00.686-.45l.045-.04.01-.01.006-.005.008-.008.001-.002-.529-.531.53.53a.75.75 0 00.154-.838L13.823 4.5h.427a.75.75 0 100-1.5h-2.234a.25.25 0 01-.124-.033l-1.29-.736A1.75 1.75 0 009.735 2H8.75V.75zM1.695 9.227L3 6.327l1.305 2.9A3.023 3.023 0 013 9.5c-.587 0-1.02-.138-1.305-.273zm10 0L13 6.327l1.305 2.9A3.023 3.023 0 0113 9.5c-.587 0-1.02-.138-1.305-.273z" fill="#000"/>
</svg>
