<svg width="12" height="16" fill="none" xmlns="http://www.w3.org/2000/svg">
  <path fill-rule="evenodd" clip-rule="evenodd" d="M6 1.5c-2.363 0-4 1.69-4 3.75 0 .984.424 1.625.984 2.304l.214.253c.223.264.47.556.673.848.284.411.537.896.621 1.49a.75.75 0 01-1.484.211c-.04-.282-.163-.547-.37-.847a8.695 8.695 0 00-.542-.68c-.084-.1-.173-.205-.268-.32C1.201 7.75.5 6.766.5 5.25.5 2.31 2.863 0 6 0s5.5 2.31 5.5 5.25c0 1.516-.701 2.5-1.328 3.259-.095.115-.184.22-.268.319-.207.245-.383.453-.541.681-.208.3-.33.565-.37.847a.75.75 0 01-1.485-.212c.084-.593.337-1.078.621-1.489.203-.292.45-.584.673-.848.075-.088.147-.173.213-.253.561-.679.985-1.32.985-2.304C10 3.19 8.363 1.5 6 1.5zM4 15.25a.75.75 0 01.75-.75h2.5a.75.75 0 110 1.5h-2.5a.75.75 0 01-.75-.75zM3.75 12a.75.75 0 100 1.5h4.5a.75.75 0 100-1.5h-4.5z" fill="#000"/>
</svg>
