<svg width="14" height="14" fill="none" xmlns="http://www.w3.org/2000/svg">
  <path fill-rule="evenodd" clip-rule="evenodd" d="M6.775 2.275a.75.75 0 001.06 1.06l1.25-1.25a2.001 2.001 0 012.83 2.83l-2.5 2.5a2 2 0 01-2.83 0 .75.75 0 00-1.06 1.06 3.5 3.5 0 004.95 0l2.5-2.5a3.5 3.5 0 10-4.95-4.95l-1.25 1.25zm-4.69 9.64a2 2 0 010-2.83l2.5-2.5a2 2 0 012.83 0 .75.75 0 001.06-1.06 3.5 3.5 0 00-4.95 0l-2.5 2.5a3.5 3.5 0 104.95 4.95l1.25-1.25a.75.75 0 00-1.06-1.06l-1.25 1.25a1.999 1.999 0 01-2.83 0z" fill="#000"/>
</svg>
