<svg width="15" height="12" fill="none" xmlns="http://www.w3.org/2000/svg">
  <path fill-rule="evenodd" clip-rule="evenodd" d="M2.003.5A.5.5 0 001.28.053l-1.003.5a.5.5 0 00.446.895l.28-.14V4H.5a.5.5 0 000 1h2.006a.5.5 0 100-1h-.503V.5zM5 1.25A.75.75 0 015.75.5h8.5a.75.75 0 110 1.5h-8.5A.75.75 0 015 1.25zm0 5a.75.75 0 01.75-.75h8.5a.75.75 0 110 1.5h-8.5A.75.75 0 015 6.25zm0 5a.75.75 0 01.75-.75h8.5a.75.75 0 110 1.5h-8.5a.75.75 0 01-.75-.75zM.924 8.32l.003-.004a.851.851 0 01.144-.153A.66.66 0 011.5 8c.195 0 .306.068.374.146a.57.57 0 01.128.376c0 .453-.269.682-.8 1.078l-.035.025C.692 9.98 0 10.495 0 11.5a.5.5 0 00.5.5h2.003a.5.5 0 000-1H1.146c.132-.197.351-.372.654-.597l.047-.035c.47-.35 1.156-.858 1.156-1.845 0-.365-.118-.744-.377-1.038-.268-.303-.658-.484-1.126-.484-.48 0-.84.202-1.068.392a1.87 1.87 0 00-.348.384l-.007.011-.003.006-.001.001a.5.5 0 00.851.525z" fill="#000"/>
</svg>
