<svg width="17" height="16" fill="none" xmlns="http://www.w3.org/2000/svg">
  <path d="M16.571.572A.75.75 0 0117 1.25L15.777.668l-.015.012-.076.056a5.502 5.502 0 01-.345.224 9.87 9.87 0 01-1.463.719c-1.322.528-3.351 1.07-6.124 1.071a1.6 1.6 0 00-.861-.25H5a4 4 0 00-1.499 7.71.763.763 0 00-.001.04c0 2.32.486 3.93.813 4.75.262.66.897 1 1.517 1h1.197c.685 0 1.228-.389 1.546-.857.317-.466.468-1.09.31-1.696-.2-.767-.382-1.835-.383-3.183 2.394.086 4.177.577 5.378 1.057.506.2.996.44 1.463.719.144.087.285.18.421.28l.014.012h.002A.75.75 0 0017 11.75V1.25L15.777.668a.75.75 0 01.794-.096zM5.002 10.5h1.89c.037 0 .073-.001.11-.004.01 1.123.154 2.24.43 3.329a.608.608 0 01-.1.475c-.103.153-.222.2-.305.2H5.83a.186.186 0 01-.097-.024.057.057 0 01-.027-.03c-.254-.64-.671-1.977-.704-3.946zM8.5 8.763V4.237c2.6-.087 4.573-.621 5.935-1.166.411-.164.765-.329 1.065-.483v7.824a12.671 12.671 0 00-1.065-.483C13.073 9.383 11.101 8.85 8.5 8.763zM2.5 6.5A2.5 2.5 0 015 4h1.893c.059 0 .107.048.107.107v4.786A.107.107 0 016.893 9H5a2.5 2.5 0 01-2.5-2.5z" fill="#000"/>
</svg>
