<svg width="15" height="16" fill="none" xmlns="http://www.w3.org/2000/svg">
  <path fill-rule="evenodd" clip-rule="evenodd" d="M6.75 0a.75.75 0 01.75.75V3h3.634c.414 0 .814.147 1.13.414l2.07 1.75a1.75 1.75 0 010 2.672l-2.07 1.75a1.75 1.75 0 01-1.13.414H7.5v5.25a.75.75 0 11-1.5 0V10H1.75A1.75 1.75 0 010 8.25v-3.5C0 3.784.784 3 1.75 3H6V.75A.75.75 0 016.75 0zm4.384 8.5a.25.25 0 00.161-.06l2.07-1.75a.25.25 0 000-.38l-2.07-1.75a.25.25 0 00-.161-.06H1.75a.25.25 0 00-.25.25v3.5c0 .138.112.25.25.25h9.384z" fill="#000"/>
</svg>
