<svg width="16" height="14" fill="none" xmlns="http://www.w3.org/2000/svg">
  <path d="M7.693.066a.75.75 0 01.614 0l7.25 3.25a.75.75 0 010 1.368L13 5.831v2.794c0 1.024-.81 1.749-1.66 2.173-.893.447-2.075.702-3.34.702-.278 0-.55-.012-.816-.036a.75.75 0 01.133-1.494c.22.02.45.03.683.03 1.082 0 2.025-.221 2.67-.543.69-.345.83-.682.83-.832V6.503L8.307 7.934a.75.75 0 01-.614 0L4 6.28v1.663c.296.105.575.275.812.512.438.438.688 1.059.688 1.796v3a.75.75 0 01-.75.75h-3a.75.75 0 01-.75-.75v-3c0-.737.25-1.358.688-1.796.237-.237.516-.407.812-.512V5.606L.443 4.684a.75.75 0 010-1.368l7.25-3.25zM2.583 4L8 6.428 13.416 4 8 1.572 2.583 4zM2.5 10.25v2.25H4v-2.25c0-.388-.125-.611-.25-.735a.697.697 0 00-.5-.203.704.704 0 00-.5.203c-.125.124-.25.347-.25.735z" fill="#000"/>
</svg>
