<svg width="17" height="12" fill="none" xmlns="http://www.w3.org/2000/svg">
  <path fill-rule="evenodd" clip-rule="evenodd" d="M8 .75A.75.75 0 006.762.18L3.472 3H1.75A1.75 1.75 0 000 4.75v2.5C0 8.216.784 9 1.75 9h1.723l3.289 2.82A.75.75 0 008 11.25V.75zM4.238 4.32L6.5 2.38v7.24L4.238 7.68a.75.75 0 00-.488-.18h-2a.25.25 0 01-.25-.25v-2.5a.25.25 0 01.25-.25h2a.75.75 0 00.488-.18zm7.042-1.1a.75.75 0 10-1.06 1.06L11.94 6l-1.72 1.72a.75.75 0 101.06 1.06L13 7.06l1.72 1.72a.75.75 0 101.06-1.06L14.06 6l1.72-1.72a.75.75 0 00-1.06-1.06L13 4.94l-1.72-1.72z" fill="#000"/>
</svg>
