<svg width="16" height="16" viewBox="0 0 16 16" fill="none" xmlns="http://www.w3.org/2000/svg">
<path d="M1 5.25C1 5.05109 1.07902 4.86032 1.21967 4.71967C1.36032 4.57902 1.55109 4.5 1.75 4.5H14.25C14.4489 4.5 14.6397 4.57902 14.7803 4.71967C14.921 4.86032 15 5.05109 15 5.25C15 5.44891 14.921 5.63968 14.7803 5.78033C14.6397 5.92098 14.4489 6 14.25 6H1.75C1.55109 6 1.36032 5.92098 1.21967 5.78033C1.07902 5.63968 1 5.44891 1 5.25V5.25ZM1 10.75C1 10.5511 1.07902 10.3603 1.21967 10.2197C1.36032 10.079 1.55109 10 1.75 10H14.25C14.4489 10 14.6397 10.079 14.7803 10.2197C14.921 10.3603 15 10.5511 15 10.75C15 10.9489 14.921 11.1397 14.7803 11.2803C14.6397 11.421 14.4489 11.5 14.25 11.5H1.75C1.55109 11.5 1.36032 11.421 1.21967 11.2803C1.07902 11.1397 1 10.9489 1 10.75V10.75Z" fill="black"/>
<path d="M6.368 1.01C6.46533 1.02546 6.55866 1.05994 6.64265 1.11148C6.72665 1.16303 6.79966 1.23062 6.85752 1.31039C6.91537 1.39017 6.95694 1.48056 6.97985 1.57641C7.00275 1.67226 7.00654 1.77169 6.991 1.869L4.991 14.369C4.95957 14.5655 4.85136 14.7415 4.69017 14.8583C4.52899 14.975 4.32802 15.0229 4.1315 14.9915C3.93497 14.9601 3.75898 14.8519 3.64224 14.6907C3.5255 14.5295 3.47757 14.3285 3.509 14.132L5.509 1.632C5.52456 1.53466 5.55917 1.44135 5.61082 1.35739C5.66248 1.27344 5.73019 1.20049 5.81006 1.14272C5.88993 1.08495 5.98041 1.0435 6.07632 1.02072C6.17222 0.997951 6.27168 0.994307 6.369 1.01H6.368ZM11.868 1.01C11.9653 1.02546 12.0587 1.05994 12.1427 1.11148C12.2266 1.16303 12.2997 1.23062 12.3575 1.31039C12.4154 1.39017 12.4569 1.48056 12.4798 1.57641C12.5028 1.67226 12.5065 1.77169 12.491 1.869L10.491 14.369C10.4754 14.4663 10.4409 14.5596 10.3892 14.6435C10.3376 14.7275 10.27 14.8005 10.1902 14.8583C10.1104 14.9161 10.0199 14.9576 9.92409 14.9804C9.82823 15.0033 9.72881 15.0071 9.6315 14.9915C9.53419 14.9759 9.4409 14.9414 9.35695 14.8897C9.273 14.8381 9.20004 14.7705 9.14224 14.6907C9.08444 14.6109 9.04292 14.5204 9.02006 14.4246C8.9972 14.3287 8.99344 14.2293 9.009 14.132L11.009 1.632C11.0246 1.53466 11.0592 1.44135 11.1108 1.35739C11.1625 1.27344 11.2302 1.20049 11.3101 1.14272C11.3899 1.08495 11.4804 1.0435 11.5763 1.02072C11.6722 0.997951 11.7717 0.994307 11.869 1.01H11.868Z" fill="black"/>
</svg>
