<svg width="16" height="14" fill="none" xmlns="http://www.w3.org/2000/svg">
  <path fill-rule="evenodd" clip-rule="evenodd" d="M1.326.973a1.2 1.2 0 011.49-.832c.387.112.977.307 1.575.602.586.291 1.243.71 1.7 1.296.022.027.042.056.061.084A13.22 13.22 0 018 2c.67 0 1.289.037 1.861.108l.051-.07c.457-.586 1.114-1.004 1.7-1.295a9.655 9.655 0 011.576-.602 1.2 1.2 0 011.49.832c.14.493.356 1.347.479 2.29.079.604.123 1.28.07 1.936.541.977.773 2.11.773 3.301C16 12 14.5 14 8 14s-8-2-8-5.5c0-1.034.238-2.128.795-3.117-.08-.712-.034-1.46.052-2.12.122-.943.34-1.797.479-2.29zM8 12.065c6 0 6.5-2 6-4.27C13.363 4.905 11.25 4 8 4s-5.363.904-6 3.796c-.5 2.27 0 4.27 6 4.27v-.001z" fill="#000"/>
  <path d="M4 7a1 1 0 012 0v1a1 1 0 01-2 0V7zm2.078 2.492C5.995 9.228 6.224 9 6.5 9h3c.276 0 .505.228.422.492C9.67 10.304 8.834 11 8 11c-.834 0-1.669-.696-1.922-1.508zM10 7a1 1 0 012 0v1a1 1 0 01-2 0V7z" fill="#000"/>
</svg>
