<svg width="14" height="16" fill="none" xmlns="http://www.w3.org/2000/svg">
  <path d="M7.878.392a1.75 1.75 0 00-1.756 0L.872 3.437A1.75 1.75 0 000 4.951v6.098c0 .624.332 1.2.872 1.514l5.25 3.045a1.75 1.75 0 001.756 0l5.25-3.045c.54-.313.872-.89.872-1.514V4.951c0-.624-.332-1.2-.872-1.514L7.878.392zM6.875 1.69a.25.25 0 01.25 0l4.63 2.685L7 7.133 2.245 4.375l4.63-2.685zM1.5 5.677l4.75 2.755v5.516l-4.625-2.683a.247.247 0 01-.125-.216V5.677zm6.25 8.271V8.432l4.75-2.755v5.372a.25.25 0 01-.125.216L7.75 13.948z" fill="#000"/>
</svg>
