<svg width="16" height="16" fill="none" xmlns="http://www.w3.org/2000/svg">
  <path d="M6.122.392a1.75 1.75 0 011.756 0l5.25 3.045c.54.313.872.89.872 1.514V7.25a.75.75 0 11-1.5 0V5.677L7.75 8.432v6.384a1 1 0 01-1.502.865L.872 12.563A1.75 1.75 0 010 11.049V4.951c0-.624.332-1.2.872-1.514L6.122.392zM7.125 1.69a.25.25 0 00-.25 0l-4.63 2.685L7 7.133l4.755-2.758-4.63-2.685zM1.5 11.049a.25.25 0 00.125.216l4.625 2.683V8.432L1.5 5.677v5.372zm11.672-.282a.75.75 0 10-1.087-1.034l-2.378 2.5a.75.75 0 000 1.034l2.378 2.5a.75.75 0 001.087-1.034L11.999 13.5h3.251a.75.75 0 100-1.5h-3.251l1.173-1.233z" fill="#000"/>
</svg>
