<svg width="16" height="16" fill="none" xmlns="http://www.w3.org/2000/svg">
  <path d="M11.134 1.535C9.722 2.562 8.16 4.057 6.889 5.312 5.8 6.387 5.041 7.401 4.575 8.294a3.745 3.745 0 00-3.227 1.054c-.43.431-.69 1.066-.86 1.657a11.98 11.98 0 00-.358 1.914c-.084.758-.128 1.52-.13 2.284v.054l.75-.007-.007.75h.054a21.25 21.25 0 002.284-.13c.62-.07 1.3-.18 1.914-.357.592-.17 1.226-.43 1.657-.861a3.745 3.745 0 001.055-3.217c.908-.461 1.942-1.216 3.04-2.3 1.279-1.262 2.764-2.825 3.775-4.249.501-.706.923-1.428 1.125-2.096.2-.659.235-1.469-.368-2.07-.606-.607-1.42-.55-2.069-.34-.66.213-1.376.646-2.076 1.155zm-3.95 8.48a3.76 3.76 0 00-1.19-1.192 9.758 9.758 0 011.161-1.607l1.658 1.658a9.852 9.852 0 01-1.63 1.142l.001-.001zM.743 16l.007-.75-.751.008A.75.75 0 00.743 16zM12.016 2.749c.66-.48 1.223-.802 1.655-.942.436-.14.534-.041.548-.027v.001h.001c.023.024.125.131-.009.575-.132.435-.442 1-.912 1.662-.877 1.236-2.177 2.628-3.387 3.833L8.194 6.133c1.217-1.195 2.598-2.494 3.822-3.384zM1.62 13.089c.058-.564.161-1.123.309-1.67.151-.525.325-.855.48-1.01a2.25 2.25 0 013.182 3.182c-.155.155-.485.329-1.011.48-.547.148-1.105.251-1.668.309-.464.051-.93.086-1.396.104.018-.466.053-.931.104-1.395z" fill="#000"/>
</svg>
