<svg width="15" height="15" fill="none" xmlns="http://www.w3.org/2000/svg">
  <path fill-rule="evenodd" clip-rule="evenodd" d="M10.013 1.427a1.75 1.75 0 012.474 0l1.086 1.086a1.75 1.75 0 010 2.474l-8.61 8.61c-.21.21-.47.364-.756.445l-3.251.93a.75.75 0 01-.927-.928l.929-3.25a1.75 1.75 0 01.445-.758l8.61-8.61v.001zm1.414 1.06a.25.25 0 00-.354 0L9.811 3.75l1.439 1.44 1.263-1.263a.25.25 0 000-.354l-1.086-1.086zM10.189 6.25L8.75 4.81l-6.286 6.287a.25.25 0 00-.064.108l-.558 1.953 1.953-.558a.25.25 0 00.108-.064l6.286-6.286z" fill="#000"/>
</svg>
