<svg width="16" height="12" fill="none" xmlns="http://www.w3.org/2000/svg">
  <path fill-rule="evenodd" clip-rule="evenodd" d="M5.5 1.5a2 2 0 100 4 2 2 0 000-4zM2 3.5a3.5 3.5 0 115.898 2.549 5.507 5.507 0 013.034 4.084.752.752 0 01-.623.859.752.752 0 01-.859-.624 4.001 4.001 0 00-7.9 0 .75.75 0 01-1.482-.236A5.507 5.507 0 013.102 6.05 3.49 3.49 0 012 3.5zM11 2a.75.75 0 100 1.5 1.5 1.5 0 01.666 2.844.75.75 0 00-.416.672v.352a.75.75 0 00.574.73c1.2.289 2.162 1.2 2.522 2.372a.75.75 0 101.434-.44 5.01 5.01 0 00-2.56-3.012A3 3 0 0011 2z" fill="#000"/>
</svg>
