<svg width="12" height="16" fill="none" xmlns="http://www.w3.org/2000/svg">
  <path fill-rule="evenodd" clip-rule="evenodd" d="M4 .75A.75.75 0 014.75 0h2.5a.75.75 0 110 1.5h-2.5A.75.75 0 014 .75zm5 0A.75.75 0 019.75 0h1.5a.75.75 0 01.75.75v1.5a.75.75 0 11-1.5 0V1.5h-.75A.75.75 0 019 .75zM2.992.662a.75.75 0 01-.636.848c-.436.063-.783.41-.846.846a.75.75 0 11-1.485-.212A2.501 2.501 0 012.144.025a.75.75 0 01.848.637zM.75 4a.75.75 0 01.75.75v1.5a.75.75 0 01-1.5 0v-1.5A.75.75 0 01.75 4zm10.5 0a.75.75 0 01.75.75v1.5a.75.75 0 11-1.5 0v-1.5a.75.75 0 01.75-.75zM.75 8a.75.75 0 01.75.75v.268A1.72 1.72 0 011.75 9h.5a.75.75 0 010 1.5h-.5a.25.25 0 00-.25.25v.75c0 .28.114.532.3.714a.75.75 0 11-1.05 1.072A2.495 2.495 0 010 11.5V8.75A.75.75 0 01.75 8zm10.5 0a.75.75 0 01.75.75v4.5a.75.75 0 01-.75.75h-2.5a.75.75 0 110-1.5h1.75v-2h-.75a.75.75 0 110-1.5h.75v-.25a.75.75 0 01.75-.75zM4 9.75A.75.75 0 014.75 9h2.5a.75.75 0 010 1.5h-2.5A.75.75 0 014 9.75zm-1 2.5v3.25a.25.25 0 00.4.2l1.45-1.087a.25.25 0 01.3 0L6.6 15.7a.25.25 0 00.4-.2v-3.25a.25.25 0 00-.25-.25h-3.5a.25.25 0 00-.25.25z" fill="#000"/>
</svg>
