<svg width="15" height="16" fill="none" xmlns="http://www.w3.org/2000/svg">
  <path fill-rule="evenodd" clip-rule="evenodd" d="M0 2.5A2.5 2.5 0 012.5 0h8.75a.75.75 0 01.75.75v3.5a.75.75 0 11-1.5 0V1.5h-8a1 1 0 00-1 1v6.708A2.492 2.492 0 012.5 9h3.25a.75.75 0 010 1.5H2.5a1 1 0 000 2h5.75a.75.75 0 110 1.5H2.5A2.5 2.5 0 010 11.5v-9zm13.23 7.79a.75.75 0 001.06-1.06l-2.505-2.505a.75.75 0 00-1.06 0L8.22 9.229a.75.75 0 001.06 1.061l1.225-1.224v6.184a.75.75 0 101.5 0V9.066l1.225 1.224z" fill="#000"/>
</svg>
