<svg width="17" height="16" fill="none" xmlns="http://www.w3.org/2000/svg">
  <path d="M15.064 0a8.75 8.75 0 00-6.187 2.563l-.459.458c-.314.314-.616.641-.904.979H4.31a1.75 1.75 0 00-1.49.833L1.11 7.607a.75.75 0 00.418 1.11l3.102.954c.037.051.079.1.124.145l2.429 2.428c.046.046.094.088.145.125l.954 3.102a.75.75 0 001.11.418l2.774-1.707a1.75 1.75 0 00.833-1.49V9.485c.338-.288.665-.59.979-.904l.458-.459A8.75 8.75 0 0017 1.936V1.75A1.75 1.75 0 0015.25 0h-.186zM11.5 10.625v2.066a.25.25 0 01-.119.213l-1.949 1.2-.548-1.783 2.35-1.521c.089-.057.178-.115.266-.175zM4.678 8.116l-1.782-.547 1.2-1.95a.25.25 0 01.213-.119h2.067c-.059.088-.118.176-.176.266l-1.522 2.35zm5.26-4.493A7.25 7.25 0 0115.063 1.5h.186a.25.25 0 01.25.25v.186a7.25 7.25 0 01-2.123 5.127l-.459.458a15.21 15.21 0 01-2.499 2.02l-2.317 1.5-2.143-2.143 1.5-2.317a15.25 15.25 0 012.02-2.5l.458-.458h.002zM13 5a1 1 0 11-2 0 1 1 0 012 0zm-8.44 9.56a1.5 1.5 0 10-2.12-2.12c-.734.73-1.047 2.332-1.15 3.003a.23.23 0 00.265.265c.671-.103 2.273-.416 3.005-1.148z" fill="#000"/>
</svg>
