<svg width="14" height="14" fill="none" xmlns="http://www.w3.org/2000/svg">
  <path fill-rule="evenodd" clip-rule="evenodd" d="M4.25 0A.75.75 0 015 .75v2.5A1.75 1.75 0 013.25 5H.75a.75.75 0 010-1.5h2.5a.25.25 0 00.25-.25V.75A.75.75 0 014.25 0zm5.5 0a.75.75 0 01.75.75v2.5c0 .138.112.25.25.25h2.5a.75.75 0 110 1.5h-2.5A1.75 1.75 0 019 3.25V.75A.75.75 0 019.75 0zM0 9.75A.75.75 0 01.75 9h2.5C4.216 9 5 9.784 5 10.75v2.5a.75.75 0 11-1.5 0v-2.5a.25.25 0 00-.25-.25H.75A.75.75 0 010 9.75zm9 1C9 9.784 9.784 9 10.75 9h2.5a.75.75 0 110 1.5h-2.5a.25.25 0 00-.25.25v2.5a.75.75 0 11-1.5 0v-2.5z" fill="#000"/>
</svg>
