<svg width="14" height="14" fill="none" xmlns="http://www.w3.org/2000/svg">
  <path fill-rule="evenodd" clip-rule="evenodd" d="M1.75 1.5a.25.25 0 00-.25.25v2.5a.75.75 0 01-1.5 0v-2.5C0 .784.784 0 1.75 0h2.5a.75.75 0 010 1.5h-2.5zM9 .75A.75.75 0 019.75 0h2.5C13.216 0 14 .784 14 1.75v2.5a.75.75 0 11-1.5 0v-2.5a.25.25 0 00-.25-.25h-2.5A.75.75 0 019 .75zM.75 9a.75.75 0 01.75.75v2.5c0 .138.112.25.25.25h2.5a.75.75 0 110 1.5h-2.5A1.75 1.75 0 010 12.25v-2.5A.75.75 0 01.75 9zm12.5 0a.75.75 0 01.75.75v2.5A1.75 1.75 0 0112.25 14h-2.5a.75.75 0 110-1.5h2.5a.25.25 0 00.25-.25v-2.5a.75.75 0 01.75-.75z" fill="#000"/>
</svg>
