<svg width="16" height="14" fill="none" xmlns="http://www.w3.org/2000/svg">
  <path d="M1.75 0A1.75 1.75 0 000 1.75v4c0 .372.116.717.314 1a1.742 1.742 0 00-.314 1v4c0 .966.784 1.75 1.75 1.75h12.5A1.75 1.75 0 0016 11.75v-4c0-.372-.116-.717-.314-1 .198-.283.314-.628.314-1v-4A1.75 1.75 0 0014.25 0H1.75zm0 7.5h12.5a.25.25 0 01.25.25v4a.25.25 0 01-.25.25H1.75a.25.25 0 01-.25-.25v-4a.25.25 0 01.25-.25zM1.5 1.75a.25.25 0 01.25-.25h12.5a.25.25 0 01.25.25v4a.25.25 0 01-.25.25H1.75a.25.25 0 01-.25-.25v-4zm5.5 2A.75.75 0 017.75 3h4.5a.75.75 0 110 1.5h-4.5A.75.75 0 017 3.75zM7.75 9a.75.75 0 000 1.5h4.5a.75.75 0 100-1.5h-4.5zM3 3.75A.75.75 0 013.75 3h.5a.75.75 0 010 1.5h-.5A.75.75 0 013 3.75zM3.75 9a.75.75 0 000 1.5h.5a.75.75 0 100-1.5h-.5z" fill="#000"/>
</svg>
