<svg width="12" height="15" fill="none" xmlns="http://www.w3.org/2000/svg">
  <path fill-rule="evenodd" clip-rule="evenodd" d="M5.823.177L2.927 3.073a.25.25 0 00.177.427H5.25v5.75a.75.75 0 001.5 0V3.5h2.146a.25.25 0 00.177-.427L6.177.177a.25.25 0 00-.354 0zM1.75 6.5a.25.25 0 00-.25.25v6.5c0 .138.112.25.25.25h8.5a.25.25 0 00.25-.25v-6.5a.25.25 0 00-.25-.25h-1a.75.75 0 010-1.5h1c.966 0 1.75.784 1.75 1.75v6.5A1.75 1.75 0 0110.25 15h-8.5A1.75 1.75 0 010 13.25v-6.5C0 5.784.784 5 1.75 5h1a.75.75 0 010 1.5h-1z" fill="#000"/>
</svg>
