<svg width="14" height="16" fill="none" xmlns="http://www.w3.org/2000/svg">
  <path fill-rule="evenodd" clip-rule="evenodd" d="M7.533.133a1.75 1.75 0 00-1.066 0l-5.25 1.68A1.75 1.75 0 000 3.48V7c0 1.566.32 3.182 1.303 4.682.983 1.498 2.585 2.813 5.032 3.855a1.7 1.7 0 001.33 0c2.447-1.042 4.049-2.357 5.032-3.855C13.68 10.182 14 8.566 14 7V3.48a1.75 1.75 0 00-1.217-1.667L7.533.133zm-.61 1.429a.25.25 0 01.153 0l5.25 1.68a.25.25 0 01.174.238V7c0 1.358-.275 2.666-1.057 3.86-.784 1.194-2.121 2.34-4.366 3.297a.2.2 0 01-.154 0c-2.245-.956-3.582-2.104-4.366-3.298C1.775 9.666 1.5 8.36 1.5 7V3.48a.25.25 0 01.174-.237l5.25-1.68-.001-.001zM8.5 6.5a1.5 1.5 0 01-.75 1.3v2.45a.75.75 0 11-1.5 0V7.8A1.5 1.5 0 118.5 6.5z" fill="#000"/>
</svg>
