<svg width="14" height="16" fill="none" xmlns="http://www.w3.org/2000/svg">
  <path fill-rule="evenodd" clip-rule="evenodd" d="M4.75.75A.75.75 0 015.5 0h3a.75.75 0 110 1.5h-.75v1l-.001.041a6.718 6.718 0 013.464 1.435l.007-.006.75-.75a.75.75 0 111.06 1.06l-.75.75-.006.007a6.75 6.75 0 11-10.548 0L1.72 5.03l-.75-.75a.75.75 0 011.06-1.06l.75.75.007.006A6.718 6.718 0 016.25 2.541V1.5H5.5a.75.75 0 01-.75-.75zM7 14.5A5.25 5.25 0 107 4a5.25 5.25 0 000 10.5zm.389-6.7l1.33-1.33A.75.75 0 119.78 7.53L8.45 8.861A1.502 1.502 0 017 10.75a1.5 1.5 0 11.389-2.95z" fill="#000"/>
</svg>
