<svg width="14" height="13" fill="none" xmlns="http://www.w3.org/2000/svg">
  <path fill-rule="evenodd" clip-rule="evenodd" d="M6.581 2.25c-2.036 0-2.778 1.082-2.778 1.786 0 .055.002.107.006.157a.75.75 0 11-1.496.114c-.007-.09-.01-.18-.01-.271C2.303 2.204 4.053.75 6.581.75c1.418 0 2.721.58 3.514 1.093a.75.75 0 01-.814 1.26c-.64-.414-1.662-.853-2.7-.853zm3.474 5.25h3.195a.75.75 0 100-1.5H.75a.75.75 0 000 1.5h6.018c.835.187 1.503.464 1.951.81.439.34.647.725.647 1.197 0 .428-.159.895-.594 1.267-.444.38-1.254.726-2.676.726-1.373 0-2.38-.493-2.86-.956a.75.75 0 10-1.042 1.079C2.992 12.393 4.39 13 6.096 13c1.652 0 2.852-.403 3.65-1.085a3.135 3.135 0 001.12-2.408 2.85 2.85 0 00-.811-2.007z" fill="#000"/>
</svg>
