<svg width="14" height="14" fill="none" xmlns="http://www.w3.org/2000/svg">
  <path fill-rule="evenodd" clip-rule="evenodd" d="M7 1.5a5.487 5.487 0 00-4.131 1.869l1.204 1.204A.25.25 0 013.896 5H.25A.25.25 0 010 4.75V1.104A.25.25 0 01.427.927l1.38 1.38A7.001 7.001 0 0113.95 6.16a.75.75 0 11-1.49.178A5.501 5.501 0 007 1.5zM.705 7.005a.75.75 0 01.834.656 5.501 5.501 0 009.592 2.97L9.927 9.427A.25.25 0 0110.104 9h3.646a.25.25 0 01.25.25v3.646a.25.25 0 01-.427.177l-1.38-1.38A7.001 7.001 0 01.05 7.84a.75.75 0 01.656-.834l-.001-.001z" fill="#000"/>
</svg>
