<svg width="16" height="16" fill="none" xmlns="http://www.w3.org/2000/svg">
  <path d="M14.184 1.143a1.75 1.75 0 00-2.502-.57L.912 7.916a1.75 1.75 0 00-.53 2.32l.447.775a1.75 1.75 0 002.275.702l11.745-5.656a1.75 1.75 0 00.757-2.451l-1.422-2.464v.001zm-1.657.669a.25.25 0 01.358.081l1.422 2.464a.249.249 0 01-.108.35l-2.016.97-1.505-2.605 1.849-1.26zM9.436 3.92l1.391 2.41-5.42 2.61-.942-1.63 4.971-3.39zM3.222 8.157l.829 1.436-1.598.769a.25.25 0 01-.325-.1l-.447-.775a.25.25 0 01.075-.33l1.466-1zm6.253 2.306a.75.75 0 00-.944-.252l-1.809.87a.75.75 0 00-.293.253L4.38 14.326a.75.75 0 101.238.848l1.881-2.75v2.826a.75.75 0 101.5 0v-2.826l1.881 2.75a.75.75 0 001.238-.848l-2.644-3.863h.001z" fill="#000"/>
</svg>
