<svg width="16" height="14" fill="none" xmlns="http://www.w3.org/2000/svg">
  <path fill-rule="evenodd" clip-rule="evenodd" d="M0 1.75C0 .784.784 0 1.75 0h12.5C15.216 0 16 .784 16 1.75v10.5A1.75 1.75 0 0114.25 14H1.75A1.75 1.75 0 010 12.25V1.75zm1.75-.25a.25.25 0 00-.25.25v10.5c0 .138.112.25.25.25h12.5a.25.25 0 00.25-.25V1.75a.25.25 0 00-.25-.25H1.75zM7.25 7a.75.75 0 01-.22.53L4.78 9.78a.75.75 0 11-1.06-1.06L5.44 7 3.72 5.28a.75.75 0 111.06-1.06l2.25 2.25c.141.14.22.331.22.53zm1.5 1.5a.75.75 0 000 1.5h3a.75.75 0 100-1.5h-3z" fill="#000"/>
</svg>
