<svg width="16" height="16" fill="none" xmlns="http://www.w3.org/2000/svg">
  <path d="M7.083 15.986c1.34.153 2.334-.982 2.334-2.183v-.5c0-1.329.646-2.123 1.317-2.614.329-.24.66-.403.919-.508a1.75 1.75 0 001.514.872h1a1.75 1.75 0 001.75-1.75v-7.5a1.75 1.75 0 00-1.75-1.75h-1a1.75 1.75 0 00-1.662 1.2c-.525-.074-1.068-.228-1.726-.415L9.305.705C8.151.385 6.765.053 4.917.053c-1.706 0-2.97.152-3.722 1.139-.353.463-.537 1.042-.669 1.672C.41 3.424.32 4.108.214 4.897l-.04.306c-.25 1.869-.266 3.318.188 4.316.244.537.622.943 1.136 1.2.495.248 1.066.334 1.669.334h1.422l-.015.112c-.07.518-.157 1.17-.157 1.638 0 .921.151 1.718.655 2.299.512.589 1.248.797 2.011.884zm4.334-13.232v5.915c-.56.189-1.09.462-1.568.809-.954.698-1.932 1.903-1.932 3.825v.5c0 .456-.357.728-.664.693-.647-.074-.911-.22-1.048-.377-.144-.166-.288-.508-.288-1.316 0-.359.064-.841.13-1.329.026-.196.053-.394.075-.586.09-.758-.52-1.335-1.205-1.335h-1.75c-.477 0-.789-.071-.997-.175a.921.921 0 01-.443-.48c-.257-.564-.317-1.615-.067-3.497l.04-.3c.107-.806.19-1.428.295-1.93.118-.565.246-.877.393-1.07.249-.326.735-.548 2.529-.548 1.652 0 2.891.293 3.987.597l.441.125c.682.195 1.366.39 2.072.479zm1.75 6.798a.25.25 0 01-.25-.25v-7.5a.25.25 0 01.25-.25h1a.25.25 0 01.25.25v7.5a.25.25 0 01-.25.25h-1z" fill="#000"/>
</svg>
