<svg width="16" height="16" fill="none" xmlns="http://www.w3.org/2000/svg">
  <path d="M8.834.066C7.494-.087 6.5 1.048 6.5 2.25v.5c0 1.329-.647 2.124-1.318 2.614-.328.24-.66.403-.918.508A1.75 1.75 0 002.75 5h-1A1.75 1.75 0 000 6.75v7.5C0 15.216.784 16 1.75 16h1a1.75 1.75 0 001.662-1.201c.525.075 1.067.229 1.725.415.152.043.31.088.475.133 1.154.32 2.54.653 4.388.653 1.706 0 2.97-.153 3.722-1.14.353-.463.537-1.042.668-1.672.118-.56.208-1.243.313-2.033l.04-.306c.25-1.869.265-3.318-.188-4.316a2.418 2.418 0 00-1.137-1.2C13.924 5.085 13.353 5 12.75 5h-1.422l.015-.113c.07-.518.157-1.17.157-1.637 0-.922-.151-1.719-.656-2.3-.51-.589-1.247-.797-2.01-.884zM4.5 13.3V7.385a5.86 5.86 0 001.567-.81C7.022 5.878 8 4.672 8 2.75v-.5c0-.457.357-.729.664-.693.646.074.911.22 1.048.378.144.166.288.507.288 1.316 0 .358-.065.84-.13 1.328-.026.196-.053.394-.076.586-.089.759.52 1.336 1.206 1.336h1.75c.477 0 .789.07.997.174.2.1.358.271.442.48.257.564.318 1.615.068 3.497l-.04.3c-.107.806-.19 1.428-.295 1.93-.118.565-.247.877-.394 1.07-.248.326-.734.549-2.528.549-1.653 0-2.891-.293-3.987-.598l-.441-.125c-.682-.194-1.367-.39-2.072-.478zM2.75 6.5a.25.25 0 01.25.25v7.5a.25.25 0 01-.25.25h-1a.25.25 0 01-.25-.25v-7.5a.25.25 0 01.25-.25h1z" fill="#000"/>
</svg>
