<svg width="16" height="12" fill="none" xmlns="http://www.w3.org/2000/svg">
  <path d="M6.21 7.5H2.857l1.717-4.906L6.21 7.5zm.5 1.5l.829 2.487a.75.75 0 001.423-.474L5.735 1.332a1.216 1.216 0 00-2.302-.018l-3.39 9.688a.75.75 0 001.415.496L2.332 9H6.71zm3.13-4.358C10.53 3.374 11.87 3 13 3c1.5 0 3 .939 3 2.601v5.649a.75.75 0 01-1.448.275C13.995 11.82 13.3 12 12.5 12c-.77 0-1.514-.231-2.078-.709-.577-.488-.922-1.199-.922-2.041 0-.694.265-1.411.887-1.944C11 6.78 11.88 6.5 13 6.5h1.5v-.899c0-.54-.5-1.101-1.5-1.101-.869 0-1.528.282-1.84.858a.75.75 0 01-1.32-.716zM14.5 8H13c-.881 0-1.375.22-1.637.444-.253.217-.363.5-.363.806 0 .408.155.697.39.896.249.21.63.354 1.11.354.732 0 1.26-.209 1.588-.449.35-.257.412-.495.412-.551V8z" fill="#000"/>
</svg>
