<svg width="14" height="16" fill="none" xmlns="http://www.w3.org/2000/svg">
  <path fill-rule="evenodd" clip-rule="evenodd" d="M7.177.677l2.896 2.896A.25.25 0 019.896 4H7.75v1.25a.75.75 0 01-1.5 0V4H4.104a.25.25 0 01-.177-.427L6.823.677a.25.25 0 01.354 0zM6.25 10.75a.75.75 0 111.5 0V12h2.146a.25.25 0 01.177.427l-2.896 2.896a.25.25 0 01-.354 0l-2.896-2.896A.25.25 0 014.104 12H6.25v-1.25zm-5-2a.75.75 0 000-1.5h-.5a.75.75 0 000 1.5h.5zM5 8a.75.75 0 01-.75.75h-.5a.75.75 0 010-1.5h.5A.75.75 0 015 8zm2.25.75a.75.75 0 000-1.5h-.5a.75.75 0 000 1.5h.5zM11 8a.75.75 0 01-.75.75h-.5a.75.75 0 010-1.5h.5A.75.75 0 0111 8zm2.25.75a.75.75 0 100-1.5h-.5a.75.75 0 100 1.5h.5z" fill="#000"/>
</svg>
