<svg width="16" height="16" viewBox="0 0 16 16" fill="none" xmlns="http://www.w3.org/2000/svg">
<path d="M8.177 0.677001L11.073 3.573C11.1081 3.60797 11.1319 3.65255 11.1416 3.70111C11.1513 3.74966 11.1464 3.8 11.1274 3.84573C11.1084 3.89147 11.0763 3.93055 11.0351 3.95801C10.9939 3.98548 10.9455 4.00009 10.896 4H8.75V5.25C8.75 5.44891 8.67098 5.63968 8.53033 5.78033C8.38968 5.92098 8.19891 6 8 6C7.80109 6 7.61032 5.92098 7.46967 5.78033C7.32902 5.63968 7.25 5.44891 7.25 5.25V4H5.104C5.05449 4.00009 5.00607 3.98548 4.96487 3.95801C4.92368 3.93055 4.89157 3.89147 4.87261 3.84573C4.85365 3.8 4.8487 3.74966 4.85838 3.70111C4.86806 3.65255 4.89195 3.60797 4.927 3.573L7.823 0.677001C7.84622 0.653719 7.87381 0.635248 7.90418 0.622644C7.93456 0.610041 7.96712 0.603554 8 0.603554C8.03288 0.603554 8.06544 0.610041 8.09582 0.622644C8.12619 0.635248 8.15378 0.653719 8.177 0.677001V0.677001ZM7.25 10.75C7.25 10.5511 7.32902 10.3603 7.46967 10.2197C7.61032 10.079 7.80109 10 8 10C8.19891 10 8.38968 10.079 8.53033 10.2197C8.67098 10.3603 8.75 10.5511 8.75 10.75V12H10.896C10.9455 11.9999 10.9939 12.0145 11.0351 12.042C11.0763 12.0695 11.1084 12.1085 11.1274 12.1543C11.1464 12.2 11.1513 12.2503 11.1416 12.2989C11.1319 12.3475 11.1081 12.392 11.073 12.427L8.177 15.323C8.15378 15.3463 8.12619 15.3648 8.09582 15.3774C8.06544 15.39 8.03288 15.3964 8 15.3964C7.96712 15.3964 7.93456 15.39 7.90418 15.3774C7.87381 15.3648 7.84622 15.3463 7.823 15.323L4.927 12.427C4.89195 12.392 4.86806 12.3475 4.85838 12.2989C4.8487 12.2503 4.85365 12.2 4.87261 12.1543C4.89157 12.1085 4.92368 12.0695 4.96487 12.042C5.00607 12.0145 5.05449 11.9999 5.104 12H7.25V10.75ZM2.25 8.75C2.44891 8.75 2.63968 8.67098 2.78033 8.53033C2.92098 8.38968 3 8.19891 3 8C3 7.80109 2.92098 7.61032 2.78033 7.46967C2.63968 7.32902 2.44891 7.25 2.25 7.25H1.75C1.55109 7.25 1.36032 7.32902 1.21967 7.46967C1.07902 7.61032 1 7.80109 1 8C1 8.19891 1.07902 8.38968 1.21967 8.53033C1.36032 8.67098 1.55109 8.75 1.75 8.75H2.25ZM6 8C6 8.19891 5.92098 8.38968 5.78033 8.53033C5.63968 8.67098 5.44891 8.75 5.25 8.75H4.75C4.55109 8.75 4.36032 8.67098 4.21967 8.53033C4.07902 8.38968 4 8.19891 4 8C4 7.80109 4.07902 7.61032 4.21967 7.46967C4.36032 7.32902 4.55109 7.25 4.75 7.25H5.25C5.44891 7.25 5.63968 7.32902 5.78033 7.46967C5.92098 7.61032 6 7.80109 6 8ZM8.25 8.75C8.44891 8.75 8.63968 8.67098 8.78033 8.53033C8.92098 8.38968 9 8.19891 9 8C9 7.80109 8.92098 7.61032 8.78033 7.46967C8.63968 7.32902 8.44891 7.25 8.25 7.25H7.75C7.55109 7.25 7.36032 7.32902 7.21967 7.46967C7.07902 7.61032 7 7.80109 7 8C7 8.19891 7.07902 8.38968 7.21967 8.53033C7.36032 8.67098 7.55109 8.75 7.75 8.75H8.25ZM12 8C12 8.19891 11.921 8.38968 11.7803 8.53033C11.6397 8.67098 11.4489 8.75 11.25 8.75H10.75C10.5511 8.75 10.3603 8.67098 10.2197 8.53033C10.079 8.38968 10 8.19891 10 8C10 7.80109 10.079 7.61032 10.2197 7.46967C10.3603 7.32902 10.5511 7.25 10.75 7.25H11.25C11.4489 7.25 11.6397 7.32902 11.7803 7.46967C11.921 7.61032 12 7.80109 12 8ZM14.25 8.75C14.4489 8.75 14.6397 8.67098 14.7803 8.53033C14.921 8.38968 15 8.19891 15 8C15 7.80109 14.921 7.61032 14.7803 7.46967C14.6397 7.32902 14.4489 7.25 14.25 7.25H13.75C13.5511 7.25 13.3603 7.32902 13.2197 7.46967C13.079 7.61032 13 7.80109 13 8C13 8.19891 13.079 8.38968 13.2197 8.53033C13.3603 8.67098 13.5511 8.75 13.75 8.75H14.25Z" fill="black"/>
</svg>
