<svg width="16" height="12" fill="none" xmlns="http://www.w3.org/2000/svg">
  <path fill-rule="evenodd" clip-rule="evenodd" d="M7.563.069A.75.75 0 018 .75v10.5a.75.75 0 01-1.238.57L3.472 9H1.75A1.75 1.75 0 010 7.25v-2.5C0 3.784.784 3 1.75 3h1.723L6.762.18a.75.75 0 01.801-.111zM6.5 2.38L4.238 4.319a.75.75 0 01-.488.181h-2a.25.25 0 00-.25.25v2.5c0 .138.112.25.25.25h2a.75.75 0 01.488.18L6.5 9.62V2.38zM12.596.342a.75.75 0 011.06 0 8 8 0 010 11.314.75.75 0 01-1.06-1.06 6.5 6.5 0 000-9.193.75.75 0 010-1.061zm-1.06 2.121a.75.75 0 10-1.061 1.061 3.5 3.5 0 010 4.95.75.75 0 101.06 1.06 5 5 0 000-7.07l.001-.001z" fill="#000"/>
</svg>
