<svg width="16" height="12" fill="none" xmlns="http://www.w3.org/2000/svg">
  <path fill-rule="evenodd" clip-rule="evenodd" d="M7.75 12A1.75 1.75 0 016 10.25v-8.5C6 .784 6.784 0 7.75 0h6.5C15.216 0 16 .784 16 1.75v8.5A1.75 1.75 0 0114.25 12h-6.5zm-.25-1.75c0 .138.112.25.25.25h6.5a.25.25 0 00.25-.25v-8.5a.25.25 0 00-.25-.25h-6.5a.25.25 0 00-.25.25v8.5zM4.9 1.508a.75.75 0 01-.274 1.025.25.25 0 00-.126.217v6.5a.25.25 0 00.126.217.75.75 0 11-.752 1.298A1.75 1.75 0 013 9.25v-6.5c0-.649.353-1.214.874-1.516a.75.75 0 011.026.274zM1.625 3.533a.75.75 0 00-.752-1.299A1.75 1.75 0 000 3.75v4.5c0 .649.353 1.214.874 1.515a.75.75 0 00.752-1.298.25.25 0 01-.126-.217v-4.5a.25.25 0 01.126-.217h-.001z" fill="#000"/>
</svg>
