<svg width="16" height="16" viewBox="0 0 16 16" fill="none" xmlns="http://www.w3.org/2000/svg">
<path d="M1.75 3.5C1.6837 3.5 1.62011 3.52634 1.57322 3.57322C1.52634 3.62011 1.5 3.6837 1.5 3.75V12.25C1.5 12.388 1.612 12.5 1.75 12.5H14.25C14.3163 12.5 14.3799 12.4737 14.4268 12.4268C14.4737 12.3799 14.5 12.3163 14.5 12.25V3.75C14.5 3.6837 14.4737 3.62011 14.4268 3.57322C14.3799 3.52634 14.3163 3.5 14.25 3.5H1.75ZM0 3.75C0 2.784 0.784 2 1.75 2H14.25C15.216 2 16 2.784 16 3.75V12.25C16 12.7141 15.8156 13.1592 15.4874 13.4874C15.1592 13.8156 14.7141 14 14.25 14H1.75C1.28587 14 0.840752 13.8156 0.512563 13.4874C0.184374 13.1592 0 12.7141 0 12.25L0 3.75Z" fill="black"/>
<path d="M6 10.559V5.442C5.99985 5.39765 6.0115 5.35406 6.03375 5.3157C6.05601 5.27733 6.08807 5.24558 6.12665 5.2237C6.16522 5.20182 6.20892 5.19059 6.25327 5.19117C6.29762 5.19175 6.34101 5.20412 6.379 5.227L10.643 7.786C10.6799 7.80826 10.7103 7.83965 10.7315 7.87714C10.7526 7.91463 10.7638 7.95695 10.7638 8C10.7638 8.04305 10.7526 8.08537 10.7315 8.12286C10.7103 8.16035 10.6799 8.19175 10.643 8.214L6.379 10.773C6.34108 10.7958 6.29778 10.8082 6.25352 10.8088C6.20926 10.8095 6.16563 10.7983 6.12708 10.7765C6.08854 10.7548 6.05646 10.7232 6.03413 10.685C6.01181 10.6467 6.00003 10.6033 6 10.559Z" fill="black"/>
</svg>
