<svg width="14" height="16" fill="none" xmlns="http://www.w3.org/2000/svg">
  <path fill-rule="evenodd" clip-rule="evenodd" d="M9.561 1.5a.016.016 0 00-.01.004L2.286 8.571A.25.25 0 002.462 9H5.75a.75.75 0 01.694 1.034l-1.713 4.188 6.982-6.793A.25.25 0 0011.538 7H8.25a.75.75 0 01-.683-1.06l2.008-4.418.003-.006a.02.02 0 00-.004-.009.02.02 0 00-.006-.006L9.561 1.5zM8.504.43a1.516 1.516 0 012.437 1.713L9.415 5.5h2.123c1.57 0 2.346 1.909 1.22 3.004l-7.34 7.142a1.25 1.25 0 01-.871.354h-.302a1.25 1.25 0 01-1.157-1.723L4.633 10.5H2.462c-1.57 0-2.346-1.909-1.22-3.004L8.503.429l.001.001z" fill="#000"/>
</svg>
